<svg width="30" height="30" viewBox="0 0 30 30" fill="none" xmlns="http://www.w3.org/2000/svg">
<path d="M25.625 11.25H23.75V8.75C23.75 3.925 19.825 0 15 0C10.175 0 6.25 3.925 6.25 8.75V11.25H4.375C4.20924 11.25 4.05027 11.3158 3.93306 11.4331C3.81585 11.5503 3.75 11.7092 3.75 11.875V27.5C3.75 28.879 4.871 30 6.25 30H23.75C25.129 30 26.25 28.879 26.25 27.5V11.875C26.25 11.7092 26.1842 11.5503 26.0669 11.4331C25.9497 11.3158 25.7908 11.25 25.625 11.25ZM16.871 24.306C16.8805 24.3933 16.8716 24.4817 16.8448 24.5653C16.8179 24.6489 16.7738 24.726 16.7152 24.7914C16.6566 24.8569 16.5849 24.9093 16.5048 24.9452C16.4246 24.9812 16.3378 24.9998 16.25 25H13.75C13.6621 25 13.5752 24.9814 13.495 24.9455C13.4148 24.9097 13.343 24.8573 13.2844 24.7918C13.2258 24.7263 13.1817 24.6492 13.1549 24.5655C13.1281 24.4818 13.1193 24.3933 13.129 24.306L13.523 20.76C13.2053 20.5301 12.9469 20.2279 12.769 19.8784C12.5912 19.5289 12.4989 19.1421 12.5 18.75C12.5 17.371 13.621 16.25 15 16.25C16.379 16.25 17.5 17.371 17.5 18.75C17.5 19.558 17.117 20.295 16.477 20.76L16.871 24.306ZM20 11.25H10V8.75C10 5.993 12.243 3.75 15 3.75C17.757 3.75 20 5.993 20 8.75V11.25Z" fill="#FCEE21"/>
</svg>
