<svg width="268" height="79" viewBox="0 0 268 79" fill="none" xmlns="http://www.w3.org/2000/svg">
<path d="M155.704 58.5529L137.208 17.1012H0V58.5529H155.704Z" fill="#FCEE21"/>
<path d="M8.39854 38.1989C8.39854 45.82 14.3436 50.9318 21.9873 50.9318C28.7816 50.9318 32.1788 47.0283 33.6887 43.6824L27.1774 40.7083C26.5169 42.5671 24.6295 44.24 22.0816 44.24C18.6845 44.24 16.2309 41.5448 16.2309 38.1059C16.2309 34.76 18.6845 31.9718 22.0816 31.9718C24.7239 31.9718 26.6112 33.6448 27.1774 35.5036L33.6887 32.5295C32.1788 29.1836 28.876 25.373 21.9873 25.373C14.3436 25.4659 8.39854 30.5777 8.39854 38.1989ZM119.09 42.2883H121.732L125.224 50.4671H133.811L129.187 41.7306C131.735 40.6153 133.811 38.1989 133.811 34.2953C133.811 29.6483 130.697 25.8377 124.846 25.8377H111.446V50.4671H118.996V42.2883H119.09ZM87.1943 25.8377V50.4671H106.162V44.5189H94.7436V40.8942H105.879V35.1318H94.7436V31.7859H106.162V25.8377H87.1943ZM60.4887 25.8377V50.4671H75.8704C80.8718 50.4671 83.2309 47.2142 83.2309 43.7753C83.2309 40.6153 81.1549 38.1059 78.5126 37.7342C80.9662 37.1765 82.8535 35.1318 82.8535 32.0648C82.8535 29.1836 80.5887 25.7448 75.3986 25.7448H60.4887V25.8377ZM58.8845 25.8377H50.2971L45.7676 34.2024L41.1436 25.8377H32.4619L41.8986 40.8012V50.4671H49.6366V40.8012L58.8845 25.8377ZM73.4169 35.2248H67.9436V31.5071H73.4169C74.3605 31.5071 75.2098 32.2506 75.2098 33.273C75.1155 34.4812 74.3605 35.2248 73.4169 35.2248ZM123.62 31.8789C124.941 31.8789 126.073 32.7153 126.073 34.1095C126.073 35.5036 124.846 36.34 123.62 36.34H119.09V31.7859H123.62V31.8789ZM73.6056 44.7977H67.9436V40.8012H73.6056C74.8324 40.8012 75.5873 41.7306 75.5873 42.8459C75.5873 43.9612 74.8324 44.7977 73.6056 44.7977ZM149.287 26.2095L168.255 67.6612H248.089L267.056 26.2095H149.287Z" fill="black"/>
<path d="M231.575 40.5224H224.025V34.5741H246.673V40.5224H239.124V59.2035H231.575V40.5224ZM175.049 34.5741H189.959C195.149 34.5741 197.414 38.013 197.414 40.8941C197.414 43.9612 195.527 46.0059 193.168 46.5635C195.904 46.9353 197.886 49.4447 197.886 52.6047C197.886 56.0435 195.527 59.2965 190.525 59.2965H175.144V34.5741H175.049ZM187.977 43.9612C188.921 43.9612 189.77 43.1247 189.77 42.0094C189.77 40.9871 188.921 40.2435 187.977 40.2435H182.504V43.9612H187.977ZM188.166 53.5341C189.393 53.5341 190.148 52.6977 190.148 51.5824C190.148 50.4671 189.393 49.5377 188.166 49.5377H182.504V53.5341H188.166ZM201.755 34.5741H220.817V40.5224H209.399V43.8682H220.534V49.6306H209.399V53.2553H220.817V59.2035H201.849V34.5741H201.755Z" fill="#FCEE21"/>
</svg>
