<svg width="292" height="67" viewBox="0 0 292 67" fill="none" xmlns="http://www.w3.org/2000/svg">
<path d="M162.174 1.21107C162.797 0.667254 163.547 0.289598 164.355 0.11312C165.163 -0.0633579 166.003 -0.0329421 166.796 0.201547C167.4 0.439656 167.972 0.752374 168.499 1.13242C168.971 1.35073 169.431 1.59388 169.878 1.86084C170.08 2.02259 169.918 2.30704 169.918 2.50782C170.521 3.74025 170.651 5.15143 170.283 6.47339C169.918 6.91959 169.269 7.04006 168.742 7.24308C168.729 7.80289 168.798 8.36158 168.945 8.90182C168.823 8.98269 168.742 9.06356 168.62 9.14443C169.399 9.08226 170.172 8.9605 170.932 8.78023C171.216 8.49689 171.661 8.6592 172.026 8.61848C172.067 8.05181 172.27 7.52586 172.27 6.95919C172.382 6.95162 172.491 6.92424 172.594 6.87832C172.594 7.28607 172.635 7.69279 172.715 8.09253C172.918 8.25427 173.242 8.1734 173.486 8.21356C173.479 8.37655 173.493 8.53974 173.526 8.69935C178.229 8.6592 182.973 8.69935 187.676 8.69935V9.38706H188.122V6.75673H188.65C188.65 7.4857 188.609 8.1734 188.65 8.90182C188.705 8.95247 188.777 8.98121 188.853 8.98269C188.853 9.06356 188.893 9.22531 188.893 9.30618C188.963 9.21669 189.059 9.14982 189.167 9.11384C189.275 9.07786 189.391 9.07434 189.501 9.10372C189.541 9.22531 189.582 9.3469 189.623 9.50864C189.538 9.58215 189.478 9.67917 189.449 9.78728C189.42 9.89538 189.424 10.0097 189.461 10.1155C190.758 10.1562 192.055 10.1155 193.393 10.1155C193.537 9.96215 193.719 9.85039 193.92 9.79198C194.007 9.83625 194.089 9.89053 194.163 9.95372H196.069C196.142 10.2585 196.156 10.5746 196.109 10.8846H194.163C194.091 10.9617 194.009 11.0297 193.92 11.0871C193.718 10.9655 193.555 10.8846 193.352 10.7636H189.825C189.135 10.9385 188.414 10.9522 187.717 10.8037V11.5723H181.919C181.692 11.7734 181.409 11.9004 181.108 11.9365C181.23 12.5433 180.54 12.7056 180.297 13.1507C180.14 13.3794 179.912 13.5499 179.649 13.636C179.446 14.8909 179.892 16.0638 180.216 17.2373C179.851 17.3188 179.446 17.4398 179.081 17.5207C178.872 18.3387 178.683 19.1615 178.513 19.9892C178.421 20.3517 178.245 20.6873 177.998 20.9684C177.751 21.2495 177.442 21.4683 177.094 21.6067C176.87 21.918 176.585 22.1818 176.258 22.3829C175.931 22.5839 175.568 22.7182 175.188 22.778C174.905 22.8588 174.702 22.6564 174.5 22.4946C173.486 22.5755 172.553 22.0903 171.661 21.6853C170.689 21.2391 169.796 20.6736 168.864 20.1476C168.874 20.6879 168.734 21.2203 168.459 21.6853C168.905 21.8878 169.513 22.0495 169.756 22.5353C169.948 22.9125 170.059 23.3261 170.08 23.749C170.04 25.2058 169.878 26.6627 169.796 28.1195C169.784 29.1995 169.347 30.2314 168.58 30.9919C168.111 30.9237 167.658 30.7726 167.242 30.5457C167.079 30.9099 166.715 31.2741 166.917 31.7169C167.009 32.2532 167.145 32.7811 167.322 33.2954C168.714 34.7336 169.864 36.3868 170.728 38.1913C171.58 39.9314 172.228 41.7525 172.918 43.5735C173.039 43.5735 173.283 43.5328 173.404 43.5328C173.566 44.0587 173.404 44.6656 173.729 45.1502C173.939 45.6192 174.01 46.1392 173.931 46.6472C173.85 47.8614 173.769 49.0751 173.647 50.2893C173.566 51.1388 173.363 51.9888 173.242 52.8382C173.376 53.4793 173.471 54.1281 173.526 54.7808C173.485 55.3877 173.485 56.0352 172.999 56.4803C173.039 57.8562 172.675 59.2322 173.161 60.5674C173.811 61.4586 174.529 62.2977 175.309 63.0773C176.161 63.4822 177.175 63.5631 177.905 64.2915C178.101 64.7546 178.115 65.2746 177.945 65.7478C176.21 65.991 174.45 65.991 172.715 65.7478C172.049 65.5348 171.373 65.3592 170.688 65.2218C169.755 65.2625 168.661 65.6267 167.809 64.9792C167.728 63.8866 168.133 62.8347 168.336 61.7822C168.417 61.418 168.783 61.1754 168.741 60.8112C168.661 59.5568 168.58 58.2617 168.498 57.0074C168.336 56.9265 168.052 56.8456 168.093 56.603C168.054 55.9956 167.931 55.3965 167.728 54.8227C167.457 53.2721 167.308 51.7026 167.282 50.1287C167.283 49.9202 167.335 49.7152 167.434 49.5316C167.533 49.3481 167.675 49.1917 167.849 49.0762C167.93 48.3885 168.011 47.6601 168.052 46.9724C167.887 46.635 167.697 46.3102 167.484 46.0008C166.755 46.0817 165.699 46.244 165.253 45.4748C164.199 43.8964 163.104 42.2784 162.05 40.7006C161.574 40.7281 161.099 40.6303 160.672 40.4167C160.249 39.8907 159.907 39.3041 159.658 38.6765C159.582 39.1741 159.417 39.654 159.172 40.0932C158.882 40.4624 158.571 40.8137 158.239 41.1451C157.955 41.7926 157.712 42.4402 157.469 43.0877C157.109 43.8891 156.85 44.7322 156.699 45.5976C156.667 46.0274 156.571 46.4502 156.415 46.8519C156.18 47.1339 155.871 47.3441 155.522 47.4587C155.331 47.989 155.072 48.4924 154.752 48.9563C154.509 49.2391 154.103 49.3205 153.941 49.6847C153.763 50.1536 153.56 50.6127 153.333 51.0601C153.252 51.5453 153.576 52.0719 153.414 52.5577C153.071 53.7601 152.581 54.9154 151.954 55.9973C151.717 56.8275 151.419 57.639 151.062 58.4251C150.96 58.5658 150.826 58.6799 150.67 58.7576C150.515 58.8352 150.343 58.8743 150.17 58.8713C149.772 59.7377 149.433 60.6298 149.156 61.5418C149.048 62.4413 149.021 63.3487 149.075 64.253C149.13 64.642 149.269 65.0145 149.48 65.3456C149.588 65.827 149.574 66.3279 149.44 66.8025C147.858 67.0049 146.236 67.1667 144.696 66.6809C144.534 66.5599 144.574 66.3574 144.534 66.1956C144.364 65.4753 144.378 64.724 144.574 64.0104C145.101 62.1085 145.548 60.2066 146.075 58.3047C145.872 58.1022 145.588 57.9405 145.588 57.617C145.548 57.0748 145.589 56.5296 145.709 55.9995C145.953 55.1071 146.602 54.4211 146.926 53.5716C147.006 53.2128 147.047 52.8462 147.047 52.4785C147.047 51.629 147.534 50.9413 147.899 50.2129C148.215 49.5817 148.595 48.9851 149.034 48.4326C149.359 48.1492 149.359 47.7042 149.602 47.3394C149.845 46.8932 150.25 46.5307 150.25 46.0042C150.331 45.3572 150.088 44.7096 150.17 44.0621C150.331 42.1602 150.697 40.299 151.021 38.3971C150.814 38.2026 150.649 37.9686 150.534 37.7088C150.575 37.5069 150.615 37.3446 150.656 37.1427L150.291 36.5353C150.453 36.2927 150.615 36.0094 150.778 35.7667C150.615 35.6451 150.413 35.4834 150.25 35.3618C150.453 34.755 150.372 33.8648 151.102 33.5815C151.183 33.6222 151.385 33.6624 151.467 33.7031C151.345 32.6506 151.345 31.558 151.224 30.5061C150.955 29.3804 150.886 28.216 151.021 27.0665C151.244 26.7863 151.528 26.5604 151.851 26.4059C152.174 26.2513 152.528 26.172 152.886 26.1741C151.993 25.9716 151.101 25.8907 150.25 25.6074C150.237 24.8739 150.305 24.1413 150.453 23.4227C150.818 22.006 150.656 20.5498 150.858 19.0929C150.987 18.9102 151.169 18.7726 151.381 18.6999C151.592 18.6272 151.821 18.623 152.034 18.688C152.573 18.7267 153.113 18.6438 153.615 18.4454C153.636 18.2302 153.636 18.0136 153.615 17.7984C153.332 16.3961 153.332 14.9512 153.615 13.549C153.882 11.7427 154.72 10.0694 156.008 8.77465C156.94 7.93915 158.163 7.50312 159.413 7.56044C159.819 7.56044 160.062 7.9648 160.386 8.20742C160.546 8.05587 160.695 7.89376 160.833 7.72218C160.554 7.04116 160.392 6.3184 160.352 5.58379C160.358 3.94288 161.013 2.37109 162.174 1.21107ZM175.391 12.7436C175.481 13.0088 175.466 13.2979 175.351 13.5529C175.129 13.6017 174.912 13.6695 174.702 13.7553C175.27 13.7553 175.837 13.796 176.405 13.7553C176.851 13.6337 176.689 13.0676 176.689 12.7436C176.405 12.4201 175.796 12.6225 175.391 12.7436ZM173.973 14.443C174.378 14.8892 174.58 15.5764 174.945 16.0214C175.413 15.3131 175.928 14.6371 176.486 13.9979C175.756 13.9578 175.027 14.0387 174.297 13.9578C174.175 14.1218 174.094 14.2835 173.973 14.4452V14.443ZM288.873 35.6491C289.082 35.5642 289.307 35.5232 289.533 35.5286C289.759 35.534 289.981 35.5858 290.187 35.6806C290.392 35.7754 290.575 35.9113 290.726 36.0799C290.877 36.2485 290.991 36.4462 291.062 36.6608C291.184 37.0581 291.148 37.487 290.962 37.8584C290.775 38.2299 290.453 38.5155 290.062 38.656C289.671 38.7965 289.241 38.7811 288.861 38.6131C288.481 38.445 288.181 38.1372 288.021 37.7534C287.867 37.3603 287.87 36.9232 288.028 36.5318C288.186 36.1405 288.489 35.8246 288.873 35.6491ZM288.629 36.1343C288.478 36.2748 288.36 36.4478 288.284 36.6403C288.209 36.8328 288.177 37.0398 288.193 37.246C288.209 37.4522 288.271 37.6522 288.374 37.8311C288.478 38.01 288.621 38.1632 288.792 38.2794C289.024 38.4151 289.287 38.49 289.557 38.4971C289.826 38.5042 290.093 38.4433 290.332 38.3201C290.053 37.9959 289.808 37.6431 289.603 37.2676C289.479 37.2742 289.356 37.2606 289.237 37.2275C289.197 37.551 289.359 37.9559 289.035 38.1578C288.967 37.5128 288.94 36.8641 288.954 36.2157C289.359 36.2157 289.887 36.054 290.211 36.3775C290.259 36.4577 290.288 36.5481 290.295 36.6414C290.302 36.7347 290.287 36.8284 290.252 36.915C290.216 37.0017 290.161 37.0789 290.091 37.1405C290.02 37.202 289.936 37.2464 289.846 37.2699C290.008 37.4723 290.13 37.7161 290.292 37.9174L290.373 37.7149C290.363 37.8927 290.336 38.069 290.292 38.2414C290.451 38.1322 290.585 37.9903 290.684 37.8254C290.784 37.6604 290.848 37.4761 290.871 37.2847C290.894 37.0933 290.876 36.8992 290.818 36.7153C290.76 36.5314 290.664 36.3618 290.536 36.2179C290.288 35.9638 289.953 35.8138 289.599 35.7988C289.245 35.7837 288.898 35.9048 288.63 36.1371L288.629 36.1343ZM289.197 36.4182V37.0652C289.481 37.025 290.048 37.1466 290.048 36.7015C289.967 36.3373 289.44 36.4606 289.197 36.4182ZM0 39.5337C0.056902 38.5353 0.482362 37.5934 1.19397 36.8907C1.90557 36.1879 2.85266 35.7743 3.85179 35.7299H14.271C15.2625 35.7683 16.2057 36.1681 16.9227 36.8539C17.6397 37.5397 18.0811 38.4641 18.1635 39.4529H4.46196V48.5999H18.1658C18.1261 49.2509 17.928 49.8824 17.5888 50.4395C17.2496 50.9965 16.7794 51.4623 16.2192 51.7963C15.5399 52.1821 14.7693 52.3778 13.9883 52.363H3.81107C2.82047 52.3162 1.88346 51.8995 1.18532 51.1952C0.487175 50.4908 0.0787221 49.5502 0.0407154 48.5592C0 45.563 0 42.5684 0 39.5337ZM23.2719 35.8917C23.7358 35.776 24.2128 35.7216 24.6908 35.7299H35.2322C36.2121 35.7881 37.1367 36.2031 37.8313 36.8965C38.526 37.59 38.9427 38.5139 39.0026 39.4936V48.5173C38.952 49.5287 38.5243 50.4843 37.8038 51.1959C37.0834 51.9075 36.1225 52.3233 35.1106 52.3613H24.1638C23.1732 52.3146 22.2361 51.8978 21.538 51.1935C20.8399 50.4891 20.4314 49.5485 20.3934 48.5575V39.6553C20.3836 38.7966 20.6617 37.9593 21.1835 37.2772C21.7053 36.5951 22.4406 36.1075 23.2719 35.8922V35.8917ZM24.4069 39.372V48.8425H34.9082V39.372H24.4069ZM42.0434 47.9501V35.7299C42.6616 35.7356 43.2705 35.8805 43.825 36.1538C44.3795 36.427 44.8654 36.8216 45.2465 37.3083C45.7652 37.9997 46.0622 38.832 46.0982 39.6955V48.8425C49.5847 48.8018 53.07 48.8425 56.5989 48.8425V35.7706H60.6531V48.5988C60.607 49.5978 60.1916 50.5441 59.4874 51.2543C58.7833 51.9645 57.8406 52.388 56.8421 52.4428C53.2335 52.4835 49.6248 52.4428 46.0168 52.4428C45.2184 52.4323 44.4404 52.1893 43.778 51.7435C43.1156 51.2977 42.5975 50.6685 42.2871 49.9329C42.1039 49.2885 42.0217 48.6197 42.0434 47.9501ZM64.0994 35.7299C66.336 35.5318 68.5616 36.2142 70.3027 37.6318C73.546 40.7072 76.8283 43.7425 80.0733 46.7789V39.8171C80.0619 39.0862 80.248 38.3658 80.612 37.7319C80.976 37.0981 81.5044 36.5742 82.1414 36.2157C82.7511 35.8818 83.433 35.7013 84.1281 35.6898C84.1682 41.2338 84.1281 46.8173 84.1281 52.3613H80.1949L68.1537 40.9499V52.3613H64.0994V35.7299ZM85.3847 39.372C85.3847 37.5108 86.9252 35.6909 88.8711 35.7706H104.321C104.298 36.714 103.938 37.6181 103.307 38.3195C102.955 38.6662 102.536 38.9381 102.076 39.119C101.616 39.2999 101.124 39.3859 100.63 39.372H96.819V52.4021H92.7241V39.372H85.3847ZM105.737 35.7706H121.955C121.964 36.2554 121.874 36.7368 121.691 37.1858C121.508 37.6348 121.236 38.0419 120.891 38.3825C120.546 38.723 120.135 38.9899 119.684 39.1669C119.233 39.3439 118.75 39.4274 118.265 39.4122H109.832V42.2857H120.09C120.089 43.0025 119.883 43.7041 119.495 44.3067C119.106 44.9094 118.553 45.3877 117.901 45.6846C117.397 45.8797 116.86 45.9759 116.319 45.9679H109.873V48.8425H122.077C122.082 49.7524 121.742 50.6305 121.125 51.2991C120.507 51.9677 119.659 52.3769 118.752 52.4439H105.778C105.778 46.8597 105.737 41.3157 105.737 35.7723V35.7706ZM124.469 35.7706H136.672C138.091 35.8108 139.672 35.9731 140.767 36.9843C141.821 38.0368 141.943 39.6553 141.943 41.0715C141.902 42.2857 141.943 43.54 141.456 44.6327C140.768 45.7306 139.676 46.5149 138.416 46.8173C140.2 48.8408 141.943 50.9045 143.727 52.928H139.388C138.959 52.9667 138.527 52.8971 138.132 52.7255C137.722 52.4382 137.366 52.0824 137.078 51.6736C134.888 49.0026 132.74 46.2914 130.552 43.6209H136.066C136.604 43.6609 137.137 43.5021 137.566 43.1747C137.804 42.613 137.901 42.0017 137.85 41.3938C137.809 40.8679 137.89 40.2616 137.526 39.816C137.093 39.5361 136.579 39.408 136.066 39.4518H128.564V52.4829C127.185 52.5231 125.847 52.4829 124.469 52.4829C124.428 46.8581 124.469 41.3141 124.469 35.7706Z" fill="white"/>
<path d="M180.662 38.1578C180.971 37.4556 181.475 36.8572 182.115 36.4339C182.755 36.0106 183.503 35.7804 184.27 35.7706H194.204C195.03 35.7076 195.859 35.8756 196.596 36.2559C197.15 36.5789 197.625 37.0234 197.983 37.5561C198.341 38.0888 198.573 38.6957 198.663 39.3313C193.92 39.372 189.135 39.3313 184.392 39.3313V42.2053H194.082C194.832 42.1518 195.585 42.22 196.313 42.4072C197.115 42.684 197.808 43.2104 198.29 43.9095C198.772 44.6085 199.017 45.4434 198.99 46.2919C198.949 47.5062 199.152 48.8018 198.665 49.9731C198.355 50.6822 197.844 51.2856 197.196 51.7096C196.548 52.1336 195.791 52.3598 195.017 52.3608H184.148C183.186 52.3188 182.272 51.9317 181.572 51.2703C180.872 50.6089 180.434 49.7175 180.337 48.7594H194.895V45.8034H184.27C183.743 45.8008 183.221 45.6938 182.736 45.4886C182.25 45.2834 181.81 44.9841 181.441 44.6079C181.071 44.2317 180.78 43.7861 180.584 43.2967C180.388 42.8074 180.29 42.2841 180.297 41.7569C180.378 40.5829 180.135 39.2883 180.662 38.155V38.1578ZM201.988 36.0144C202.677 35.7747 203.41 35.6914 204.135 35.7706H217.717C217.727 36.4954 217.515 37.206 217.109 37.8065C216.703 38.407 216.123 38.8687 215.446 39.1294C214.549 39.3719 213.616 39.454 212.689 39.372H210.663V52.402H206.608V39.372C204.338 39.4127 202.026 39.372 199.756 39.372C199.776 38.6594 199.996 37.9668 200.391 37.373C200.785 36.7792 201.338 36.308 201.987 36.0133L201.988 36.0144ZM219.341 35.7717H231.464C232.842 35.8119 234.383 35.9335 235.519 36.8644C236.654 37.8761 236.816 39.4947 236.816 40.9108C236.775 42.125 236.816 43.4207 236.37 44.5919C236.036 45.1465 235.596 45.6289 235.073 46.011C234.551 46.3931 233.958 46.6673 233.329 46.8173C234.505 48.1124 235.681 49.4477 236.857 50.7427C237.374 51.2817 237.862 51.8491 238.316 52.4422H233.775C233.467 52.4508 233.162 52.3898 232.881 52.2636C232.6 52.1375 232.351 51.9495 232.153 51.7138C229.922 49.0031 227.691 46.3315 225.463 43.6209H231.059C231.626 43.5802 232.397 43.54 232.559 42.8925C232.755 42.0007 232.768 41.0785 232.599 40.1813C232.478 39.5343 231.707 39.4529 231.18 39.4122H223.436V52.4422H219.341V35.7706V35.7717ZM241.355 35.7717H245.408C245.448 41.3157 245.408 46.8993 245.408 52.4433H241.353L241.355 35.7717ZM249.991 35.7717H254.046V42.1245C254.289 42.0843 254.573 42.1652 254.775 41.9627C257.411 39.8991 260.006 37.8354 262.639 35.7717H268.559C265.477 38.4824 262.356 41.154 259.234 43.8646C262.883 46.7376 266.572 49.5704 270.18 52.4433H264.262C263.748 52.4498 263.247 52.2784 262.844 51.9581C260.087 49.8944 257.33 47.79 254.613 45.7258H254.005V52.4422C252.666 52.402 251.289 52.4422 249.951 52.4422C249.991 46.8581 249.991 41.3129 249.991 35.7706V35.7717ZM270.587 35.7717H286.805C286.776 36.7812 286.354 37.7395 285.629 38.4422C284.89 39.0859 283.931 39.4194 282.952 39.3731H274.642V42.2461H284.896C284.896 42.979 284.676 43.695 284.264 44.3011C283.852 44.9072 283.267 45.3754 282.586 45.645C281.734 46.0092 280.801 45.8881 279.908 45.8881H274.638C274.597 46.8452 274.597 47.8027 274.638 48.7605H286.801C286.812 49.5178 286.583 50.2591 286.146 50.8774C285.708 51.4957 285.086 51.9591 284.368 52.2007C283.597 52.375 282.804 52.4296 282.017 52.3624H270.506C270.628 46.858 270.587 41.3129 270.587 35.7706V35.7717Z" fill="white"/>
<path d="M183.419 58.7146C183.824 58.2288 184.554 58.2288 185.162 58.188C185.941 58.1262 186.725 58.2086 187.473 58.4312C188.041 58.7146 188.041 59.4424 188.081 60.0091H186.946C186.865 59.6856 186.865 59.2405 186.46 59.1998C185.841 59.0917 185.208 59.1055 184.595 59.2405C184.108 59.4023 184.148 60.0091 184.108 60.4542C184.068 61.1984 184.108 61.9448 184.23 62.6801C184.352 63.0845 184.838 63.1263 185.203 63.1654C185.708 63.2343 186.223 63.1788 186.703 63.0036C187.027 62.7203 186.946 62.1943 186.987 61.7894H185.487V60.94H188.081C188.041 61.8708 188.284 62.9228 187.676 63.6913C186.987 64.1771 186.094 64.0962 185.324 64.1375C184.595 64.0974 183.662 64.0974 183.257 63.4091C182.851 62.5998 182.932 61.6288 182.973 60.7386C183.013 60.0509 182.932 59.2818 183.419 58.7157V58.7146ZM190.636 58.2288H191.771V63.0845C192.703 63.1252 193.636 63.0845 194.528 63.0845V64.0962H190.637V58.2288H190.636ZM197.771 58.3096C198.816 58.0729 199.903 58.1007 200.934 58.3905C201.704 58.6738 201.745 59.6047 201.826 60.3331C201.826 61.385 201.948 62.5178 201.502 63.4894C201.055 64.0962 200.204 64.0962 199.515 64.1364C198.705 64.1364 197.731 64.2178 197.083 63.6512C196.723 63.0548 196.554 62.3633 196.596 61.6684C196.527 60.7816 196.624 59.8897 196.88 59.0381C196.942 58.8431 197.06 58.6704 197.218 58.5411C197.376 58.4117 197.569 58.3313 197.773 58.3096H197.771ZM198.379 59.202C198.177 59.2427 197.893 59.3236 197.852 59.5662C197.731 60.4103 197.69 61.2639 197.731 62.1157C197.771 62.4799 197.771 63.0466 198.258 63.0867C198.947 63.1676 199.798 63.3293 200.447 62.925C200.772 62.1157 200.65 61.1848 200.65 60.2947C200.609 59.9304 200.691 59.3638 200.244 59.2427C199.631 59.1078 198.998 59.0939 198.379 59.202ZM204.339 58.231H207.623C208.11 58.2712 208.718 58.3927 208.88 58.9187C209.123 59.6471 209.083 60.7805 208.191 61.0638C209.286 61.3064 209.326 62.7225 208.921 63.5318C208.746 63.7426 208.52 63.9052 208.264 64.0044C208.009 64.1035 207.733 64.1359 207.461 64.0985H204.338V58.231H204.339ZM205.473 59.1608V60.6577C206.082 60.6849 206.691 60.6713 207.298 60.617C208.068 60.617 208.028 59.2009 207.298 59.1608C206.691 59.1189 206.083 59.1608 205.473 59.1608ZM205.473 63.1665C206.149 63.1935 206.826 63.1801 207.501 63.1263C208.149 63.0455 208.068 62.1547 207.866 61.7097C207.136 61.3454 206.284 61.6288 205.473 61.5078V63.1665ZM213.136 58.2299C213.704 58.1892 214.271 58.2299 214.839 58.2299C215.488 60.172 216.178 62.1547 216.826 64.0974H215.65C215.528 63.7332 215.407 63.3282 215.285 62.964H212.771C212.65 63.3282 212.528 63.7332 212.406 64.0974H211.19C211.839 62.1547 212.529 60.2127 213.136 58.2299ZM213.015 62.1547H215.001C214.677 61.1837 214.353 60.172 214.028 59.1987C213.623 60.1296 213.379 61.1413 213.015 62.1547ZM219.094 58.2299H220.229V63.0856H222.987V64.0974H219.095V58.2299H219.094ZM230.324 58.27C231.345 58.0465 232.406 58.0884 233.406 58.3916C234.095 58.6342 234.217 59.4842 234.257 60.1318C234.38 61.1897 234.297 62.2614 234.014 63.2881C233.811 63.8949 233.041 64.0165 232.473 64.0974C231.574 64.22 230.659 64.1371 229.796 63.8547C229.188 63.5714 229.067 62.8023 229.026 62.2373C228.912 61.1668 228.983 60.0849 229.233 59.0381C229.335 58.8275 229.49 58.6464 229.681 58.5118C229.872 58.3771 230.095 58.2934 230.328 58.2684L230.324 58.27ZM230.77 59.2009C230.618 59.224 230.479 59.3031 230.382 59.4228C230.284 59.5426 230.235 59.6943 230.243 59.8485C230.135 60.804 230.149 61.7693 230.284 62.7214C230.406 63.2072 231.054 63.1676 231.46 63.2072C231.946 63.1665 232.595 63.2881 232.96 62.8832C233.156 62.0486 233.211 61.187 233.122 60.3343C233.081 59.97 233.122 59.3627 232.676 59.2818C232.054 59.1146 231.404 59.0869 230.77 59.2009ZM236.771 58.2299H240.667V59.1608H237.869V60.7386H240.505V61.7097H237.869V64.0974H236.734C236.775 62.1547 236.815 60.172 236.775 58.2299H236.771ZM243.136 58.2299H247.069V59.1608H244.271V60.7386H246.907V61.7097H244.271V64.1375H243.136V58.2288V58.2299ZM249.38 58.2299H253.395V59.2009H250.478V60.6985H253.235V61.5479H250.478V63.1654C251.451 63.2061 252.424 63.1654 253.438 63.1654V64.0962H249.383V58.2288L249.38 58.2299ZM256.029 58.2299H257.934C258.786 59.8077 259.556 61.4263 260.367 63.0455V58.2299H261.502V64.0974H259.597C258.745 62.4799 257.853 60.8624 257.124 59.1608C257.164 60.8195 257.124 62.4381 257.164 64.0974H256.029V58.2299ZM264.26 58.8763C264.544 58.3096 265.274 58.2288 265.801 58.188C266.58 58.1058 267.367 58.1887 268.111 58.4312C268.639 58.7146 268.639 59.4023 268.679 59.9282C268.302 59.969 267.921 59.969 267.544 59.9282C267.463 59.6449 267.504 59.1596 267.098 59.1189C266.573 59.0307 266.036 59.0445 265.516 59.1596C265.111 59.3214 265.152 59.8473 265.192 60.1708C265.232 60.617 265.759 60.535 266.043 60.617C266.814 60.6985 267.705 60.617 268.395 61.0632C268.881 61.6701 268.76 62.5195 268.638 63.2479C268.553 63.5095 268.384 63.7352 268.156 63.8893C267.928 64.0433 267.656 64.1167 267.381 64.0979C266.474 64.2272 265.55 64.1722 264.665 63.9362C264.016 63.6528 264.016 62.8436 263.976 62.2367H265.07C265.111 62.5602 265.03 63.046 265.435 63.167C266.077 63.3155 266.746 63.3017 267.381 63.1269C267.536 62.9525 267.634 62.7355 267.663 62.5044C267.692 62.2733 267.65 62.0388 267.543 61.8318C267.016 61.5083 266.327 61.6701 265.719 61.5485C265.152 61.4676 264.38 61.4676 264.138 60.8201C263.996 60.1741 264.038 59.5012 264.259 58.878L264.26 58.8763ZM271.355 58.2288H272.49V64.0962H271.355V58.2288ZM274.72 58.2288H275.896C276.423 59.8881 277.031 61.5066 277.477 63.1654C277.923 61.5066 278.531 59.8473 279.058 58.2288H280.275C279.626 60.1708 279.018 62.1536 278.369 64.0962H276.625C275.977 62.1536 275.369 60.1708 274.72 58.2288ZM282.383 58.2288H286.437V59.1608H283.518V60.6577H286.275V61.5078H283.518V63.1252C284.491 63.1654 285.464 63.1252 286.478 63.1252V64.0555H282.423C282.386 62.1536 282.386 60.1708 282.386 58.2288H282.383Z" fill="#FCEE21"/>
</svg>
