<?xml version="1.0" encoding="UTF-8"?>
<!DOCTYPE svg PUBLIC "-//W3C//DTD SVG 1.1//EN" "http://www.w3.org/Graphics/SVG/1.1/DTD/svg11.dtd">
<!-- Creator: CorelDRAW X8 -->
<svg xmlns="http://www.w3.org/2000/svg" xml:space="preserve" width="354px" height="354px" version="1.1" style="shape-rendering:geometricPrecision; text-rendering:geometricPrecision; image-rendering:optimizeQuality; fill-rule:evenodd; clip-rule:evenodd"
viewBox="0 0 354 354"
 xmlns:xlink="http://www.w3.org/1999/xlink"
 enable-background="new 0 0 191.414 191.414">
 <defs>
  <style type="text/css">
   <![CDATA[
    .fil0 {fill:#7984A1}
   ]]>
  </style>
 </defs>
 <g id="Слой_x0020_1">
  <metadata id="CorelCorpID_0Corel-Layer"/>
  <g id="_3035430483824">
   <path class="fil0" d="M200 179l149 -150c7,-6 7,-16 0,-22 -6,-7 -16,-7 -22,0l-150 149 -150 -149c-6,-7 -16,-7 -22,0 -7,6 -7,16 0,22l149 150 -149 150c-7,6 -7,16 0,22 3,4 9,4 13,4 3,0 9,0 9,-4l150 -149 150 149c3,4 9,4 13,4 3,0 9,0 9,-4 7,-6 7,-16 0,-22l-149 -150 0 0z"/>
  </g>
 </g>
</svg>
