<svg width="34" height="28" viewBox="0 0 34 28" fill="none" xmlns="http://www.w3.org/2000/svg">
<g clip-path="url(#clip0)">
<path d="M25.5037 5.25H8.5C7.09851 5.24979 5.71873 5.60632 4.48348 6.28783C3.24823 6.96935 2.19584 7.95471 1.42001 9.15618C0.644179 10.3577 0.16898 11.738 0.0367178 13.1742C-0.0955443 14.6105 0.119235 16.0581 0.661934 17.3883C1.20463 18.7184 2.05841 19.8898 3.14726 20.7981C4.23611 21.7064 5.52624 22.3235 6.90279 22.5944C8.27934 22.8653 9.69961 22.7816 11.0371 22.3507C12.3747 21.9199 13.588 21.1553 14.569 20.125H19.431C20.4119 21.1552 21.6251 21.9197 22.9624 22.3506C24.2998 22.7814 25.7199 22.8653 27.0963 22.5946C28.4727 22.3239 29.7628 21.707 30.8516 20.799C31.9405 19.891 32.7944 18.7199 33.3373 17.39C33.8803 16.0602 34.0954 14.6128 33.9635 13.1766C33.8316 11.7405 33.3569 10.3602 32.5815 9.15858C31.8062 7.95697 30.7542 6.97134 29.5194 6.28942C28.2845 5.60749 26.905 5.25043 25.5037 5.25V5.25ZM13.175 14.6562C13.175 14.8303 13.1078 14.9972 12.9883 15.1203C12.8687 15.2434 12.7066 15.3125 12.5375 15.3125H9.775V18.1562C9.775 18.3303 9.70783 18.4972 9.58828 18.6203C9.46872 18.7434 9.30657 18.8125 9.1375 18.8125H7.8625C7.69342 18.8125 7.53127 18.7434 7.41172 18.6203C7.29216 18.4972 7.225 18.3303 7.225 18.1562V15.3125H4.4625C4.29342 15.3125 4.13127 15.2434 4.01172 15.1203C3.89216 14.9972 3.825 14.8303 3.825 14.6562V13.3438C3.825 13.1697 3.89216 13.0028 4.01172 12.8797C4.13127 12.7566 4.29342 12.6875 4.4625 12.6875H7.225V9.84375C7.225 9.6697 7.29216 9.50278 7.41172 9.37971C7.53127 9.25664 7.69342 9.1875 7.8625 9.1875H9.1375C9.30657 9.1875 9.46872 9.25664 9.58828 9.37971C9.70783 9.50278 9.775 9.6697 9.775 9.84375V12.6875H12.5375C12.7066 12.6875 12.8687 12.7566 12.9883 12.8797C13.1078 13.0028 13.175 13.1697 13.175 13.3438V14.6562ZM24.65 18.8125C24.2297 18.8125 23.8189 18.6842 23.4694 18.4438C23.12 18.2035 22.8476 17.8618 22.6868 17.4621C22.5259 17.0624 22.4838 16.6226 22.5658 16.1982C22.6478 15.7739 22.8502 15.3841 23.1474 15.0782C23.4446 14.7723 23.8232 14.5639 24.2354 14.4795C24.6476 14.3951 25.0749 14.4384 25.4632 14.604C25.8515 14.7696 26.1834 15.05 26.4169 15.4097C26.6504 15.7694 26.775 16.1924 26.775 16.625C26.775 17.2052 26.5511 17.7616 26.1526 18.1718C25.7541 18.582 25.2136 18.8125 24.65 18.8125V18.8125ZM28.05 13.5625C27.6297 13.5625 27.2189 13.4342 26.8694 13.1938C26.52 12.9535 26.2476 12.6118 26.0868 12.2121C25.9259 11.8124 25.8838 11.3726 25.9658 10.9482C26.0478 10.5239 26.2502 10.1341 26.5474 9.8282C26.8446 9.52228 27.2232 9.31394 27.6354 9.22953C28.0476 9.14513 28.4749 9.18845 28.8632 9.35401C29.2515 9.51958 29.5834 9.79996 29.8169 10.1597C30.0504 10.5194 30.175 10.9424 30.175 11.375C30.175 11.9552 29.9511 12.5116 29.5526 12.9218C29.1541 13.332 28.6136 13.5625 28.05 13.5625Z" fill="#0732C4"/>
</g>
<defs>
<clipPath id="clip0">
<rect width="34" height="28" fill="white"/>
</clipPath>
</defs>
</svg>
