<svg xmlns="http://www.w3.org/2000/svg" viewBox="0 0 70 18">
  <defs/>
  <path fill="#FFF" fill-rule="evenodd" d="M32.103 6.88c-.142-.029-.281-.058-.422-.08-.673-.104-1.283-.013-1.753.494a1.844 1.844 0 00-.471.918 4.597 4.597 0 00-.077.831c-.007 1.583-.004 3.165-.004 4.748v.129H26.73c-.053-3.113.078-6.223-.11-9.337h2.459l.035.673c.89-.808 1.936-1.007 3.11-.752v2.174c.038-.058.077-.116.118-.174.786-1.114 1.941-1.782 3.436-2.016 1.051-.165 2.087-.105 3.086.236 1.282.437 2.172 1.22 2.706 2.298.392.792.51 1.624.446 2.478-.057.772-.266 1.508-.715 2.184-.733 1.103-1.842 1.792-3.274 2.086-1.465.301-2.87.16-4.163-.532a4.288 4.288 0 01-1.981-2.167c-.253-.599-.36-1.22-.359-2.124.004-.59.168-1.342.58-2.067zM5.907 4.616L4.704 8.001h2.424L5.907 4.616zm6.002 9.302h-.177c-.833 0-1.666-.002-2.5.002-.085 0-.116-.027-.141-.099-.422-1.186-.846-2.372-1.27-3.558-.012-.037-.027-.072-.042-.11h-.117c-1.174 0-2.347 0-3.52-.003-.093 0-.129.026-.157.106-.411 1.194-.826 2.386-1.24 3.578l-.029.078H0c.01-.036.018-.067.028-.097 1.523-4.24 3.046-8.48 4.567-12.722.025-.07.058-.093.136-.093.813.003 1.626.003 2.439 0 .081 0 .117.021.144.096 1.407 3.93 2.816 7.86 4.225 11.79l.37 1.032zm33.543-6.863c.13.01.256.023.383.029.54.026 1.077.019 1.604-.106.51-.12.96-.33 1.282-.723.292-.359.388-.77.393-1.208.01-.944-.517-1.563-1.527-1.793-.447-.101-.903-.117-1.36-.103-.258.009-.515.023-.775.035v3.87zM42.733 1.3c.282-.042.564-.088.848-.124 1.044-.13 2.094-.19 3.148-.172.899.016 1.782.122 2.616.445 1.366.528 2.18 1.465 2.42 2.792.171.951.059 1.88-.43 2.749-.427.758-1.1 1.29-1.928 1.669-.685.313-1.415.484-2.174.56-.573.058-1.146.062-1.72.022-.017-.002-.035 0-.064 0v4.68h-2.716V1.3zm-3.556 7.813c-.006-.088-.01-.224-.028-.36a3.151 3.151 0 00-.519-1.417c-.705-1.03-2.012-1.075-2.857-.703-.504.223-.827.59-1.045 1.026a3.33 3.33 0 00-.281 2.215c.106.515.327.991.742 1.386.509.485 1.143.703 1.905.604.653-.085 1.13-.405 1.485-.864.432-.556.583-1.181.598-1.887zm25.745 1.119l.127-.346c.658-1.77 1.317-3.54 1.973-5.31.031-.085.072-.111.171-.11.894.003 1.788.001 2.682.001H70c-.008.03-.01.052-.019.071-1.087 2.581-2.171 5.163-3.265 7.741-.393.927-.829 1.837-1.369 2.703-.42.673-.903 1.306-1.552 1.816-.645.507-1.369.894-2.203 1.089-.206.048-.417.075-.637.114l-.709-2.138c.105-.031.206-.062.307-.09 1.188-.329 2.04-1.024 2.637-1.998.082-.135.15-.278.23-.415.037-.067.03-.127 0-.194-.458-1.035-.916-2.07-1.371-3.105-.804-1.827-1.606-3.656-2.409-5.484l-.046-.11h.12c.922 0 1.845.002 2.767-.002.088 0 .123.027.151.098.748 1.861 1.5 3.721 2.25 5.581.009.023.02.045.04.088zm-7.509-.727c-.266.018-.515.028-.762.052-.472.046-.936.126-1.367.316-.35.155-.64.37-.723.73a1.654 1.654 0 00-.031.517c.039.428.325.705.799.768.517.068.999-.031 1.42-.315.34-.23.588-.521.65-.907.03-.186.012-.378.014-.567.002-.192 0-.383 0-.594zm-.055-1.936a1.372 1.372 0 00-.173-.574c-.214-.371-.581-.533-1.02-.567-.969-.075-1.871.1-2.675.613-.12.077-.245.15-.385.234-.24-.636-.479-1.264-.726-1.915.3-.148.594-.313.907-.44 1.028-.418 2.113-.575 3.236-.502.685.045 1.336.203 1.916.546.676.4 1.098.968 1.342 1.652.189.531.251 1.079.25 1.634-.002.81.003 1.62-.001 2.43-.006 1.001.007 2 .211 2.988l.007.052h-2.525l-.074-.534-.089.05c-1.126.68-2.346.874-3.637.49-1.15-.343-1.825-1.098-2.028-2.163-.157-.824.024-1.601.578-2.288.43-.533 1.012-.894 1.678-1.151.718-.277 1.474-.418 2.249-.487.316-.027.633-.045.96-.068zm-39.4-.424l-.436-.25a3.347 3.347 0 00-1.55-.48c-.249-.011-.492.003-.723.096-.332.134-.485.408-.411.729.033.146.135.249.26.334.28.192.601.316.924.435.496.182.995.358 1.445.63.578.348 1.037.788 1.268 1.394.455 1.195.074 2.697-1.477 3.435-.759.36-1.573.474-2.418.45-1.034-.03-1.999-.272-2.877-.779-.049-.028-.065-.051-.047-.103.225-.634.447-1.27.67-1.904.003-.009.01-.016.02-.035.121.064.242.125.36.191.5.278 1.032.478 1.611.567.395.061.79.069 1.174-.05.485-.15.653-.487.543-.936-.039-.156-.152-.27-.287-.364-.292-.206-.63-.332-.972-.45-.55-.188-1.084-.407-1.56-.728-.507-.342-.93-.753-1.108-1.315-.33-1.044-.049-1.959.8-2.718.542-.483 1.218-.738 1.959-.838.926-.125 1.833-.04 2.699.293.274.106.524.263.783.4.022.011.042.058.034.08-.224.634-.451 1.267-.684 1.916zm7.767 4.226l.056.894c.025.403.048.806.075 1.209.003.052-.002.083-.06.105a5.18 5.18 0 01-2.057.337c-.742-.033-1.408-.26-1.934-.795-.373-.38-.574-.85-.667-1.358a6.78 6.78 0 01-.123-1.142c-.014-1.45-.006-2.9-.007-4.35v-.134h-1.393V3.961h1.389V2.444l2.585-.764v2.274h2.331v2.17h-2.324c-.004.035-.008.06-.008.086 0 1.45-.004 2.9.006 4.35.001.219.042.442.1.654.083.297.261.405.576.417.44.016.86-.072 1.274-.21.054-.017.11-.03.18-.05zM9.812 5L9 2.313c.336-.216.66-.442.999-.639C11.152 1.001 12.377.57 13.65.305a14.616 14.616 0 013.258-.302c1.907.035 3.758.403 5.532 1.212.18.082.362.157.559.243-.046.02-.075.034-.105.044-.578.199-1.156.397-1.736.592a.242.242 0 01-.142.002 11.476 11.476 0 00-4.288-.478 10.94 10.94 0 00-3.516.836c-1.269.54-2.393 1.328-3.314 2.467-.02.024-.041.047-.063.07-.004.004-.012.005-.024.009z" opacity=".699"/>
</svg>