<svg xmlns="http://www.w3.org/2000/svg" viewBox="0 0 44 29">
  <defs/>
  <g fill="none" fill-rule="evenodd" opacity=".802" transform="translate(0 -.208)">
    <path stroke="#979797" stroke-opacity=".01" d="M.5.708h43v28H.5z"/>
    <path fill="#FFF" d="M19.575 19.952a10.893 10.893 0 01-5.558 2.138c-2.651.283-5.316-.401-7.468-1.918-2.293-1.542-3.853-3.9-4.333-6.553-.623-2.913.119-5.942 2.028-8.281 2.798-3.552 7.631-5 12.03-3.605 1.196.373 2.314.948 3.3 1.698a.165.165 0 01.025.081c-.024.104-.108.15-.18.208a12.274 12.274 0 00-2.365 2.704c-.501.82-.881 1.702-1.129 2.622a9.652 9.652 0 00.073 5.536 10.274 10.274 0 002.857 4.552c.18.174.396.312.564.497.072.08.156.138.18.242a.095.095 0 01-.024.08zM4.797 24.91c.23-.237.565-.366.913-.352.348.015.67.171.873.425.197-.25.511-.405.852-.42a1.14 1.14 0 01.887.242c.24.199.364.486.337.778v1.367c0 .148-.034.221-.21.19a.49.49 0 00-.175 0c-.163.02-.222-.032-.222-.19.012-.42.012-.852 0-1.285a.539.539 0 00-.256-.512.679.679 0 00-.62-.054c-.27.084-.447.32-.431.579-.012.411-.012.821 0 1.23.011.18-.047.242-.257.232-.42-.021-.362.042-.362-.316V25.71c0-.4-.233-.642-.606-.642a.69.69 0 00-.5.158.554.554 0 00-.2.442c-.024.42-.024.841-.012 1.252 0 .168-.047.231-.245.22-.408-.02-.361.052-.361-.316v-2.019c0-.158.046-.21.222-.19.184.011.455-.094.373.295zm9.161 2.293a2.376 2.376 0 01-1.12-.231c-.114-.064-.128-.116-.057-.221.114-.19.199-.326.49-.158.299.152.653.186.98.095.164-.032.304-.095.316-.263.011-.18-.152-.22-.315-.253-.222-.042-.444-.063-.654-.102-.537-.103-.781-.36-.77-.758.003-.34.272-.63.642-.694a2.386 2.386 0 011.505.126c.105.042.14.073.082.189-.163.305-.152.305-.514.2a1.642 1.642 0 00-.782-.063c-.163.031-.303.094-.303.263-.011.179.152.21.303.231.245.042.49.063.735.116.514.115.747.378.7.778-.035.31-.282.567-.618.642-.195.075-.407.11-.62.103zm2.825-1.442v.463c.011.4.222.537.653.432.094-.021.257-.095.28-.074.074.113.129.234.164.36.035.085-.035.103-.105.137a1.61 1.61 0 01-1.109.051c-.317-.106-.517-.39-.49-.694a17.478 17.478 0 010-1.094c.011-.179-.047-.252-.257-.231-.304.021-.42-.158-.327-.42.035-.104.14-.074.21-.074.362-.01.362-.01.362-.337a.714.714 0 000-.157c-.035-.21.057-.263.291-.274.304-.01.327.103.315.326-.023.452-.011.452.49.452h.152c.362 0 .42.074.362.411-.023.103-.093.095-.163.095-.222 0-.443.01-.665 0-.14 0-.176.042-.176.158.016.156.02.314.013.47zm8.344 1.441c-.622.045-1.201-.292-1.412-.822-.216-.532-.059-1.128.4-1.515a1.847 1.847 0 011.82-.126c.105.063.257.116.105.253-.105.094-.07.368-.385.21a.971.971 0 00-.704-.128.892.892 0 00-.58.38.835.835 0 00.128 1.02c.298.25.739.3 1.097.127.082-.032.175-.158.268-.074.102.106.182.228.234.36.023.052-.058.085-.105.116a1.73 1.73 0 01-.866.2zm-2.87-2.302a.981.981 0 01.97-.326c.151.02.245.063.151.22a.647.647 0 00-.057.158c-.023.137-.093.179-.256.147-.502-.084-.77.116-.782.579-.012.42-.012.841 0 1.251 0 .158-.035.221-.222.21-.457-.02-.373.043-.373-.346 0-.642.011-1.286-.012-1.925-.011-.232.082-.274.304-.263.172.01.37-.019.277.295zm8.507-.043c.23-.249.594-.362.945-.294.152.02.222.063.163.231-.07.21-.114.347-.432.284-.4-.074-.665.179-.676.579-.012.42-.024.852 0 1.272.011.263-.176.19-.315.2-.164.01-.292.022-.292-.2.011-.715.011-1.42 0-2.135 0-.168.07-.2.222-.19.163.032.443-.094.385.253zM35 23.804l-.002-.002v2.976c0 .36-.116.434-.501.36-.171-.031-.033-.178-.114-.241-.736.428-1.436.389-1.926-.137a1.313 1.313 0 01.057-1.83c.511-.478 1.353-.497 1.89-.043 0-.389.012-.734 0-1.094 0-.157.059-.21.222-.189.05.01.102.01.152 0 .187-.031.222.042.222.2zm-1.436 2.892v.001a.917.917 0 00.635-.228.74.74 0 00.253-.572.747.747 0 00-.229-.573.921.921 0 00-.612-.258c-.48.013-.866.362-.879.795-.012.434.353.8.832.835zm-4.224-1.935c0 .737 0 1.473.015 2.21 0 .136-.047.188-.187.167h-.128c-.199.021-.35 0-.28-.284a1.441 1.441 0 01-1.044.342 1.397 1.397 0 01-.975-.478 1.345 1.345 0 01.114-1.8c.498-.464 1.314-.486 1.843-.052.082-.073-.034-.22.105-.242.163-.026.329-.026.49 0 .07 0 .047.086.047.137zm-1.426 1.935c.482-.021.86-.38.86-.815 0-.434-.378-.793-.86-.815-.478.027-.85.384-.85.815 0 .432.372.789.85.815zm-15.858-2.06c.07.011.035.094.048.148.011.716 0 1.44.011 2.156 0 .149-.035.232-.21.2a.524.524 0 00-.128 0c-.199.02-.336 0-.222-.315-.27.257-.653.395-1.046.377a1.394 1.394 0 01-.996-.472 1.332 1.332 0 01.105-1.8c.505-.463 1.324-.49 1.867-.063.046-.095-.044-.22.07-.242.165-.033.338-.03.501.01zm-1.376 2.061a.892.892 0 00.62-.246.719.719 0 00.22-.577c-.003-.335-.233-.634-.58-.755a.977.977 0 00-.993.21.756.756 0 00-.15.908c.162.302.512.484.883.46zm8.449-.61c-.222-.01-.208.063-.141.21.17.31.545.481.922.42.179-.015.35-.07.502-.157.28-.19.28.094.385.189.152.128-.012.18-.105.231a1.918 1.918 0 01-1.832-.01c-.484-.358-.681-.943-.502-1.483.155-.593.775-.99 1.447-.926.643.043 1.155.504 1.202 1.084.059.442.059.442-.432.442h-.618c-.28 0-.548.01-.828 0zm-.163-.558c-.036.105 0 .137.106.136h.595c.197 0 .384-.01.57 0 .129.011.164-.031.129-.147-.068-.284-.354-.484-.677-.473-.337-.011-.638.19-.723.484z" opacity=".698"/>
    <circle cx="26.5" cy="11.708" r="10.5" fill="#C8D3F1" opacity=".289"/>
    <path fill="#6981BE" d="M20 19.208c1.807 0 4-4.307 4-7.857s-2.193-7.143-4-7.143-4 3.593-4 7.143 2.193 7.857 4 7.857z" opacity=".722"/>
  </g>
</svg>