<svg xmlns="http://www.w3.org/2000/svg" viewBox="0 0 86 15">
  <defs/>
  <path fill="#FFF" d="M79.493 0h-5.697L71.68 11.599h-7.455l.479-2.631h4.492l.533-2.956-4.49.006.48-2.62h4.628L70.96 0h-9.396l-2.01 11h-3.448l2.022-11h-4.912L51.21 11h-3.363l2.026-11h-4.91l-2.12 11.599h-7.512l.475-2.631h4.51l.534-2.938-4.507-.006.478-2.625h4.68L42.113 0H12.826L11.16 9.19 7.84 0H2.745L0 15h4.868l1.66-9.445L9.75 15h17.446l2.121-11.602h2.73L29.923 15h45.902l1.332-7.324L79.31 15h4.87l-2.229-5.984.51-.111a4.359 4.359 0 002.612-1.549c.637-.874.962-1.94.92-3.024a3.598 3.598 0 00-1.572-3.193C83.325.382 81.666 0 79.493 0zM16 12l.43-2.566h4.181l.475-2.894h-4.141L17.344 4H24l-1.335 7.996L16 12zm61.974-5.01H77l.75-3.982h.718a3.394 3.394 0 011.825.392c.469.306.736.834.704 1.387a1.94 1.94 0 01-.817 1.695 3.88 3.88 0 01-2.206.509z" opacity=".698"/>
</svg>