<svg xmlns="http://www.w3.org/2000/svg" viewBox="0 0 46 16">
  <defs/>
  <path fill="#FFF" fill-rule="evenodd" d="M32.5 4c.606 0 1.153-.487 1.386-1.234.232-.748.104-1.608-.325-2.18-.43-.572-1.075-.743-1.635-.434-.56.31-.926 1.04-.926 1.849C31 3.105 31.671 4 32.5 4zM18.333 5.016a13.597 13.597 0 01-2.253 3.82V1L12 1.797V16h4.08v-4.39A15.156 15.156 0 0117.847 16h4.888c-.484-1.987-2.599-5.65-2.599-5.65A17.633 17.633 0 0023 5.015h-4.666zm9.706-.007C24.697 5.123 23 6.724 23 9.905V16h3.648v-4.97c0-1.906.234-2.722 2.352-2.802V5.06a4.745 4.745 0 00-.96-.056v.005zM6.082 6.523c-.505-.032-1.676-.105-1.676-1.123 0-1.229 1.686-1.229 2.318-1.229a14.38 14.38 0 013.579.615s.573.195 1.061.395l.046.012V1.828l-.063-.018a14.75 14.75 0 00-5.24-.804C1.596 1.006 0 3.544 0 5.718c0 1.254.556 4.203 5.721 4.544.438.026 1.6.09 1.6 1.143 0 .868-.951 1.38-2.551 1.38a12.943 12.943 0 01-4.488-.84v3.465a21.63 21.63 0 005.333.588c4.41 0 6.385-2.402 6.385-4.782 0-2.699-2.21-4.452-5.918-4.692zM31 16h4V5h-4v11zM42 1.7V16h4V1l-4 .7zm-5 0l4-.7v15h-4V1.7z" opacity=".698"/>
</svg>