<svg xmlns="http://www.w3.org/2000/svg" viewBox="0 0 56 18">
  <defs/>
  <path fill="#FFF" fill-rule="evenodd" d="M11.724 11.447c.861-2.117 1.674-4.13 2.499-6.141.655-1.606 1.31-3.207 1.94-4.828a.641.641 0 01.704-.473c1.152.023 2.305.012 3.457.012.789 0 .789 0 .498.698-1.662 3.87-3.328 7.735-4.998 11.597-.607 1.42-1.237 2.829-1.82 4.248a.604.604 0 01-.667.427c-1.213-.012-2.426-.048-3.64.011-.546.024-.715-.177-.837-.639-1.113-4.297-2.267-8.58-3.383-12.876a2.328 2.328 0 00-1.431-1.692A23.652 23.652 0 00.37.623C.19.572-.042.608.007.288c.048-.296.242-.26.437-.26 2.425 0 4.852-.012 7.278 0C8.807.022 9.72.82 9.832 1.873c.582 3.018 1.153 6.035 1.735 9.052.024.132.084.262.157.522zM36.156.01c1.182.005 2.356.21 3.476.61.314.097.43.206.337.595a38.454 38.454 0 00-.582 2.845c-.072.39-.198.39-.489.255a7.638 7.638 0 00-3.747-.62 2.592 2.592 0 00-1.408.51 1.095 1.095 0 00-.528.903c-.014.376.158.734.457.945a13.685 13.685 0 002.28 1.435c.384.23.767.462 1.14.717 1.194.777 1.984 2.083 2.142 3.544a4.944 4.944 0 01-1.328 3.956 6.978 6.978 0 01-4.432 2.175 13.189 13.189 0 01-6.026-.584c-.43-.146-.512-.352-.407-.79.21-.887.384-1.775.547-2.663.08-.425.151-.62.64-.375a7.654 7.654 0 004.513.825 2.78 2.78 0 001.363-.498 1.32 1.32 0 00.61-1.017 1.343 1.343 0 00-.436-1.111 7.25 7.25 0 00-1.764-1.148c-.524-.304-1.058-.596-1.558-.924-3.42-2.286-2.478-6.25-.128-8.013A8.444 8.444 0 0136.156.01zM22.197 16.997c-.622 0-1.232-.011-1.854 0-.323.012-.394-.073-.311-.414.8-3.65 1.593-7.306 2.38-10.969.369-1.717.766-3.422 1.1-5.14.075-.39.228-.462.587-.462 1.136.012 2.272.024 3.408-.011.49-.012.55.154.455.568-.659 2.961-1.292 5.922-1.926 8.895-.502 2.322-1.028 4.655-1.507 6.988-.096.45-.275.569-.718.545-.537-.024-1.075 0-1.614 0zm33.779-.472c.084.415-.049.474-.43.463-.546-.012-1.09 0-1.636 0-.545 0-1.09-.012-1.635.011-.327.012-.46-.118-.509-.426-.097-.58-.266-1.161-.35-1.741-.037-.32-.182-.38-.473-.38-1.659.012-3.306.012-4.965 0a.459.459 0 00-.523.355c-.206.616-.46 1.22-.666 1.836a.408.408 0 01-.46.344 227.707 227.707 0 00-3.997 0c-.555.012-.266-.297-.181-.486 1.271-2.985 2.557-5.958 3.826-8.943.86-2.025 1.732-4.039 2.592-6.052.288-.973 1.248-1.602 2.277-1.493C49.875 0 50.904.025 51.934 0c.363-.012.52.06.605.45 1.129 5.362 2.274 10.72 3.437 16.074zm-5.777-5.567c.34.01.4-.095.327-.415-.375-1.67-.715-3.352-1.078-5.022-.036-.191-.024-.402-.315-.557-.715 1.907-1.405 3.79-2.107 5.674-.084.235-.049.308.218.308.98 0 1.974 0 2.955.012z" opacity=".698"/>
</svg>