<?xml version="1.0" encoding="utf-8"?>
<!-- Generator: Adobe Illustrator 22.0.0, SVG Export Plug-In . SVG Version: 6.00 Build 0)  -->
<svg version="1.1" id="Layer_1" xmlns="http://www.w3.org/2000/svg" xmlns:xlink="http://www.w3.org/1999/xlink" x="0px" y="0px"
	 viewBox="0 0 283.5 85" style="enable-background:new 0 0 283.5 85;" xml:space="preserve"
>
<style type="text/css">
	.st0{fill:#FCEE21;}
</style>
<g>
	<polygon class="st0" points="165,63 145.4,18.4 0,18.4 0,63 	"/>
	<path d="M8.9,41.1c0,8.2,6.3,13.7,14.4,13.7c7.2,0,10.8-4.2,12.4-7.8l-6.9-3.2c-0.7,2-2.7,3.8-5.4,3.8c-3.6,0-6.2-2.9-6.2-6.6
		c0-3.6,2.6-6.6,6.2-6.6c2.8,0,4.8,1.8,5.4,3.8l6.9-3.2c-1.6-3.6-5.1-7.7-12.4-7.7C15.2,27.4,8.9,32.9,8.9,41.1z M126.2,45.5h2.8
		l3.7,8.8h9.1l-4.9-9.4c2.7-1.2,4.9-3.8,4.9-8c0-5-3.3-9.1-9.5-9.1h-14.2v26.5h8V45.5z M92.4,27.8v26.5h20.1v-6.4h-12.1V44h11.8
		v-6.2h-11.8v-3.6h12.1v-6.4H92.4z M64.1,27.8v26.5h16.3c5.3,0,7.8-3.5,7.8-7.2c0-3.4-2.2-6.1-5-6.5c2.6-0.6,4.6-2.8,4.6-6.1
		c0-3.1-2.4-6.8-7.9-6.8H64.1z M62.4,27.8h-9.1l-4.8,9l-4.9-9h-9.2l10,16.1v10.4h8.2V43.9L62.4,27.8z M77.8,37.9H72v-4h5.8
		c1,0,1.9,0.8,1.9,1.9C79.6,37.1,78.8,37.9,77.8,37.9z M131,34.3c1.4,0,2.6,0.9,2.6,2.4c0,1.5-1.3,2.4-2.6,2.4h-4.8v-4.9H131z
		 M78,48.2h-6v-4.3h6c1.3,0,2.1,1,2.1,2.2C80.1,47.3,79.3,48.2,78,48.2z"/>
	<polygon points="158.2,28.2 178.3,72.8 262.9,72.8 283,28.2 	"/>
	<path class="st0" d="M245.4,43.6h-8v-6.4h24v6.4h-8v20.1h-8V43.6z M185.5,37.2h15.8c5.5,0,7.9,3.7,7.9,6.8c0,3.3-2,5.5-4.5,6.1
		c2.9,0.4,5,3.1,5,6.5c0,3.7-2.5,7.2-7.8,7.2h-16.3V37.2z M199.2,47.3c1,0,1.9-0.9,1.9-2.1c0-1.1-0.9-1.9-1.9-1.9h-5.8v4H199.2z
		 M199.4,57.6c1.3,0,2.1-0.9,2.1-2.1c0-1.2-0.8-2.2-2.1-2.2h-6v4.3H199.4z M213.8,37.2H234v6.4h-12.1v3.6h11.8v6.2h-11.8v3.9H234
		v6.4h-20.1V37.2z"/>
</g>
</svg>
