<svg xmlns="http://www.w3.org/2000/svg" width="30" height="30" fill="none" viewBox="0 0 30 30">
    <g fill="#FCEE21" clip-path="url(#a)">
        <path d="M2.88 10.48c.379.268 1.523 1.063 3.431 2.386 1.909 1.322 3.37 2.34 4.386 3.055.112.078.35.248.712.51.362.263.664.475.904.637.24.161.53.343.87.544.34.2.662.351.963.451.301.1.58.15.837.15h.034c.257 0 .536-.05.837-.15.301-.1.623-.25.963-.451.34-.201.63-.383.87-.544.24-.162.541-.374.904-.637.363-.262.6-.432.712-.51 1.026-.714 3.638-2.528 7.834-5.441a7.954 7.954 0 0 0 2.043-2.06c.547-.803.82-1.645.82-2.527 0-.737-.265-1.367-.795-1.892-.53-.524-1.158-.786-1.884-.786H2.678c-.859 0-1.52.29-1.983.87C.232 4.665 0 5.39 0 6.26c0 .703.307 1.465.92 2.286.614.82 1.268 1.464 1.96 1.933z"/>
        <path d="M28.326 12.271c-3.66 2.478-6.44 4.403-8.337 5.776a39.64 39.64 0 0 1-1.549 1.096c-.396.263-.923.53-1.582.804-.658.274-1.272.41-1.84.41h-.035c-.569 0-1.183-.136-1.841-.41-.659-.273-1.186-.541-1.582-.804a39.725 39.725 0 0 1-1.549-1.096c-1.506-1.105-4.28-3.03-8.32-5.776A8.866 8.866 0 0 1 0 10.815v13.292c0 .737.262 1.367.787 1.892a2.579 2.579 0 0 0 1.892.787h24.643c.736 0 1.367-.263 1.891-.787A2.578 2.578 0 0 0 30 24.107V10.815a9.228 9.228 0 0 1-1.674 1.456z"/>
    </g>
    <defs>
        <clipPath id="a">
            <path fill="#fff" d="M0 0h30v30H0z"/>
        </clipPath>
    </defs>
</svg>
