<svg width="247" height="44" viewBox="0 0 247 44" fill="none" xmlns="http://www.w3.org/2000/svg">
<path fill-rule="evenodd" clip-rule="evenodd" d="M145.125 38.3224L127.941 0L0 0V38.3224H145.125Z" fill="#FCEE21"/>
<path d="M7.3291 18.4517C7.3291 25.1768 12.8043 29.8065 19.9111 29.8065C26.2021 29.8065 29.3511 26.3886 30.6286 23.4125L24.5747 20.7665C23.8559 22.6649 21.9284 23.9106 19.7982 23.8533C18.3208 23.8372 16.9141 23.2519 15.9028 22.2326C14.8915 21.2133 14.3629 19.848 14.4389 18.4517C14.3629 17.0553 14.8915 15.69 15.9028 14.6707C16.9141 13.6514 18.3208 13.0661 19.7982 13.05C21.9258 12.9957 23.8495 14.2408 24.5675 16.1368L30.6214 13.4909C29.2301 10.5148 26.2021 7.09686 19.9111 7.09686C12.8043 7.09686 7.3291 11.6168 7.3291 18.4517ZM109.38 22.09H111.827L115.088 29.3656H123.01L118.816 21.6491C121.568 20.508 123.284 17.8734 123.126 15.0347C123.126 10.9566 120.214 7.53866 114.855 7.53866H102.391V29.3666H109.38V22.09ZM80.0227 7.42797V29.2549H97.6141V23.963H87.1295V20.7665H97.3812V15.696H87.1295V12.7189H97.6141V7.427L80.0227 7.42797ZM55.3257 7.42797V29.2549H69.5381C74.1976 29.2549 76.4129 26.3886 76.4129 23.3018C76.5675 20.7085 74.679 18.4041 71.9864 17.9001C74.4015 17.3718 76.0699 15.2822 75.9471 12.9393C75.9471 10.4041 73.8498 7.31728 69.0723 7.31728H55.3226L55.3257 7.42797ZM53.9281 7.42797H46.0067L41.813 14.8143L37.5035 7.42797H29.464L38.0832 20.7675V29.3666H45.192V20.7665L53.9281 7.42797ZM67.2089 15.8067H62.1995V12.4985H67.2089C68.1397 12.5307 68.8682 13.2682 68.8393 14.1492C68.8747 14.5781 68.7184 15.0014 68.4085 15.3163C68.0987 15.6311 67.6635 15.8086 67.2089 15.8057V15.8067ZM113.574 12.8257C114.161 12.7964 114.737 12.989 115.174 13.3612C115.611 13.7335 115.873 14.2548 115.904 14.8104C115.892 15.3723 115.635 15.9045 115.193 16.2805C114.752 16.6565 114.166 16.8428 113.574 16.7951H109.38V12.8257H113.574ZM67.4418 24.2941H62.1995V20.7665H67.4418C68.4542 20.789 69.2625 21.572 69.2625 22.5303C69.2625 23.4886 68.4542 24.2716 67.4418 24.2941Z" fill="black"/>
<path fill-rule="evenodd" clip-rule="evenodd" d="M137.795 7.09686L155.254 43.9999H228.814L246.272 7.09686H137.795Z" fill="black"/>
<path d="M214.721 19.6992H207.74V14.1935H228.682V19.6992H221.701V36.9031H214.721V19.6992ZM162.716 14.1935H176.447C181.217 14.1935 183.313 17.2898 183.313 20.0427C183.436 22.4802 181.769 24.6542 179.357 25.2039C182.006 25.7135 183.883 28.0508 183.778 30.7095C183.778 33.921 181.568 36.9031 177.03 36.9031H162.833V14.1935H162.716ZM174.583 22.9107C175.533 22.8199 176.247 22.0153 176.212 21.0751C176.193 20.1965 175.475 19.4886 174.583 19.4699H169.582V22.9107H174.583ZM174.816 31.742C175.491 31.7576 176.122 31.4113 176.465 30.8371C176.807 30.2629 176.807 29.5509 176.465 28.9767C176.122 28.4025 175.491 28.0562 174.816 28.0719H169.582V31.742H174.817H174.816ZM187.264 14.1935H204.715V19.6992H194.245V22.7955H204.483V28.0719H194.245V31.3975H204.715V36.9031H187.264V14.1935Z" fill="#FCEE21"/>
</svg>
