<svg width="13" height="14" viewBox="0 0 13 14" fill="none" xmlns="http://www.w3.org/2000/svg">
<path d="M6.5 14C7.52491 14 8.35627 13.2166 8.35627 12.25H4.64373C4.64373 13.2166 5.47509 14 6.5 14ZM12.7501 9.90637C12.1895 9.33871 11.1405 8.48477 11.1405 5.6875C11.1405 3.56289 9.55963 1.86211 7.42799 1.44484V0.875C7.42799 0.391836 7.01245 0 6.5 0C5.98755 0 5.57201 0.391836 5.57201 0.875V1.44484C3.44037 1.86211 1.85948 3.56289 1.85948 5.6875C1.85948 8.48477 0.810486 9.33871 0.249863 9.90637C0.0757564 10.0827 -0.00143083 10.2936 2.00625e-05 10.5C0.00321202 10.9484 0.376671 11.375 0.93149 11.375H12.0685C12.6233 11.375 12.9971 10.9484 13 10.5C13.0014 10.2936 12.9242 10.0825 12.7501 9.90637Z" fill="white"/>
</svg>
