<svg width="15" height="15" viewBox="0 0 15 15" fill="none" xmlns="http://www.w3.org/2000/svg">
<path d="M7.5 0C3.35685 0 0 3.35685 0 7.5C0 11.6431 3.35685 15 7.5 15C11.6431 15 15 11.6431 15 7.5C15 3.35685 11.6431 0 7.5 0ZM10.2971 9.46573L9.69224 10.2218C9.65254 10.2714 9.60347 10.3127 9.5478 10.3434C9.49214 10.374 9.43098 10.3934 9.36783 10.4004C9.30467 10.4075 9.24075 10.402 9.17971 10.3843C9.11867 10.3666 9.06172 10.3371 9.0121 10.2974L6.98589 8.79375C6.84431 8.6804 6.73004 8.53666 6.65151 8.37318C6.57299 8.2097 6.53224 8.03065 6.53226 7.84929V3.14516C6.53226 3.01683 6.58324 2.89376 6.67398 2.80301C6.76472 2.71227 6.8878 2.66129 7.01613 2.66129H7.98387C8.1122 2.66129 8.23528 2.71227 8.32602 2.80301C8.41676 2.89376 8.46774 3.01683 8.46774 3.14516V7.5L10.2218 8.78528C10.2714 8.825 10.3128 8.87411 10.3434 8.92981C10.3741 8.98551 10.3934 9.04671 10.4004 9.1099C10.4074 9.17309 10.4019 9.23704 10.3842 9.2981C10.3664 9.35915 10.3368 9.41611 10.2971 9.46573Z" fill="white"/>
</svg>
