<svg width="20" height="16" viewBox="0 0 20 16" fill="none" xmlns="http://www.w3.org/2000/svg">
<path d="M13.7114 2.36106L11.8225 2.11734L11.0304 0.411281C10.7258 -0.137094 10.2383 -0.137094 9.9337 0.411281L9.1416 2.11734L7.25275 2.36106C6.58252 2.48292 6.46066 2.90943 6.9481 3.39688L8.28857 4.67642L7.98392 6.56527C7.86206 7.17457 8.22764 7.47923 8.83695 7.17457L10.4821 6.32154L12.1272 7.17457C12.7365 7.47923 13.1021 7.17457 12.9802 6.56527L12.6756 4.67642L14.016 3.39688C14.5035 2.90943 14.3816 2.48292 13.7114 2.36106Z" fill="white"/>
<path d="M18.6366 10.6624L16.7477 10.4187L15.9556 8.71261C15.651 8.16424 15.1635 8.16424 14.8589 8.71261L14.0668 10.4187L12.1779 10.6624C11.5077 10.7843 11.3858 11.2108 11.8733 11.6982L13.2137 12.9777L12.9091 14.8666C12.7872 15.4759 13.1528 15.7806 13.7621 15.4759L15.4072 14.6229L17.0524 15.4759C17.6617 15.7806 18.0273 15.4759 17.9054 14.8666L17.6007 12.9777L18.9412 11.6982C19.4287 11.2108 19.3068 10.7843 18.6366 10.6624Z" fill="white"/>
<path d="M7.05978 8.83448L5.17093 8.59076L4.37884 6.8847C4.07418 6.33633 3.58674 6.33633 3.28208 6.8847L2.48999 8.59076L0.601141 8.83448C-0.0690952 8.95634 -0.190956 9.38285 0.296488 9.8703L1.63696 11.1498L1.33231 13.0387C1.21045 13.648 1.57603 13.9526 2.18534 13.648L3.83046 12.795L5.47558 13.648C6.08489 13.9526 6.45047 13.648 6.32861 13.0387L6.02396 11.1498L7.36443 9.8703C7.85188 9.38285 7.73002 8.95634 7.05978 8.83448Z" fill="white"/>
</svg>
