<svg width="6" height="16" viewBox="0 0 6 16" fill="none" xmlns="http://www.w3.org/2000/svg">
<path d="M3 0C4.10456 0 5 0.895437 5 2C5 3.10456 4.10456 4 3 4C1.89544 4 1 3.10456 1 2C1 0.895437 1.89544 0 3 0ZM4.5 4.5H4.145C3.43528 4.82634 2.59531 4.84044 1.855 4.5H1.5C0.671562 4.5 0 5.17156 0 6V10.25C0 10.6642 0.335781 11 0.75 11H1.25V15.25C1.25 15.6642 1.58578 16 2 16H4C4.41422 16 4.75 15.6642 4.75 15.25V11H5.25C5.66422 11 6 10.6642 6 10.25V6C6 5.17156 5.32844 4.5 4.5 4.5Z" fill="white"/>
</svg>
