<svg width="286" height="51" viewBox="0 0 286 51" fill="none" xmlns="http://www.w3.org/2000/svg">
<path fill-rule="evenodd" clip-rule="evenodd" d="M168.215 44.4196L148.296 0L0 0V44.4196H168.215Z" fill="#FCEE21"/>
<path d="M8.49487 21.387C8.49487 29.182 14.8412 34.5483 23.0786 34.5483C30.3705 34.5483 34.0206 30.5866 35.5014 27.137L28.4842 24.0701C27.651 26.2706 25.4169 27.7144 22.9478 27.648C21.2353 27.6293 19.6049 26.951 18.4327 25.7695C17.2604 24.588 16.6477 23.0054 16.7359 21.387C16.6477 19.7685 17.2604 18.1859 18.4327 17.0044C19.6049 15.8229 21.2353 15.1446 22.9478 15.1259C25.4139 15.063 27.6437 16.5062 28.4759 18.7038L35.493 15.6369C33.8803 12.1873 30.3705 8.2256 23.0786 8.2256C14.8412 8.2256 8.49487 13.4647 8.49487 21.387ZM126.783 25.6041H129.618L133.399 34.0373H142.581L137.72 25.0932C140.909 23.7705 142.898 20.7167 142.715 17.4264C142.715 12.6994 139.34 8.73769 133.128 8.73769H118.681V34.0385H126.783V25.6041ZM92.7541 8.60939V33.909H113.144V27.7752H100.992V24.0701H112.874V18.1928H100.992V14.7421H113.144V8.60826L92.7541 8.60939ZM64.1277 8.60939V33.909H80.6014C86.0022 33.909 88.57 30.5866 88.57 27.0087C88.7491 24.0029 86.5602 21.3318 83.4392 20.7477C86.2386 20.1353 88.1724 17.7132 88.0301 14.9976C88.0301 12.059 85.599 8.48109 80.0614 8.48109H64.1242L64.1277 8.60939ZM62.5079 8.60939H53.3261L48.4652 17.1709L43.47 8.60939H34.1515L44.142 24.0712V34.0385H52.3818V24.0701L62.5079 8.60939ZM77.9016 18.3211H72.0952V14.4866H77.9016C78.9804 14.5239 79.8249 15.3788 79.7914 16.4C79.8324 16.8971 79.6513 17.3878 79.2921 17.7527C78.9329 18.1177 78.4286 18.3234 77.9016 18.32V18.3211ZM131.643 14.8659C132.324 14.8319 132.991 15.0552 133.498 15.4866C134.004 15.9181 134.309 16.5224 134.344 17.1664C134.33 17.8177 134.032 18.4345 133.521 18.8703C133.009 19.3061 132.329 19.5221 131.643 19.4669H126.783V14.8659H131.643ZM78.1716 28.159H72.0952V24.0701H78.1716C79.345 24.0962 80.2819 25.0038 80.2819 26.1145C80.2819 27.2253 79.345 28.1329 78.1716 28.159Z" fill="black"/>
<path fill-rule="evenodd" clip-rule="evenodd" d="M159.719 8.2256L179.955 51H265.218L285.455 8.2256H159.719Z" fill="black"/>
<path d="M248.883 22.8337H240.792V16.452H265.065V22.8337H256.974V42.7747H248.883V22.8337ZM188.604 16.452H204.52C210.049 16.452 212.478 20.041 212.478 23.2318C212.62 26.0571 210.689 28.577 207.893 29.2141C210.964 29.8048 213.139 32.514 213.017 35.5957C213.017 39.3181 210.455 42.7747 205.196 42.7747H188.739V16.452H188.604ZM202.359 26.5561C203.46 26.4509 204.288 25.5183 204.247 24.4285C204.225 23.41 203.392 22.5896 202.359 22.5678H196.562V26.5561H202.359ZM202.629 36.7924C203.412 36.8105 204.143 36.4091 204.54 35.7436C204.937 35.078 204.937 34.2528 204.54 33.5872C204.143 32.9217 203.412 32.5203 202.629 32.5384H196.562V36.7924H202.63H202.629ZM217.058 16.452H237.285V22.8337H225.149V26.4226H237.016V32.5384H225.149V36.3931H237.285V42.7747H217.058V16.452Z" fill="#FCEE21"/>
</svg>
