<svg width="275" height="49" viewBox="0 0 275 49" fill="none" xmlns="http://www.w3.org/2000/svg">
<path fill-rule="evenodd" clip-rule="evenodd" d="M161.618 42.6776L142.481 0L0 0V42.6776H161.618Z" fill="#FCEE21"/>
<path d="M8.1618 20.5483C8.1618 28.0376 14.2593 33.1935 22.1737 33.1935C29.1796 33.1935 32.6865 29.3871 34.1092 26.0728L27.3673 23.1262C26.5668 25.2403 24.4202 26.6275 22.048 26.5638C20.4026 26.5458 18.8361 25.8941 17.7099 24.7589C16.5836 23.6238 15.9949 22.1033 16.0796 20.5483C15.9949 18.9932 16.5836 17.4727 17.7099 16.3376C18.8361 15.2024 20.4026 14.5507 22.048 14.5327C24.4173 14.4723 26.5597 15.8589 27.3593 17.9703L34.1012 15.0237C32.5517 11.7094 29.1796 7.90303 22.1737 7.90303C14.2593 7.90303 8.1618 12.9367 8.1618 20.5483ZM121.811 24.6H124.535L128.168 32.7025H136.989L132.319 24.1091C135.383 22.8383 137.295 19.9043 137.118 16.743C137.118 12.2014 133.875 8.39504 127.907 8.39504H114.027V32.7036H121.811V24.6ZM89.1168 8.27177V32.5793H108.707V26.686H97.0312V23.1262H108.448V17.4794H97.0312V14.164H108.707V8.27069L89.1168 8.27177ZM61.613 8.27177V32.5793H77.4406C82.6296 32.5793 85.0967 29.3871 85.0967 25.9496C85.2688 23.0616 83.1657 20.4952 80.1671 19.934C82.8567 19.3457 84.7147 17.0186 84.5779 14.4095C84.5779 11.5861 82.2423 8.1485 76.9218 8.1485H61.6096L61.613 8.27177ZM60.0566 8.27177H51.2349L46.5647 16.4975L41.7653 8.27177H32.8122L42.411 23.1273V32.7036H50.3276V23.1262L60.0566 8.27177ZM74.8467 17.6027H69.268V13.9185H74.8467C75.8832 13.9544 76.6945 14.7757 76.6624 15.7568C76.7018 16.2345 76.5278 16.7059 76.1827 17.0566C75.8376 17.4072 75.353 17.6049 74.8467 17.6016V17.6027ZM126.481 14.283C127.135 14.2503 127.776 14.4648 128.262 14.8793C128.749 15.2939 129.042 15.8744 129.076 16.4932C129.063 17.119 128.776 17.7116 128.284 18.1303C127.793 18.549 127.14 18.7565 126.481 18.7035H121.811V14.283H126.481ZM75.1061 27.0547H69.268V23.1262H75.1061C76.2335 23.1512 77.1337 24.0233 77.1337 25.0904C77.1337 26.1576 76.2335 27.0297 75.1061 27.0547Z" fill="black"/>
<path fill-rule="evenodd" clip-rule="evenodd" d="M153.455 7.90303L172.898 49H254.818L274.26 7.90303H153.455Z" fill="black"/>
<path d="M239.123 21.9382H231.349V15.8069H254.67V21.9382H246.896V41.0973H239.123V21.9382ZM181.207 15.8069H196.499C201.812 15.8069 204.145 19.255 204.145 22.3207C204.282 25.0352 202.426 27.4563 199.74 28.0684C202.69 28.636 204.78 31.2389 204.663 34.1998C204.663 37.7762 202.202 41.0973 197.149 41.0973H181.338V15.8069H181.207ZM194.423 25.5147C195.481 25.4136 196.276 24.5175 196.237 23.4705C196.216 22.492 195.416 21.7037 194.423 21.6828H188.853V25.5147H194.423ZM194.683 35.3496C195.435 35.367 196.137 34.9813 196.519 34.3419C196.9 33.7024 196.9 32.9095 196.519 32.2701C196.137 31.6306 195.435 31.245 194.683 31.2624H188.853V35.3496H194.684H194.683ZM208.546 15.8069H227.98V21.9382H216.319V25.3864H227.721V31.2624H216.319V34.9659H227.98V41.0973H208.546V15.8069Z" fill="#FCEE21"/>
</svg>
