<svg width="93" height="93" viewBox="0 0 93 93" fill="none" xmlns="http://www.w3.org/2000/svg">
<g clip-path="url(#clip0)">
<path d="M82.4083 16.6937C82.1255 3.31492 82.1079 6.20683 82.3834 2.03707C82.3998 1.78986 82.2131 1.57625 81.966 1.55936C62.0441 0.196682 61.2892 0.0395624 59.7455 0.0395624C32.5681 0.0373827 46.8362 -0.40673 10.5603 1.73319C10.3138 1.7479 10.1254 1.9586 10.1383 2.20491C12.4762 47.0598 12.3909 39.7426 11.1966 69.6371C11.188 69.8518 11.3328 70.0423 11.542 70.0917C14.257 70.7337 13.7759 70.481 20.1092 70.4855C20.1195 70.4886 31.9778 69.1937 31.9885 69.1926C32.0444 69.2019 48.3865 71.884 48.4434 71.884C48.4559 71.884 48.4683 71.8835 48.4808 71.8824C67.6332 70.2774 62.1435 70.6652 74.4997 69.9804L81.7549 71.4479C82.0372 71.5045 82.2961 71.2864 82.293 71.0029C82.1359 56.3956 82.4083 16.6937 82.4083 16.6937ZM52.9572 15.6289C53.0111 15.6159 53.0883 15.597 53.1846 15.5714L58.3487 14.4076C60.9939 13.7448 61.3848 13.5833 63.6484 12.519H63.6486C64.6937 12.8816 67.5593 14.4673 68.2857 15.3777C68.7658 15.9804 68.7342 16.1145 68.5832 16.7598C68.5542 16.8837 68.5209 17.0263 68.4861 17.1947C68.4837 17.2058 68.4819 17.2172 68.4802 17.2285L67.3446 26.1151C66.221 26.1565 66.1273 26.0704 65.8165 25.7843C65.6882 25.6659 65.5286 25.5188 65.247 25.33C63.5383 24.1832 57.9463 20.0455 56.1806 18.6213L52.7094 15.8324L52.7374 15.8053C52.775 15.7679 52.8084 15.7176 52.8306 15.6694C52.848 15.6558 52.9167 15.6389 52.9572 15.6289ZM61.0046 60.3727C60.9031 60.2711 17.6098 14.3749 17.578 14.3115L21.3603 11.4099L74.2161 46.4088C73.7793 47.6605 73.6049 49.0969 73.3422 50.2897C72.4137 54.5026 71.2196 56.3458 69.3523 60.3485C66.6796 60.4548 61.1886 60.4342 61.0046 60.3727ZM21.6219 47.9555C22.1085 46.7859 22.7775 44.9044 23.3398 43.9514C26.1044 45.679 36.9041 56.53 37.8433 57.9951C37.3231 58.1882 35.0886 58.5203 31.376 60.0034C29.0237 60.9417 26.8026 61.832 24.6573 61.1039C24.4433 61.0318 23.8729 60.5478 23.0272 59.8177C21.4825 58.4843 20.0837 57.5236 19.2703 57.0435C17.883 56.2245 18.0991 56.3972 21.6219 47.9555Z" fill="url(#paint0_linear)"/>
<path d="M15.6626 48.0509C15.3236 30.5672 15.7022 40.091 13.6932 1.54852L10.5603 1.73325C10.3138 1.74797 10.1254 1.95867 10.1383 2.20497L11.8063 34.2078C12.1376 51.3026 12.2283 43.8112 11.1966 69.6371C11.188 69.8518 11.3328 70.0424 11.542 70.0918C13.0742 70.4542 13.711 70.5354 14.7889 70.5354C14.7551 70.42 14.7179 71.6946 15.6626 48.0509Z" fill="#600F0B"/>
<path d="M40.092 58.9832C40.092 58.9832 41.924 58.3525 40.418 56.6996C34.2709 49.8435 30.5262 47.3597 26.9669 43.4548C25.4795 41.8446 23.3401 43.9512 23.3401 43.9512C37.2505 56.3163 34.4638 54.5264 36.9158 56.8939C37.2413 57.2082 37.4981 57.4563 37.8436 57.995C37.7793 58.0188 37.495 58.0906 37.1016 58.1899C31.3141 59.6503 30.4459 60.6417 27.8617 61.1955C30.2733 63.1618 34.5259 60.7629 37.5577 59.719C38.2826 59.4696 39.243 59.2049 40.092 58.9832Z" fill="#600F0B"/>
<path d="M76.8476 42.7686C76.8474 42.7684 26.3159 10.543 26.3159 10.543C24.623 9.46354 22.7973 9.98304 21.3604 11.41L74.2162 46.4089C73.7793 47.6605 73.605 49.097 73.3423 50.2898C72.4137 54.5026 71.2196 56.3459 69.3524 60.3486C69.3524 60.3486 74.1393 61.2688 75.5988 58.0292C79.0233 50.741 78.2326 49.3663 79.0486 47.0651C78.9517 45.7671 79.1321 44.2257 76.8476 42.7686Z" fill="#600F0B"/>
<path d="M68.4863 17.1947C68.484 17.2058 68.4822 17.2173 68.4805 17.2285L67.3449 26.1151C67.3449 26.1151 71.838 28.8903 72.4025 24.3274C72.4027 24.326 72.4029 24.3245 72.4031 24.3231L73.3325 16.8106C73.3342 16.7991 73.336 16.7875 73.3385 16.7761C73.3739 16.6039 73.4081 16.4582 73.4377 16.3316C73.5919 15.6719 73.6242 15.5347 73.1334 14.9186C72.6176 14.2719 70.306 12.5652 68.5839 11.4585C66.9584 10.3687 65.0279 11.6792 65.0279 11.6792C64.546 12.0485 64.1153 12.3711 63.6487 12.5191C64.8292 13.1576 67.8203 14.7943 68.2858 15.3778C68.7659 15.9805 68.7343 16.1145 68.5833 16.7599C68.5543 16.8839 68.521 17.0265 68.4863 17.1947Z" fill="#600F0B"/>
</g>
<defs>
<linearGradient id="paint0_linear" x1="46.273" y1="-6.10352e-05" x2="46.273" y2="71.884" gradientUnits="userSpaceOnUse">
<stop stop-color="#5B0E08"/>
<stop offset="1" stop-color="#B5230A"/>
</linearGradient>
<clipPath id="clip0">
<rect width="93" height="93" fill="white"/>
</clipPath>
</defs>
</svg>
