<svg width="174" height="31" viewBox="0 0 174 31" fill="none" xmlns="http://www.w3.org/2000/svg">
<path fill-rule="evenodd" clip-rule="evenodd" d="M102.248 27L90.1405 0L0 0V27H102.248Z" fill="#FCEE21"/>
<path d="M5.16357 12.9999C5.16357 17.7381 9.02114 20.9999 14.0282 20.9999C18.4605 20.9999 20.6792 18.5919 21.5792 16.4951L17.3139 14.6309C16.8075 15.9684 15.4495 16.846 13.9487 16.8057C12.9077 16.7943 11.9167 16.382 11.2042 15.6638C10.4916 14.9457 10.1192 13.9837 10.1728 12.9999C10.1192 12.0162 10.4916 11.0542 11.2042 10.3361C11.9167 9.61791 12.9077 9.20558 13.9487 9.19423C15.4476 9.15598 16.803 10.0332 17.3088 11.369L21.5741 9.50481C20.5939 7.40801 18.4605 4.99994 14.0282 4.99994C9.02114 4.99994 5.16357 8.18448 5.16357 12.9999ZM77.0636 15.5633H78.7871L81.0853 20.6894H86.6663L83.7117 15.2527C85.6501 14.4488 86.8595 12.5926 86.748 10.5926C86.748 7.71928 84.6963 5.31121 80.9204 5.31121H72.139V20.69H77.0636V15.5633ZM56.3798 5.23322V20.6114H68.7737V16.883H61.3868V14.6309H68.6096V11.0584H61.3868V8.96095H68.7737V5.23254L56.3798 5.23322ZM38.9795 5.23322V20.6114H48.9928C52.2757 20.6114 53.8365 18.5919 53.8365 16.4171C53.9453 14.59 52.6148 12.9664 50.7177 12.6114C52.4193 12.2391 53.5948 10.7669 53.5083 9.11624C53.5083 7.33002 52.0306 5.15523 48.6646 5.15523H38.9773L38.9795 5.23322ZM37.9948 5.23322H32.4138L29.4592 10.4373L26.4229 5.23322H20.7587L26.8313 14.6315V20.69H31.8398V14.6309L37.9948 5.23322ZM47.3518 11.1364H43.8224V8.80565H47.3518C48.0075 8.82831 48.5208 9.34796 48.5005 9.96864C48.5254 10.2709 48.4153 10.5691 48.197 10.7909C47.9787 11.0127 47.6721 11.1378 47.3518 11.1357V11.1364ZM80.0182 9.0362C80.4319 9.01552 80.8373 9.15124 81.1452 9.41349C81.4532 9.67575 81.6383 10.043 81.66 10.4345C81.6515 10.8304 81.4702 11.2053 81.1592 11.4702C80.8482 11.7351 80.4352 11.8664 80.0182 11.8328H77.0636V9.0362H80.0182ZM47.5159 17.1162H43.8224V14.6309H47.5159C48.2291 14.6467 48.7986 15.1984 48.7986 15.8736C48.7986 16.5487 48.2291 17.1004 47.5159 17.1162Z" fill="black"/>
<path fill-rule="evenodd" clip-rule="evenodd" d="M97.0835 4.99994L109.384 30.9999H161.211L173.511 4.99994H97.0835Z" fill="black"/>
<path d="M151.281 13.879H146.363V10H161.117V13.879H156.199V26H151.281V13.879ZM114.641 10H124.316C127.676 10 129.153 12.1815 129.153 14.121C129.239 15.8383 128.065 17.37 126.366 17.7573C128.232 18.1163 129.555 19.7631 129.481 21.6363C129.481 23.8989 127.923 26 124.726 26H114.723V10H114.641ZM123.002 16.1416C123.672 16.0777 124.174 15.5108 124.149 14.8484C124.136 14.2293 123.63 13.7306 123.002 13.7174H119.478V16.1416H123.002ZM123.166 22.3637C123.642 22.3747 124.087 22.1307 124.328 21.7262C124.569 21.3216 124.569 20.82 124.328 20.4155C124.087 20.0109 123.642 19.7669 123.166 19.7779H119.478V22.3637H123.167H123.166ZM131.937 10H144.232V13.879H136.855V16.0605H144.068V19.7779H136.855V22.121H144.232V26H131.937V10Z" fill="#FCEE21"/>
</svg>
