<svg width="30" height="30" viewBox="0 0 30 30" fill="none" xmlns="http://www.w3.org/2000/svg">
<g clip-path="url(#clip0)">
<path d="M2.88 10.48C3.259 10.748 4.403 11.543 6.311 12.866C8.22 14.188 9.681 15.206 10.697 15.921C10.809 15.999 11.047 16.169 11.409 16.431C11.771 16.694 12.073 16.906 12.313 17.068C12.553 17.229 12.843 17.411 13.183 17.612C13.523 17.812 13.845 17.963 14.146 18.063C14.447 18.163 14.726 18.213 14.983 18.213H15.017C15.274 18.213 15.553 18.163 15.854 18.063C16.155 17.963 16.477 17.813 16.817 17.612C17.157 17.411 17.447 17.229 17.687 17.068C17.927 16.906 18.228 16.694 18.591 16.431C18.954 16.169 19.191 15.999 19.303 15.921C20.329 15.207 22.941 13.393 27.137 10.48C27.9385 9.92439 28.6311 9.22611 29.18 8.42C29.727 7.617 30 6.775 30 5.893C30 5.156 29.735 4.526 29.205 4.001C28.675 3.477 28.047 3.215 27.321 3.215H2.678C1.819 3.215 1.158 3.505 0.695 4.085C0.232 4.665 0 5.39 0 6.26C0 6.963 0.307 7.725 0.92 8.546C1.534 9.366 2.188 10.01 2.88 10.479V10.48Z" fill="#FCEE21"/>
<path d="M28.326 12.271C24.666 14.749 21.886 16.674 19.989 18.047C19.4815 18.4246 18.965 18.7901 18.44 19.143C18.044 19.406 17.517 19.673 16.858 19.947C16.2 20.221 15.586 20.357 15.018 20.357H14.983C14.414 20.357 13.8 20.221 13.142 19.947C12.483 19.674 11.956 19.406 11.56 19.143C11.035 18.7901 10.5185 18.4246 10.011 18.047C8.505 16.942 5.731 15.017 1.691 12.271C1.06826 11.8588 0.500097 11.3696 0 10.815L0 24.107C0 24.844 0.262 25.474 0.787 25.999C1.03185 26.2525 1.32607 26.4531 1.65148 26.5885C1.97689 26.7238 2.3266 26.7911 2.679 26.786H27.322C28.058 26.786 28.689 26.523 29.213 25.999C29.4665 25.7542 29.6672 25.46 29.8026 25.1346C29.9379 24.8091 30.0051 24.4594 30 24.107V10.815C29.5026 11.3659 28.9405 11.8548 28.326 12.271Z" fill="#FCEE21"/>
</g>
<defs>
<clipPath id="clip0">
<rect width="30" height="30" fill="white"/>
</clipPath>
</defs>
</svg>
