<svg width="228" height="183" viewBox="0 0 228 183" fill="none" xmlns="http://www.w3.org/2000/svg">
<g clip-path="url(#clip0)">
<path d="M171.025 34.3125H57.0001C47.6019 34.3112 38.3493 36.6413 30.0658 41.0955C21.7824 45.5497 14.7252 51.9897 9.52254 59.8422C4.31992 67.6947 1.13329 76.716 0.246355 86.103C-0.64058 95.49 0.799703 104.951 4.43898 113.645C8.07825 122.338 13.8036 129.994 21.1053 135.931C28.407 141.867 37.0584 145.9 46.2894 147.67C55.5204 149.441 65.0446 148.894 74.0139 146.078C82.9832 143.262 91.1194 138.265 97.6981 131.531H130.302C136.88 138.264 145.015 143.261 153.983 146.077C162.952 148.893 172.474 149.441 181.705 147.672C190.935 145.902 199.586 141.871 206.888 135.936C214.19 130.002 219.916 122.348 223.556 113.656C227.197 104.965 228.64 95.5048 227.755 86.1186C226.871 76.7324 223.687 67.7112 218.488 59.8578C213.289 52.0045 206.234 45.5627 197.954 41.1058C189.673 36.649 180.422 34.3153 171.025 34.3125ZM88.3501 95.7891C88.3501 96.9266 87.8997 98.0175 87.098 98.8219C86.2963 99.6262 85.2089 100.078 84.0751 100.078H65.5501V118.664C65.5501 119.802 65.0997 120.893 64.298 121.697C63.4963 122.501 62.4089 122.953 61.2751 122.953H52.7251C51.5913 122.953 50.5039 122.501 49.7022 121.697C48.9005 120.893 48.4501 119.802 48.4501 118.664V100.078H29.9251C28.7913 100.078 27.7039 99.6262 26.9022 98.8219C26.1005 98.0175 25.6501 96.9266 25.6501 95.7891V87.2109C25.6501 86.0734 26.1005 84.9825 26.9022 84.1781C27.7039 83.3738 28.7913 82.9219 29.9251 82.9219H48.4501V64.3359C48.4501 63.1984 48.9005 62.1075 49.7022 61.3031C50.5039 60.4988 51.5913 60.0469 52.7251 60.0469H61.2751C62.4089 60.0469 63.4963 60.4988 64.298 61.3031C65.0997 62.1075 65.5501 63.1984 65.5501 64.3359V82.9219H84.0751C85.2089 82.9219 86.2963 83.3738 87.098 84.1781C87.8997 84.9825 88.3501 86.0734 88.3501 87.2109V95.7891ZM165.3 122.953C162.482 122.953 159.727 122.115 157.383 120.544C155.04 118.973 153.213 116.74 152.135 114.127C151.056 111.515 150.774 108.64 151.324 105.867C151.874 103.094 153.231 100.546 155.224 98.5468C157.217 96.5474 159.756 95.1857 162.52 94.6341C165.284 94.0824 168.149 94.3656 170.753 95.4477C173.357 96.5298 175.583 98.3622 177.149 100.713C178.714 103.064 179.55 105.829 179.55 108.656C179.55 112.448 178.049 116.084 175.376 118.766C172.704 121.447 169.079 122.953 165.3 122.953ZM188.1 88.6406C185.282 88.6406 182.527 87.8021 180.183 86.2312C177.84 84.6602 176.013 82.4273 174.935 79.8149C173.856 77.2025 173.574 74.3279 174.124 71.5546C174.674 68.7812 176.031 66.2338 178.024 64.2343C180.017 62.2349 182.556 60.8732 185.32 60.3216C188.084 59.7699 190.949 60.0531 193.553 61.1352C196.157 62.2173 198.383 64.0497 199.949 66.4008C201.514 68.7519 202.35 71.5161 202.35 74.3438C202.35 78.1355 200.849 81.772 198.176 84.4532C195.504 87.1344 191.879 88.6406 188.1 88.6406Z" fill="#FCEE21"/>
<g filter="url(#filter0_d)">
<path d="M32 192L214 -14" stroke="#D60404" stroke-width="10"/>
</g>
<g filter="url(#filter1_d)">
<path d="M214 197L32 -9" stroke="#D60404" stroke-width="10"/>
</g>
</g>
<defs>
<filter id="filter0_d" x="24.2529" y="-17.3105" width="197.494" height="220.621" filterUnits="userSpaceOnUse" color-interpolation-filters="sRGB">
<feFlood flood-opacity="0" result="BackgroundImageFix"/>
<feColorMatrix in="SourceAlpha" type="matrix" values="0 0 0 0 0 0 0 0 0 0 0 0 0 0 0 0 0 0 127 0"/>
<feOffset dy="4"/>
<feGaussianBlur stdDeviation="2"/>
<feColorMatrix type="matrix" values="0 0 0 0 0 0 0 0 0 0 0 0 0 0 0 0 0 0 0.31 0"/>
<feBlend mode="normal" in2="BackgroundImageFix" result="effect1_dropShadow"/>
<feBlend mode="normal" in="SourceGraphic" in2="effect1_dropShadow" result="shape"/>
</filter>
<filter id="filter1_d" x="24.2529" y="-12.3105" width="197.494" height="220.621" filterUnits="userSpaceOnUse" color-interpolation-filters="sRGB">
<feFlood flood-opacity="0" result="BackgroundImageFix"/>
<feColorMatrix in="SourceAlpha" type="matrix" values="0 0 0 0 0 0 0 0 0 0 0 0 0 0 0 0 0 0 127 0"/>
<feOffset dy="4"/>
<feGaussianBlur stdDeviation="2"/>
<feColorMatrix type="matrix" values="0 0 0 0 0 0 0 0 0 0 0 0 0 0 0 0 0 0 0.31 0"/>
<feBlend mode="normal" in2="BackgroundImageFix" result="effect1_dropShadow"/>
<feBlend mode="normal" in="SourceGraphic" in2="effect1_dropShadow" result="shape"/>
</filter>
<clipPath id="clip0">
<rect width="228" height="183" fill="white"/>
</clipPath>
</defs>
</svg>
