<svg width="183" height="183" viewBox="0 0 183 183" fill="none" xmlns="http://www.w3.org/2000/svg">
<path d="M68.625 74.3438C68.625 68.0281 63.5031 62.9062 57.1875 62.9062H51.4688C38.8339 62.9062 28.5938 73.1464 28.5938 85.7812V102.938C28.5938 115.572 38.8339 125.812 51.4688 125.812H57.1875C63.5031 125.812 68.625 120.691 68.625 114.375V74.3438ZM131.531 125.812C144.166 125.812 154.406 115.572 154.406 102.938V85.7812C154.406 73.1464 144.166 62.9062 131.531 62.9062H125.812C119.497 62.9062 114.375 68.0281 114.375 74.3438V114.375C114.375 120.691 119.497 125.812 125.812 125.812H131.531ZM91.5 0C40.453 0 1.63699 42.4724 0 91.5V97.2188C0 100.378 2.55914 102.938 5.71875 102.938H11.4375C14.5971 102.938 17.1562 100.378 17.1562 97.2188V91.5C17.1562 50.5073 50.5073 17.1562 91.5 17.1562C132.493 17.1562 165.844 50.5073 165.844 91.5H165.801C165.829 92.3685 165.844 150.732 165.844 150.732C165.844 159.078 159.078 165.844 150.732 165.844H114.375C114.375 156.368 106.694 148.688 97.2188 148.688H85.7812C76.306 148.688 68.625 156.368 68.625 165.844C68.625 175.319 76.306 183 85.7812 183H150.732C168.553 183 183 168.553 183 150.732V91.5C181.363 42.4724 142.547 0 91.5 0Z" fill="#FCEE21"/>
</svg>
