<svg xmlns="http://www.w3.org/2000/svg" viewBox="0 0 454.1 234.3"><path fill="#fff" d="M36.4 210.4c-7.2 0-12.9-3.4-17-10.1v34.1H2.8v-92.7h16.7v8.5c4.2-6.8 9.9-10.1 17-10.1 7.6 0 13.6 3.1 18.1 9.4 4.5 6.3 6.7 14.8 6.7 25.8 0 10.8-2.2 19.4-6.7 25.8-4.5 6.1-10.6 9.3-18.2 9.3zM31 195.7c4.2 0 7.4-1.9 9.7-5.7 2.2-3.8 3.4-8.8 3.4-14.9 0-6-1.1-11-3.4-14.7-2.3-3.8-5.5-5.7-9.7-5.7-2.2 0-4.4.7-6.6 2.2-2.2 1.5-3.8 3.4-4.9 5.6v25.3c1.1 2.3 2.7 4.1 4.9 5.6s4.4 2.3 6.6 2.3zm93.6 13h-16.8V202c-1.9 2.6-4.4 4.6-7.6 6.1-3.2 1.5-6.6 2.2-10.1 2.2-5.6 0-10.5-2-14.6-6s-6.1-9.4-6.1-16.3 2-12.3 6.1-16.1c4-3.8 8.9-5.7 14.6-5.7 3.6 0 7 .7 10.2 2.1 3.2 1.4 5.7 3.3 7.4 5.8v-8.7c0-3.6-1.1-6.5-3.3-8.6-2.2-2.1-5.2-3.1-9.1-3.1-6.1 0-11.6 2.4-16.5 7.2l-6.3-11.4c6.8-6.5 15.4-9.8 25.9-9.8 7.9 0 14.2 1.9 19 5.8 4.8 3.8 7.1 9.8 7.1 18l.1 45.2zm-28.1-9.6c5.2 0 9-2.1 11.3-6.4v-8.6c-2.4-4.4-6.2-6.6-11.3-6.6-3.1 0-5.7 1-7.6 3-1.9 2-2.8 4.6-2.8 7.9 0 3.2.9 5.8 2.8 7.8s4.4 2.9 7.6 2.9zm60.1 9.6h-16.7v-67.2h16.7v9.2c1.9-3.1 4.6-5.6 8-7.7 3.4-2.1 6.8-3.1 10.3-3.1v16.4c-1.1-.3-2.4-.4-4-.4-2.7 0-5.4.8-8.2 2.3-2.7 1.5-4.8 3.5-6.2 5.8v44.7zm48.1 1.7c-11.4 0-17.1-5.9-17.1-17.8v-36.4h-8.8v-14.6h8.8v-18.3h16.7v18.3h11.1v14.6h-11.1v32.5c0 4.6 1.6 6.9 4.9 6.9 2.3 0 4-.7 5-1.9l3.5 12.8c-3 2.6-7.3 3.9-13 3.9zm76-1.7H264v-44.2c0-6.6-2.9-9.9-8.7-9.9-4.9 0-9 2.8-12.2 8.3v45.7h-16.7v-67.2h16.7v8.8c1.9-2.9 4.7-5.3 8.3-7.4 3.6-2 7.4-3.1 11.5-3.1 6 0 10.5 1.6 13.5 4.8 3 3.2 4.5 7.7 4.5 13.6v50.6zm43.3 1.7c-9.5 0-17.1-3.2-22.7-9.7-5.7-6.5-8.5-15-8.5-25.6 0-10 2.7-18.4 8.2-25.1 5.5-6.7 12.8-10.1 21.8-10.1 9.1 0 16.2 3.3 21.3 9.9 5.1 6.6 7.7 15.3 7.7 25.9v4.7h-42.1c.4 4.8 2 8.7 4.7 11.8 2.8 3.1 6.6 4.6 11.5 4.6 2.5 0 5.1-.6 7.8-1.8 2.7-1.1 5-2.7 6.8-4.8l7.7 10c-6.3 6.9-14.3 10.2-24.2 10.2zm11.5-41.3c-.2-4.2-1.3-7.8-3.3-11-2.1-3.2-5.3-4.7-9.7-4.7-4.3 0-7.4 1.6-9.5 4.7-2.1 3.1-3.2 6.8-3.4 11h25.9zm44.2 39.6H363v-67.2h16.7v9.2c1.9-3.1 4.6-5.6 8-7.7 3.4-2.1 6.8-3.1 10.3-3.1v16.4c-1.1-.3-2.4-.4-4-.4-2.7 0-5.4.8-8.2 2.3-2.7 1.5-4.8 3.5-6.2 5.8l.1 44.7zm48.8 1.7c-11.1 0-19.7-3.2-25.9-9.6l7.1-11.7c2.1 2.3 4.9 4.3 8.3 5.8 3.4 1.6 6.8 2.4 10.1 2.4 3.1 0 5.6-.7 7.3-2 1.7-1.3 2.6-3 2.6-5.2 0-2-1.1-3.7-3.4-4.9-2.3-1.3-5-2.4-8.3-3.4-3.2-1-6.5-2.2-9.8-3.6-3.3-1.4-6.1-3.6-8.3-6.7-2.3-3.1-3.4-6.9-3.4-11.5 0-5.6 2.2-10.4 6.5-14.3 4.4-3.9 10.3-5.8 17.9-5.8 9.1 0 16.9 2.9 23.4 8.6l-6.7 11.3c-1.8-2-4.1-3.6-7.1-5-3-1.3-6.1-2-9.3-2-2.6 0-4.7.6-6.4 1.8-1.7 1.2-2.5 2.7-2.5 4.6 0 1.9 1.1 3.4 3.4 4.6 2.3 1.2 5.1 2.3 8.3 3.4 3.3 1 6.6 2.3 9.9 3.7 3.3 1.4 6.1 3.8 8.4 6.9 2.3 3.2 3.4 7.1 3.4 11.7 0 6.1-2.3 11.1-6.9 15-4.6 3.9-10.8 5.9-18.6 5.9zM27.5 122c-10.1 0-18.3-2.9-24.7-8.6l6.7-12.8c4.6 4.9 10.3 7.4 17.3 7.4 4.3 0 7.8-1.3 10.7-3.8 2.9-2.5 4.3-6.6 4.3-12V84c-4.3 6.9-9.9 10.3-17 10.3-7.6 0-13.6-3-18.1-8.9C2.2 79.4 0 71 0 60.2c0-10.7 2.2-19 6.7-25.1 4.4-6.1 10.4-9.1 18-9.1 7.4 0 13.1 3.4 17 10.1v-8.5h16.7v63.7c0 5.8-.9 10.9-2.6 15.1s-4.2 7.4-7.3 9.5c-3.1 2.1-6.4 3.7-9.7 4.7-3.5 1-7.2 1.4-11.3 1.4zm2.6-42.5c2.2 0 4.5-.8 6.7-2.2 2.2-1.5 3.8-3.3 4.9-5.5V48.7c-1-2.2-2.6-4.1-4.8-5.6-2.2-1.5-4.4-2.3-6.8-2.3-4.1 0-7.3 1.8-9.6 5.3-2.2 3.5-3.3 8.3-3.3 14.2 0 5.9 1.1 10.6 3.3 14.1 2.3 3.4 5.5 5.1 9.6 5.1zm95.3 15.3h-16.8v-6.7c-1.9 2.6-4.4 4.6-7.6 6.1-3.2 1.5-6.6 2.2-10.1 2.2-5.6 0-10.5-2-14.6-6s-6.1-9.4-6.1-16.3 2-12.3 6.1-16.1c4-3.8 8.9-5.7 14.6-5.7 3.6 0 7 .7 10.2 2.1 3.2 1.4 5.7 3.3 7.4 5.8v-8.7c0-3.6-1.1-6.5-3.3-8.6-2.2-2.1-5.2-3.1-9.1-3.1-6.1 0-11.6 2.4-16.5 7.2l-6.3-11.4c6.8-6.5 15.4-9.8 25.9-9.8 7.9 0 14.2 1.9 19 5.8 4.8 3.8 7.1 9.9 7.1 18l.1 45.2zm-28.1-9.6c5.2 0 9-2.1 11.3-6.4v-8.6c-2.4-4.4-6.2-6.6-11.3-6.6-3.1 0-5.7 1-7.6 3-1.9 2-2.8 4.6-2.8 7.9 0 3.2.9 5.8 2.8 7.8 1.9 1.9 4.5 2.9 7.6 2.9zm131.8 9.6h-16.7V49.6c0-5.9-2.5-8.9-7.6-8.9-2.4 0-4.6.8-6.7 2.5-2 1.7-3.7 3.6-4.9 5.8v45.7h-16.7V49.6c0-5.9-2.5-8.9-7.7-8.9-2.3 0-4.5.8-6.6 2.5-2.1 1.7-3.7 3.6-4.9 5.8v45.7h-16.7v-67h16.7v8.8c1.5-2.6 4-5 7.6-7.2 3.6-2.2 7.4-3.3 11.3-3.3 9 0 14.4 3.9 16.3 11.7 1.7-3.1 4.3-5.9 8-8.2 3.7-2.3 7.5-3.5 11.6-3.5 5.4 0 9.5 1.5 12.5 4.4 3 2.9 4.5 7.4 4.5 13.4v51zm23.6-74.6c-2.7 0-5-1-7-2.9-2-2-3-4.3-3-7.1s1-5.2 3-7.1c2-2 4.3-3 7-3 2.8 0 5.2 1 7.1 3 2 2 2.9 4.4 2.9 7.1 0 2.8-1 5.2-2.9 7.1-1.9 1.9-4.3 2.9-7.1 2.9zm8.4 74.6h-16.7V27.7h16.7v67.1zm69.7 0h-16.7V50.6c0-6.6-2.9-9.9-8.7-9.9-4.9 0-9 2.8-12.2 8.3v45.7h-16.7v-67h16.7v8.8c1.9-2.9 4.7-5.3 8.3-7.4 3.6-2 7.4-3.1 11.5-3.1 6 0 10.5 1.6 13.5 4.8 3 3.2 4.5 7.7 4.5 13.6l-.2 50.4zm39.4 27.2c-10.1 0-18.3-2.9-24.7-8.6l6.7-12.8c4.6 4.9 10.3 7.4 17.3 7.4 4.3 0 7.8-1.3 10.7-3.8 2.9-2.5 4.3-6.6 4.3-12V84c-4.3 6.9-9.9 10.3-17 10.3-7.6 0-13.6-3-18.1-8.9-4.4-5.9-6.7-14.3-6.7-25.1 0-10.7 2.2-19 6.7-25.1 4.5-6.1 10.5-9.1 18.1-9.1 7.4 0 13.1 3.4 17 10.1v-8.5h16.7v63.7c0 5.8-.9 10.9-2.6 15.1s-4.2 7.4-7.3 9.5c-3.1 2.1-6.4 3.7-9.7 4.7-3.6.9-7.3 1.3-11.4 1.3zm2.7-42.5c2.2 0 4.5-.8 6.7-2.2 2.2-1.5 3.8-3.3 4.9-5.5V48.7c-1-2.2-2.6-4.1-4.8-5.6-2.2-1.5-4.4-2.3-6.8-2.3-4.1 0-7.3 1.8-9.6 5.3-2.2 3.5-3.3 8.3-3.3 14.2 0 5.9 1.1 10.6 3.3 14.1 2.2 3.4 5.4 5.1 9.6 5.1z"></path><g><path fill="#f0f" d="M454 72.7c0 12.2-9.9 22.1-22.1 22.1s-22.1-9.9-22.1-22.1 9.9-22.1 22.1-22.1S454 60.4 454 72.7zm-22.1-11.9c-6.6 0-11.9 5.3-11.9 11.9 0 6.6 5.3 11.9 11.9 11.9s11.9-5.3 11.9-11.9c0-6.6-5.3-11.9-11.9-11.9z"></path></g></svg>