<svg width="268" height="79" viewBox="0 0 268 79" fill="none" xmlns="http://www.w3.org/2000/svg">
<path d="M155.704 58.5528L137.208 17.1011H0V58.5528H155.704Z" fill="#FCEE21"/>
<path d="M8.39844 38.1989C8.39844 45.8201 14.3435 50.9319 21.9872 50.9319C28.7815 50.9319 32.1787 47.0283 33.6886 43.6825L27.1773 40.7083C26.5168 42.5672 24.6294 44.2401 22.0815 44.2401C18.6844 44.2401 16.2308 41.5448 16.2308 38.106C16.2308 34.7601 18.6844 31.9719 22.0815 31.9719C24.7238 31.9719 26.6111 33.6448 27.1773 35.5036L33.6886 32.5295C32.1787 29.1836 28.8759 25.373 21.9872 25.373C14.3435 25.466 8.39844 30.5778 8.39844 38.1989ZM119.09 42.2883H121.732L125.224 50.4672H133.811L129.187 41.7307C131.735 40.6154 133.811 38.1989 133.811 34.2954C133.811 29.6483 130.697 25.8378 124.846 25.8378H111.446V50.4672H118.996V42.2883H119.09ZM87.1942 25.8378V50.4672H106.162V44.5189H94.7435V40.8942H105.879V35.1319H94.7435V31.786H106.162V25.8378H87.1942ZM60.4886 25.8378V50.4672H75.8703C80.8717 50.4672 83.2308 47.2142 83.2308 43.7754C83.2308 40.6154 81.1548 38.106 78.5125 37.7342C80.9661 37.1766 82.8534 35.1319 82.8534 32.0648C82.8534 29.1836 80.5886 25.7448 75.3985 25.7448H60.4886V25.8378ZM58.8844 25.8378H50.297L45.7675 34.2025L41.1435 25.8378H32.4618L41.8984 40.8013V50.4672H49.6365V40.8013L58.8844 25.8378ZM73.4168 35.2248H67.9435V31.5072H73.4168C74.3604 31.5072 75.2097 32.2507 75.2097 33.273C75.1153 34.4813 74.3604 35.2248 73.4168 35.2248ZM123.62 31.8789C124.941 31.8789 126.073 32.7154 126.073 34.1095C126.073 35.5036 124.846 36.3401 123.62 36.3401H119.09V31.786H123.62V31.8789ZM73.6055 44.7978H67.9435V40.8013H73.6055C74.8323 40.8013 75.5872 41.7307 75.5872 42.846C75.5872 43.9613 74.8323 44.7978 73.6055 44.7978ZM149.287 26.2095L168.255 67.6613H248.089L267.056 26.2095H149.287Z" fill="black"/>
<path d="M231.575 40.5225H224.025V34.5742H246.673V40.5225H239.124V59.2036H231.575V40.5225ZM175.049 34.5742H189.959C195.149 34.5742 197.414 38.013 197.414 40.8942C197.414 43.9613 195.527 46.006 193.168 46.5636C195.904 46.9354 197.886 49.4448 197.886 52.6048C197.886 56.0436 195.527 59.2966 190.525 59.2966H175.144V34.5742H175.049ZM187.977 43.9613C188.921 43.9613 189.77 43.1248 189.77 42.0095C189.77 40.9872 188.921 40.2436 187.977 40.2436H182.504V43.9613H187.977ZM188.166 53.5342C189.393 53.5342 190.148 52.6978 190.148 51.5825C190.148 50.4672 189.393 49.5378 188.166 49.5378H182.504V53.5342H188.166ZM201.755 34.5742H220.817V40.5225H209.399V43.8683H220.534V49.6307H209.399V53.2554H220.817V59.2036H201.849V34.5742H201.755Z" fill="#FCEE21"/>
</svg>
