<svg width="196" height="35" viewBox="0 0 196 35" fill="none" xmlns="http://www.w3.org/2000/svg">
<path fill-rule="evenodd" clip-rule="evenodd" d="M115.441 30.484L101.772 0L0 0V30.484H115.441Z" fill="#FCEE21"/>
<path d="M5.83008 14.6773C5.83008 20.0269 10.1854 23.7096 15.8385 23.7096C20.8428 23.7096 23.3477 20.9908 24.3639 18.6234L19.5482 16.5187C18.9765 18.0288 17.4432 19.0197 15.7488 18.9741C14.5735 18.9613 13.4546 18.4958 12.6501 17.6849C11.8457 16.8741 11.4252 15.788 11.4857 14.6773C11.4252 13.5666 11.8457 12.4805 12.6501 11.6697C13.4546 10.8589 14.5735 10.3933 15.7488 10.3805C17.4412 10.3373 18.9714 11.3278 19.5425 12.8359L24.3582 10.7312C23.2514 8.36382 20.8428 5.64502 15.8385 5.64502C10.1854 5.64502 5.83008 9.24048 5.83008 14.6773ZM87.0078 17.5714H88.9537L91.5484 23.3589H97.8496L94.5138 17.2208C96.7023 16.3131 98.0678 14.2174 97.9419 11.9593C97.9419 8.71526 95.6254 5.99646 91.3623 5.99646H81.4477V23.3597H87.0078V17.5714ZM63.655 5.9084V23.2709H77.6483V19.0614H69.3081V16.5187H77.463V12.4853H69.3081V10.1171H77.6483V5.90763L63.655 5.9084ZM44.0095 5.9084V23.2709H55.3149C59.0213 23.2709 60.7836 20.9908 60.7836 18.5354C60.9065 16.4726 59.4043 14.6394 57.2624 14.2386C59.1836 13.8183 60.5107 12.1561 60.413 10.2925C60.413 8.27577 58.7446 5.82035 54.9443 5.82035H44.007L44.0095 5.9084ZM42.8978 5.9084H36.5966L33.2607 11.784L29.8326 5.9084H23.4375L30.2938 16.5195V23.3597H35.9485V16.5187L42.8978 5.9084ZM53.4621 12.5733H49.4773V9.94181H53.4621C54.2025 9.96739 54.782 10.5541 54.7591 11.2549C54.7872 11.5961 54.6629 11.9328 54.4164 12.1832C54.1699 12.4337 53.8237 12.5749 53.4621 12.5726V12.5733ZM90.3437 10.2021C90.8108 10.1788 91.2685 10.332 91.6161 10.6281C91.9638 10.9242 92.1729 11.3389 92.1973 11.7809C92.1878 12.2278 91.9831 12.6511 91.6319 12.9502C91.2808 13.2493 90.8144 13.3975 90.3437 13.3596H87.0078V10.2021H90.3437ZM53.6474 19.3248H49.4773V16.5187H53.6474C54.4527 16.5366 55.0956 17.1595 55.0956 17.9217C55.0956 18.684 54.4527 19.3069 53.6474 19.3248Z" fill="black"/>
<path fill-rule="evenodd" clip-rule="evenodd" d="M109.61 5.64502L123.498 35H182.012L195.9 5.64502H109.61Z" fill="black"/>
<path d="M170.802 15.6701H165.249V11.2905H181.907V15.6701H176.354V29.3551H170.802V15.6701ZM129.434 11.2905H140.356C144.151 11.2905 145.818 13.7535 145.818 15.9433C145.915 17.8822 144.59 19.6116 142.671 20.0488C144.779 20.4542 146.271 22.3134 146.188 24.4283C146.188 26.9829 144.43 29.3551 140.82 29.3551H129.527V11.2905H129.434ZM138.874 18.2247C139.629 18.1525 140.197 17.5124 140.169 16.7645C140.154 16.0656 139.583 15.5026 138.874 15.4877H134.895V18.2247H138.874ZM139.059 25.2496C139.596 25.262 140.098 24.9866 140.37 24.5298C140.643 24.0731 140.643 23.5067 140.37 23.05C140.098 22.5932 139.596 22.3177 139.059 22.3302H134.895V25.2496H139.059H139.059ZM148.961 11.2905H162.843V15.6701H154.514V18.1331H162.658V22.3302H154.514V24.9756H162.843V29.3551H148.961V11.2905Z" fill="#FCEE21"/>
</svg>
