<svg width="42" height="34" viewBox="0 0 42 34" fill="none" xmlns="http://www.w3.org/2000/svg">
<g clip-path="url(#clip0)">
<path d="M31.5041 6.375H10.4995C8.76831 6.37475 7.06387 6.80767 5.53797 7.63523C4.01207 8.46278 2.71206 9.65929 1.75368 11.1182C0.795306 12.5772 0.208295 14.2533 0.0449121 15.9973C-0.118471 17.7413 0.146845 19.4992 0.817237 21.1143C1.48763 22.7295 2.5423 24.1519 3.88735 25.2548C5.23239 26.3578 6.82608 27.1071 8.52653 27.436C10.227 27.765 11.9814 27.6633 13.6337 27.1402C15.2859 26.617 16.7847 25.6886 17.9965 24.4375H24.0026C25.2143 25.6884 26.7129 26.6168 28.3649 27.14C30.0169 27.6632 31.7711 27.765 33.4714 27.4362C35.1717 27.1075 36.7653 26.3585 38.1104 25.2559C39.4555 24.1533 40.5103 22.7313 41.181 21.1165C41.8516 19.5016 42.1174 17.7441 41.9545 16.0002C41.7916 14.2563 41.2051 12.5802 40.2473 11.1211C39.2895 9.66204 37.9901 8.4652 36.4647 7.63715C34.9393 6.8091 33.2352 6.37552 31.5041 6.375ZM16.2745 17.7969C16.2745 18.0082 16.1916 18.2109 16.0439 18.3604C15.8962 18.5098 15.6959 18.5938 15.4871 18.5938H12.0745V22.0469C12.0745 22.2582 11.9916 22.4609 11.8439 22.6104C11.6962 22.7598 11.4959 22.8438 11.287 22.8438H9.71205C9.50319 22.8438 9.30289 22.7598 9.1552 22.6104C9.00752 22.4609 8.92455 22.2582 8.92455 22.0469V18.5938H5.51205C5.30319 18.5938 5.10289 18.5098 4.9552 18.3604C4.80752 18.2109 4.72455 18.0082 4.72455 17.7969V16.2031C4.72455 15.9918 4.80752 15.7891 4.9552 15.6396C5.10289 15.4902 5.30319 15.4062 5.51205 15.4062H8.92455V11.9531C8.92455 11.7418 9.00752 11.5391 9.1552 11.3896C9.30289 11.2402 9.50319 11.1562 9.71205 11.1562H11.287C11.4959 11.1562 11.6962 11.2402 11.8439 11.3896C11.9916 11.5391 12.0745 11.7418 12.0745 11.9531V15.4062H15.4871C15.6959 15.4062 15.8962 15.4902 16.0439 15.6396C16.1916 15.7891 16.2745 15.9918 16.2745 16.2031V17.7969ZM30.4496 22.8438C29.9304 22.8438 29.4229 22.688 28.9912 22.3961C28.5595 22.1042 28.223 21.6894 28.0244 21.204C27.8257 20.7186 27.7737 20.1846 27.875 19.6693C27.9763 19.154 28.2263 18.6807 28.5934 18.3092C28.9605 17.9378 29.4282 17.6848 29.9374 17.5823C30.4466 17.4798 30.9744 17.5324 31.4541 17.7334C31.9338 17.9345 32.3437 18.2749 32.6322 18.7118C32.9206 19.1486 33.0746 19.6621 33.0746 20.1875C33.0746 20.892 32.798 21.5676 32.3057 22.0658C31.8134 22.5639 31.1457 22.8438 30.4496 22.8438ZM34.6496 16.4688C34.1304 16.4688 33.6229 16.313 33.1912 16.0211C32.7595 15.7292 32.423 15.3144 32.2244 14.829C32.0257 14.3436 31.9737 13.8096 32.075 13.2943C32.1763 12.779 32.4263 12.3057 32.7934 11.9342C33.1605 11.5628 33.6282 11.3098 34.1374 11.2073C34.6466 11.1048 35.1744 11.1574 35.6541 11.3584C36.1338 11.5595 36.5437 11.8999 36.8322 12.3368C37.1206 12.7736 37.2746 13.2871 37.2746 13.8125C37.2746 14.517 36.998 15.1926 36.5057 15.6908C36.0134 16.1889 35.3457 16.4688 34.6496 16.4688Z" fill="black"/>
</g>
<defs>
<clipPath id="clip0">
<rect width="42" height="34" fill="white"/>
</clipPath>
</defs>
</svg>
