<svg width="318" height="75" viewBox="0 0 318 75" fill="none" xmlns="http://www.w3.org/2000/svg">
<path d="M177.14 2.23128C177.821 1.63728 178.64 1.22477 179.523 1.03201C180.405 0.839242 181.322 0.872465 182.189 1.12859C182.849 1.38868 183.473 1.73025 184.049 2.14538C184.564 2.38383 185.067 2.64942 185.555 2.94101C185.776 3.11769 185.598 3.42839 185.598 3.6477C186.258 4.99386 186.4 6.53528 185.998 7.97924C185.598 8.46661 184.89 8.5982 184.314 8.81995C184.3 9.43142 184.375 10.0417 184.536 10.6318C184.403 10.7201 184.314 10.8084 184.181 10.8968C185.032 10.8289 185.876 10.6959 186.706 10.499C187.016 10.1895 187.503 10.3668 187.901 10.3223C187.946 9.70332 188.168 9.12883 188.168 8.50986C188.29 8.50159 188.41 8.47168 188.521 8.42153C188.522 8.86691 188.566 9.31116 188.654 9.74779C188.876 9.92446 189.23 9.83613 189.496 9.87999C189.488 10.058 189.503 10.2363 189.54 10.4106C194.677 10.3668 199.858 10.4106 204.996 10.4106V11.1618H205.483V8.28872H206.059C206.059 9.08496 206.015 9.83613 206.059 10.6318C206.12 10.6871 206.199 10.7185 206.281 10.7201C206.281 10.8084 206.325 10.9851 206.325 11.0734C206.402 10.9757 206.506 10.9027 206.624 10.8634C206.742 10.8241 206.869 10.8202 206.989 10.8523C207.033 10.9851 207.078 11.1179 207.122 11.2946C207.03 11.3749 206.964 11.4809 206.932 11.5989C206.901 11.717 206.905 11.8418 206.945 11.9574C208.362 12.0019 209.779 11.9574 211.24 11.9574C211.397 11.79 211.596 11.6679 211.816 11.6041C211.911 11.6524 212 11.7117 212.082 11.7807H214.163C214.243 12.1137 214.258 12.4589 214.207 12.7975H212.082C212.003 12.8818 211.913 12.9561 211.816 13.0187C211.595 12.8859 211.418 12.7975 211.196 12.6653H207.343C206.589 12.8564 205.801 12.8714 205.04 12.7092V13.5487H198.707C198.459 13.7683 198.15 13.9071 197.821 13.9465C197.955 14.6093 197.202 14.7866 196.936 15.2728C196.764 15.5225 196.515 15.7088 196.227 15.8028C196.006 17.1735 196.493 18.4547 196.847 19.7365C196.449 19.8255 196.006 19.9577 195.607 20.046C195.379 20.9395 195.173 21.8383 194.987 22.7424C194.887 23.1383 194.694 23.5048 194.424 23.8119C194.155 24.119 193.817 24.3579 193.437 24.5091C193.192 24.8492 192.882 25.1373 192.524 25.3569C192.167 25.5765 191.77 25.7232 191.356 25.7885C191.046 25.8768 190.824 25.6557 190.603 25.479C189.496 25.5673 188.477 25.0373 187.503 24.595C186.44 24.1076 185.466 23.4899 184.447 22.9154C184.458 23.5055 184.305 24.087 184.005 24.595C184.492 24.8162 185.156 24.9928 185.422 25.5235C185.632 25.9354 185.753 26.3872 185.776 26.8491C185.732 28.4404 185.555 30.0317 185.466 31.6229C185.452 32.8027 184.975 33.9298 184.138 34.7604C183.625 34.6859 183.13 34.5209 182.675 34.273C182.498 34.6708 182.1 35.0687 182.321 35.5524C182.422 36.1381 182.57 36.7147 182.764 37.2765C184.283 38.8474 185.539 40.6532 186.484 42.6242C187.414 44.5249 188.122 46.514 188.875 48.5031C189.008 48.5031 189.274 48.4586 189.407 48.4586C189.584 49.0331 189.407 49.696 189.761 50.2254C189.991 50.7376 190.068 51.3055 189.982 51.8605C189.894 53.1868 189.805 54.5124 189.672 55.8387C189.584 56.7665 189.362 57.695 189.229 58.6228C189.376 59.3231 189.48 60.0317 189.539 60.7447C189.495 61.4075 189.495 62.1148 188.964 62.601C189.008 64.1039 188.61 65.6069 189.141 67.0653C189.851 68.0387 190.636 68.9553 191.488 69.8068C192.418 70.2491 193.525 70.3374 194.322 71.1331C194.537 71.6389 194.552 72.2069 194.366 72.7237C192.471 72.9894 190.549 72.9894 188.654 72.7237C187.927 72.4911 187.188 72.2993 186.44 72.1492C185.421 72.1937 184.225 72.5915 183.295 71.8842C183.207 70.6908 183.65 69.5418 183.871 68.3922C183.96 67.9944 184.359 67.7294 184.314 67.3316C184.225 65.9614 184.137 64.5468 184.048 63.1767C183.871 63.0884 183.561 63 183.605 62.735C183.562 62.0716 183.428 61.4172 183.207 60.7904C182.91 59.0967 182.748 57.3824 182.719 55.6632C182.72 55.4355 182.778 55.2116 182.886 55.0111C182.994 54.8106 183.149 54.6398 183.339 54.5136C183.428 53.7625 183.516 52.9668 183.561 52.2157C183.38 51.8471 183.173 51.4924 182.94 51.1544C182.144 51.2428 180.991 51.42 180.504 50.5799C179.352 48.8558 178.156 47.0885 177.005 45.365C176.485 45.3952 175.965 45.2883 175.499 45.0549C175.037 44.4804 174.664 43.8397 174.392 43.1542C174.309 43.6977 174.129 44.2219 173.861 44.7016C173.545 45.1049 173.205 45.4886 172.842 45.8506C172.532 46.5579 172.266 47.2652 172.001 47.9725C171.607 48.8478 171.325 49.7687 171.159 50.714C171.125 51.1835 171.02 51.6453 170.849 52.0841C170.593 52.392 170.255 52.6217 169.875 52.7469C169.666 53.3261 169.383 53.8759 169.033 54.3827C168.768 54.6915 168.325 54.7805 168.147 55.1783C167.953 55.6904 167.731 56.1919 167.483 56.6806C167.394 57.2106 167.749 57.7857 167.572 58.3164C167.198 59.6298 166.662 60.8917 165.977 62.0734C165.719 62.9803 165.393 63.8667 165.003 64.7253C164.891 64.879 164.745 65.0036 164.575 65.0884C164.405 65.1733 164.218 65.2159 164.028 65.2127C163.593 66.159 163.223 67.1335 162.92 68.1296C162.802 69.1121 162.773 70.1032 162.832 71.091C162.893 71.5159 163.044 71.9228 163.275 72.2845C163.393 72.8103 163.378 73.3574 163.23 73.8758C161.503 74.0969 159.732 74.2736 158.049 73.743C157.872 73.6108 157.916 73.3896 157.872 73.2129C157.687 72.4261 157.702 71.6054 157.916 70.826C158.492 68.7486 158.979 66.6712 159.555 64.5937C159.333 64.3726 159.023 64.1959 159.023 63.8426C158.98 63.2503 159.024 62.6549 159.156 62.0758C159.422 61.1011 160.131 60.3518 160.485 59.4239C160.573 59.032 160.617 58.6316 160.618 58.2299C160.618 57.302 161.149 56.5509 161.548 55.7552C161.893 55.0658 162.308 54.4141 162.788 53.8106C163.142 53.5011 163.142 53.015 163.408 52.6165C163.673 52.1292 164.116 51.7332 164.116 51.1581C164.205 50.4514 163.939 49.7441 164.028 49.0368C164.205 46.9594 164.604 44.9264 164.958 42.849C164.732 42.6366 164.551 42.3809 164.426 42.0972C164.47 41.8767 164.515 41.6994 164.559 41.4788L164.161 40.8154C164.337 40.5504 164.515 40.2409 164.692 39.9759C164.515 39.8431 164.294 39.6664 164.116 39.5336C164.337 38.8708 164.249 37.8985 165.046 37.589C165.135 37.6335 165.356 37.6773 165.445 37.7218C165.312 36.5722 165.312 35.3788 165.179 34.2298C164.885 33.0002 164.81 31.7284 164.958 30.4727C165.201 30.1667 165.511 29.92 165.864 29.7512C166.217 29.5823 166.604 29.4958 166.995 29.498C166.02 29.2768 165.045 29.1885 164.116 28.879C164.102 28.0779 164.176 27.2776 164.337 26.4927C164.736 24.9453 164.559 23.3546 164.78 21.7634C164.92 21.5637 165.12 21.4135 165.351 21.3341C165.581 21.2546 165.831 21.2501 166.065 21.3211C166.653 21.3634 167.243 21.2728 167.792 21.0561C167.814 20.821 167.814 20.5844 167.792 20.3494C167.482 18.8177 167.482 17.2395 167.792 15.7078C168.083 13.7348 168.998 11.9071 170.405 10.4929C171.423 9.58026 172.759 9.10399 174.124 9.1666C174.567 9.1666 174.833 9.60828 175.188 9.87329C175.362 9.70775 175.525 9.53068 175.675 9.34327C175.371 8.5994 175.193 7.80994 175.15 7.00753C175.157 5.21519 175.872 3.49836 177.14 2.23128ZM191.577 14.828C191.675 15.1177 191.659 15.4336 191.533 15.712C191.291 15.7654 191.054 15.8394 190.824 15.9332C191.445 15.9332 192.064 15.9776 192.684 15.9332C193.172 15.8004 192.994 15.182 192.994 14.828C192.684 14.4747 192.02 14.6958 191.577 14.828ZM190.027 16.6843C190.47 17.1717 190.692 17.9223 191.09 18.4084C191.601 17.6347 192.163 16.8963 192.773 16.1982C191.976 16.1543 191.179 16.2427 190.381 16.1543C190.249 16.3334 190.16 16.5101 190.027 16.6868V16.6843ZM315.531 39.8474C315.76 39.7547 316.005 39.7099 316.252 39.7158C316.499 39.7217 316.742 39.7782 316.966 39.8818C317.19 39.9854 317.391 40.1338 317.556 40.318C317.72 40.5021 317.845 40.7181 317.923 40.9525C318.055 41.3865 318.016 41.8549 317.813 42.2606C317.609 42.6664 317.258 42.9783 316.831 43.1318C316.404 43.2853 315.934 43.2685 315.519 43.0849C315.104 42.9014 314.775 42.5651 314.601 42.1459C314.433 41.7166 314.436 41.2391 314.609 40.8116C314.782 40.3841 315.112 40.0391 315.531 39.8474ZM315.265 40.3774C315.1 40.5309 314.971 40.7198 314.888 40.9301C314.806 41.1403 314.772 41.3665 314.789 41.5917C314.806 41.8169 314.874 42.0353 314.987 42.2308C315.1 42.4262 315.256 42.5936 315.443 42.7204C315.697 42.8687 315.984 42.9504 316.278 42.9582C316.572 42.966 316.864 42.8995 317.125 42.7649C316.82 42.4108 316.553 42.0255 316.328 41.6153C316.194 41.6225 316.059 41.6076 315.929 41.5714C315.886 41.9248 316.063 42.3671 315.708 42.5876C315.634 41.8831 315.605 41.1746 315.62 40.4663C316.063 40.4663 316.639 40.2896 316.992 40.643C317.045 40.7306 317.077 40.8293 317.084 40.9313C317.092 41.0332 317.076 41.1355 317.037 41.2302C316.999 41.3248 316.939 41.4091 316.862 41.4764C316.785 41.5437 316.693 41.5921 316.594 41.6177C316.771 41.8389 316.904 42.1051 317.081 42.325L317.17 42.1039C317.159 42.298 317.129 42.4906 317.081 42.679C317.255 42.5596 317.401 42.4047 317.51 42.2245C317.619 42.0443 317.688 41.843 317.714 41.634C317.739 41.4249 317.719 41.2129 317.656 41.012C317.593 40.8111 317.488 40.6259 317.348 40.4688C317.078 40.1911 316.711 40.0273 316.324 40.0109C315.937 39.9945 315.559 40.1267 315.266 40.3804L315.265 40.3774ZM315.886 40.6875V41.3942C316.196 41.3503 316.815 41.4831 316.815 40.997C316.727 40.5991 316.151 40.7338 315.886 40.6875ZM0 44.0906C0.0621531 42.9999 0.526877 41.9712 1.30415 41.2036C2.08142 40.436 3.11592 39.9842 4.20725 39.9357H15.588C16.671 39.9776 17.7012 40.4143 18.4844 41.1634C19.2676 41.9125 19.7497 42.9222 19.8398 44.0022H4.87373V53.9934H19.8422C19.7989 54.7045 19.5825 55.3942 19.212 56.0027C18.8414 56.6112 18.3279 57.1199 17.716 57.4848C16.974 57.9062 16.1323 58.12 15.2792 58.1038H4.16278C3.08075 58.0527 2.05727 57.5975 1.2947 56.8281C0.532134 56.0588 0.0859869 55.0313 0.0444728 53.9489C0 50.6762 0 47.4053 0 44.0906ZM25.4196 40.1124C25.9262 39.986 26.4473 39.9266 26.9694 39.9357H38.4836C39.5539 39.9992 40.5638 40.4525 41.3226 41.21C42.0814 41.9674 42.5365 42.9765 42.6019 44.0467V53.9032C42.5466 55.0079 42.0795 56.0517 41.2925 56.8289C40.5056 57.6062 39.4561 58.0603 38.3508 58.1019H26.3937C25.3117 58.0508 24.2882 57.5956 23.5256 56.8263C22.7631 56.057 22.3169 55.0295 22.2754 53.9471V44.2234C22.2647 43.2854 22.5685 42.3708 23.1384 41.6258C23.7083 40.8807 24.5115 40.3481 25.4196 40.113V40.1124ZM26.6593 43.9139V54.2584H38.1297V43.9139H26.6593ZM45.9234 53.2836V39.9357C46.5986 39.9419 47.2637 40.1002 47.8694 40.3986C48.4751 40.6971 49.0058 41.1281 49.4221 41.6598C49.9887 42.4149 50.313 43.324 50.3524 44.2672V54.2584C54.1606 54.2139 57.9676 54.2584 61.8221 54.2584V39.9802H66.2505V53.9922C66.2001 55.0834 65.7463 56.117 64.9772 56.8927C64.2081 57.6685 63.1784 58.1311 62.0877 58.1909C58.1461 58.2353 54.2044 58.1909 50.2634 58.1909C49.3914 58.1794 48.5416 57.914 47.8181 57.4271C47.0945 56.9402 46.5286 56.2529 46.1896 55.4494C45.9895 54.7456 45.8997 54.015 45.9234 53.2836ZM70.0148 39.9357C72.4578 39.7193 74.8887 40.4646 76.7905 42.0131C80.3331 45.3723 83.9184 48.6877 87.4628 52.0043V44.4C87.4503 43.6017 87.6536 42.8148 88.0512 42.1225C88.4488 41.4301 89.026 40.8579 89.7218 40.4663C90.3878 40.1016 91.1326 39.9044 91.8918 39.8918C91.9357 45.9474 91.8918 52.0463 91.8918 58.1019H87.5956L74.4432 45.6374V58.1019H70.0148V39.9357ZM93.2644 43.9139C93.2644 41.8809 94.947 39.8931 97.0726 39.9802H113.948C113.923 41.0106 113.53 41.9981 112.841 42.7643C112.456 43.143 111.999 43.44 111.496 43.6375C110.994 43.8351 110.456 43.9291 109.917 43.9139H105.754V58.1464H101.281V43.9139H93.2644ZM115.495 39.9802H133.209C133.219 40.5096 133.121 41.0355 132.921 41.5259C132.722 42.0163 132.424 42.461 132.047 42.833C131.67 43.205 131.222 43.4965 130.729 43.6899C130.236 43.8832 129.709 43.9743 129.18 43.9577H119.968V47.0964H131.172C131.172 47.8794 130.946 48.6457 130.522 49.304C130.098 49.9623 129.494 50.4847 128.781 50.809C128.231 51.0222 127.644 51.1273 127.054 51.1185H120.013V54.2584H133.342C133.348 55.2523 132.977 56.2114 132.303 56.9417C131.628 57.672 130.702 58.1189 129.711 58.1921H115.54C115.54 52.0926 115.495 46.037 115.495 39.982V39.9802ZM135.955 39.9802H149.285C150.835 40.024 152.562 40.2013 153.758 41.3058C154.909 42.4554 155.042 44.2234 155.042 45.7702C154.998 47.0964 155.042 48.4666 154.511 49.66C153.758 50.8592 152.566 51.7159 151.189 52.0463C153.139 54.2566 155.042 56.5107 156.99 58.7209H152.252C151.783 58.7631 151.311 58.6871 150.879 58.4997C150.432 58.1859 150.043 57.7972 149.728 57.3508C147.337 54.4332 144.989 51.4718 142.6 48.5549H148.623C149.21 48.5986 149.793 48.4252 150.261 48.0675C150.521 47.454 150.627 46.7863 150.571 46.1223C150.526 45.5478 150.615 44.8856 150.217 44.3988C149.744 44.0932 149.184 43.9532 148.623 44.001H140.428V58.2347C138.922 58.2786 137.461 58.2347 135.955 58.2347C135.911 52.0908 135.955 46.0352 135.955 39.9802Z" fill="white"/>
</svg>
