<svg width="174" height="31" viewBox="0 0 174 31" fill="none" xmlns="http://www.w3.org/2000/svg">
<path fill-rule="evenodd" clip-rule="evenodd" d="M102.248 27L90.1405 0L0 0V27H102.248Z" fill="#FCEE21"/>
<path d="M5.16357 13C5.16357 17.7382 9.02114 21 14.0282 21C18.4605 21 20.6792 18.5919 21.5792 16.4951L17.3139 14.6309C16.8075 15.9685 15.4495 16.8461 13.9487 16.8057C12.9077 16.7944 11.9167 16.382 11.2042 15.6639C10.4916 14.9457 10.1192 13.9838 10.1728 13C10.1192 12.0162 10.4916 11.0543 11.2042 10.3361C11.9167 9.61797 12.9077 9.20564 13.9487 9.19429C15.4476 9.15604 16.803 10.0333 17.3088 11.3691L21.5742 9.50488C20.5939 7.40807 18.4605 5 14.0282 5C9.02114 5 5.16357 8.18454 5.16357 13ZM77.0636 15.5634H78.7871L81.0853 20.6894H86.6663L83.7117 15.2528C85.6501 14.4488 86.8595 12.5926 86.748 10.5926C86.748 7.71934 84.6963 5.31127 80.9204 5.31127H72.139V20.6901H77.0636V15.5634ZM56.3798 5.23328V20.6114H68.7737V16.883H61.3868V14.6309H68.6096V11.0585H61.3868V8.96101H68.7737V5.2326L56.3798 5.23328ZM38.9795 5.23328V20.6114H48.9928C52.2757 20.6114 53.8365 18.5919 53.8365 16.4171C53.9453 14.5901 52.6148 12.9665 50.7177 12.6114C52.4193 12.2392 53.5948 10.767 53.5083 9.1163C53.5083 7.33008 52.0306 5.15529 48.6646 5.15529H38.9773L38.9795 5.23328ZM37.9948 5.23328H32.4138L29.4592 10.4373L26.4229 5.23328H20.7587L26.8313 14.6316V20.6901H31.8398V14.6309L37.9948 5.23328ZM47.3518 11.1365H43.8224V8.80571H47.3518C48.0075 8.82837 48.5208 9.34802 48.5005 9.9687C48.5254 10.2709 48.4153 10.5692 48.197 10.791C47.9787 11.0128 47.6721 11.1379 47.3518 11.1358V11.1365ZM80.0182 9.03626C80.4319 9.01558 80.8373 9.1513 81.1452 9.41355C81.4532 9.67581 81.6383 10.0431 81.66 10.4346C81.6515 10.8305 81.4702 11.2054 81.1592 11.4703C80.8482 11.7352 80.4352 11.8665 80.0182 11.8329H77.0636V9.03626H80.0182ZM47.5159 17.1163H43.8224V14.6309H47.5159C48.2291 14.6468 48.7986 15.1985 48.7986 15.8736C48.7986 16.5488 48.2291 17.1005 47.5159 17.1163Z" fill="black"/>
<path fill-rule="evenodd" clip-rule="evenodd" d="M97.0835 5L109.384 31H161.211L173.511 5H97.0835Z" fill="black"/>
<path d="M151.281 13.879H146.363V10H161.117V13.879H156.199V26H151.281V13.879ZM114.641 10H124.316C127.676 10 129.153 12.1815 129.153 14.121C129.239 15.8383 128.065 17.37 126.366 17.7573C128.232 18.1163 129.555 19.7631 129.481 21.6363C129.481 23.8989 127.923 26 124.726 26H114.723V10H114.641ZM123.002 16.1416C123.672 16.0777 124.174 15.5108 124.149 14.8484C124.136 14.2293 123.63 13.7306 123.002 13.7174H119.478V16.1416H123.002ZM123.166 22.3637C123.642 22.3747 124.087 22.1307 124.328 21.7262C124.569 21.3216 124.569 20.82 124.328 20.4155C124.087 20.0109 123.642 19.7669 123.166 19.7779H119.478V22.3637H123.167H123.166ZM131.937 10H144.232V13.879H136.855V16.0605H144.068V19.7779H136.855V22.121H144.232V26H131.937V10Z" fill="#FCEE21"/>
</svg>
