<?xml version="1.0" standalone="no"?>
<!DOCTYPE svg PUBLIC "-//W3C//DTD SVG 20010904//EN"
 "http://www.w3.org/TR/2001/REC-SVG-20010904/DTD/svg10.dtd">
<svg version="1.0" xmlns="http://www.w3.org/2000/svg"
 width="310.000000pt" height="310.000000pt" viewBox="0 0 310.000000 310.000000"
 preserveAspectRatio="xMidYMid meet">
<metadata>
Created by potrace 1.11, written by Peter Selinger 2001-2013
</metadata>
<g transform="translate(0.000000,310.000000) scale(0.100000,-0.100000)"
fill="#000000" stroke="none">
<path d="M1354 2980 c-34 -5 -95 -20 -135 -34 -41 -14 -108 -32 -149 -41 -43
-9 -93 -28 -120 -45 -25 -15 -70 -39 -100 -53 -30 -13 -64 -34 -75 -47 -11
-12 -36 -30 -55 -40 -19 -10 -46 -30 -60 -45 -14 -15 -51 -42 -82 -61 -42 -26
-66 -50 -92 -92 -19 -31 -46 -68 -61 -82 -15 -14 -35 -41 -45 -60 -10 -19 -28
-44 -40 -55 -13 -11 -34 -45 -47 -75 -14 -30 -38 -75 -53 -100 -17 -27 -36
-77 -45 -120 -9 -41 -27 -108 -41 -147 -31 -91 -43 -186 -43 -333 0 -147 12
-242 43 -333 14 -39 32 -106 41 -147 9 -43 28 -93 45 -120 15 -25 39 -70 53
-100 13 -30 34 -64 47 -75 12 -11 30 -36 40 -55 10 -19 30 -46 45 -60 15 -14
42 -51 61 -82 26 -42 50 -66 92 -92 31 -19 68 -46 82 -61 14 -15 41 -35 60
-45 19 -10 44 -28 55 -40 11 -13 45 -34 75 -47 30 -14 75 -38 100 -53 27 -17
77 -36 120 -45 41 -9 108 -27 147 -41 91 -31 186 -43 333 -43 147 0 242 12
333 43 39 14 106 32 147 41 43 9 93 28 120 45 25 15 70 39 100 53 30 13 64 34
75 47 11 12 36 30 55 40 19 10 46 30 60 45 14 15 51 42 82 61 42 26 66 50 92
92 19 31 46 68 61 82 15 14 35 41 45 60 10 19 28 44 40 55 13 11 34 45 47 75
14 30 38 75 53 100 17 27 36 77 45 120 9 41 27 108 41 148 35 102 47 222 41
397 -5 122 -11 167 -32 240 -15 50 -36 126 -46 170 -11 44 -33 100 -49 125
-16 25 -37 69 -48 98 -11 29 -34 69 -52 90 -35 42 -85 106 -133 172 -40 56
-61 77 -117 117 -66 48 -130 98 -172 133 -21 18 -61 41 -90 52 -29 11 -73 32
-98 48 -25 16 -81 38 -125 49 -44 10 -120 31 -170 46 -80 24 -110 27 -265 30
-96 2 -203 0 -236 -5z m326 -684 c90 -22 244 -90 290 -127 54 -44 155 -145
199 -199 37 -46 105 -200 127 -290 18 -70 18 -190 0 -260 -22 -90 -90 -244
-127 -290 -44 -54 -145 -155 -199 -199 -46 -37 -200 -105 -290 -127 -70 -18
-190 -18 -260 0 -90 22 -244 90 -290 127 -54 44 -155 145 -199 199 -37 46
-105 200 -127 290 -18 70 -18 190 0 260 22 90 90 244 127 290 44 54 145 155
199 199 44 36 198 104 285 126 67 18 197 18 265 1z"/>
</g>
</svg>
