<svg xmlns="http://www.w3.org/2000/svg" width="115" height="115" fill="none" viewBox="0 0 115 115">
    <g clip-path="url(#a)">
        <path fill="#FCEE21" d="M56.868 0C44.071.084 31.42 4.646 21.481 12.668l10.86 12.609c9.166-7.234 21.516-10.181 32.97-7.904 6.295 1.211 12.285 3.975 17.34 7.904l10.86-12.61C83.23 4.372 70.104-.197 56.867.002z"/>
        <path fill="#fff" d="M17.945 15.765C6.502 26.515-.207 42.143.005 57.907c.007 16.363 7.47 32.436 19.867 43.067 11.458 10.021 27.041 15.126 42.255 13.834 16.485-1.227 32.132-10.032 41.805-23.41 9.416-12.713 13.105-29.478 9.979-45.025-2.297-11.9-8.537-22.93-17.41-31.127L85.64 27.855c8.75 8.248 13.528 20.423 12.628 32.434a40.584 40.584 0 0 1-5.044 17.05L71.093 55.963l-11.167-24.07-.016 36.45 22.366 21.645c-9.967 7.743-23.642 10.312-35.76 6.88a40.55 40.55 0 0 1-13.668-6.785l22.519-21.74c-.04-11.85.137-24.643 0-36.49l-11.184 24.11-22.322 21.555c-6.81-11.888-6.973-27.257-.418-39.278 2.049-3.85 4.761-7.365 7.907-10.384l-10.86-12.61-.545.52z"/>
    </g>
    <defs>
        <clipPath id="a">
            <path fill="#fff" d="M0 0h115v115H0z"/>
        </clipPath>
    </defs>
</svg>
