<svg xmlns="http://www.w3.org/2000/svg" width="171" height="191" fill="none" viewBox="0 0 171 191">
    <g fill-rule="evenodd" clip-path="url(#a)" clip-rule="evenodd">
        <path fill="#fff" d="M7.952 165.966l.133 21.071c2.29 4.154 12.614 1.948 14.675-3.103 2.388-5.88 2.562-19.181-14.798-17.961l-.01-.007zM0 163.988v.776s3.051-.466 3.569 1.503c.05 1.294-.077 21.833-.077 21.833s-.156 1.867-2.898 1.787c.02.125.02.251 0 .376 0 0 6.713-.154 9.713.389 21.768 3.936 23.907-26.315 6.057-26.497L0 163.988zM51.712 165.212c5.774-.389 10.715 5.491 10.715 11.444.128 6.135-1.454 12.007-7.513 12.576-5.05 0-10.2-2.412-11.39-11.939 0-5.953 1.428-11.624 8.197-12.081h-.01zm1.19-1.742c7.428 0 14.549 4.478 14.549 13.233s-6.916 14.169-14.342 14.169-14.442-4.766-14.442-13.53 6.797-13.882 14.226-13.882l.009.01zM77.043 163.535l-.801 3.653s-.284.725.051 1.917c.31-.828.361-2.122 2.2-2.848 1.863-.077 7.344-.077 7.344-.077l-.103 22.067s-.04 1.944-2.781 1.685c-.026.324-.026.401-.026.401l11.225-.051-.014-.416s-3.494.506-3.673-1.605c-.026-1.112-.207-22.078-.207-22.078l6.466.156s2.224.051 2.199 2.771c.31.182.491-.077.517-.389.026-.313.13-3.705.13-3.705s.543-1.166-.156-1.269a6.619 6.619 0 0 1-1.94.362l-18.751-.026a4.874 4.874 0 0 0-1.682-.543l.002-.005zM119.521 170.626l-4.658 12.018 8.949-.102-4.293-11.913.002-.003zm.583-7.194l-10.035 24.708s-1.023 2.06-3.827 1.866c0 .22-.014.336-.014.336l9.168.014-.026-.478s-2.96.233-2.562-1.243c.361-1.244 1.435-4.223 1.435-4.223l10.268.026 2.017 4.791s.233.57-.724.621v.408l9.154.128-.026-.594s-2.199.62-3.414-1.062c-.907-1.528-2.199-4.325-2.199-4.325s1.397.129 2.199-.361a11.187 11.187 0 0 1 4.111-.777c.233-.284-.051-.595-.725-.648-.673-.054-6.335-.052-6.335-.052l-7.687-19.048s-.415-1.244-.764-.098l-.014.011zM154.902 170.78s-.827-4.558-.62-5.645c7.009-4.117 22.448-.623 12.467 13.674-1.034 1.295-5.069 5.646-9.001 8.547 2.863.047 7.965-.149 9.159-.196 3.131-.123 3.029-3.867 4.095-3.895l-.931 5.503s-.026 1.633-1.915 1.476c-1.889-.025-14.975.052-14.975.052s-1.242.025-.103-.959c1.88-1.782 12.42-9.905 12.092-18.417-.28-7.245-8.828-8.292-10.249-.142l-.019.002z"/>
        <path fill="#FCEE21" d="M37.4 93.73c1.526.954 2.509 1.896 3.986 3.086l11.956 11.103c2.495 2.377 8.88 8.836 11.335 11.696 1.675 1.953 2.401 2.163 3.634 4.087-.452.168-6.038 1.453-9.288 2.566-6.755 2.333-12.925 6.065-18.814 4.064-.88-.299-4.891-4.134-6.73-5.433-1.087-.768-2.123-1.493-3.374-2.368-3.585-2.51-4.613-.781.149-11.897 1.246-2.906 2.299-5.523 3.494-8.372 1.036-2.489 2.462-6.51 3.662-8.546l-.01.014zm85.909-67.088c2.46.856 8.423 4.268 9.883 6.104 1.23 1.544.874 1.687.42 3.914l-2.425 19.005c-3.359.123-2.388-.278-4.47-1.677-3.494-2.347-15.474-11.211-19.322-14.316l-7.398-5.955c.545-.511-.189-.234 1.043-.565l10.948-2.47c5.705-1.432 6.59-1.808 11.316-4.036l.005-.004zm-98.19 3.825c2.51-1.4 3.847-.338 8.079-3.408 1.134-.823 3.743-.742 5.33-.525 1.63.233 5.422 3.383 7.158 4.451 1.004.616 5.516 4.068 6.252 5.263l2.229 3.604c3.072.151 2.532-.028 6.408 2.813L97.667 67.18c7.976 5.55 17.284 11.22 25.304 16.814l22.863 14.985c-.659 1.421-1.433 6.324-1.864 8.284-1.98 9.002-4.47 12.813-8.502 21.46-5.793.234-10.365.185-16.026.094-1.833-.031-1.381.354-2.383-.616-3.314-3.217-9.34-10.264-12.692-13.53a89.987 89.987 0 0 1-3.345-3.403c-9.267-9.888-4.892-6.909-6.693-9.37L75.695 84.247c-4.296-4.168-8.144-8.656-12.57-13.35-1.136-1.206-1.707-2.333-2.89-3.438l-.329-.296a4.84 4.84 0 0 1-.489-.52l-5.416-6.166a13.847 13.847 0 0 1-1.563-1.65l-4.87-5.03c-1.072-1.125-1.906-2.291-2.926-3.5l-4.659-4.945c-.698-.7-1.195-.914-1.877-1.633-2.213-2.31-4.076-4.518-6.313-6.825-1.79-1.846-6.15-5.393-6.664-6.427h-.01zM47.483 2.89l-38.267.786c-2.064 7.628-.012 3.768 0 11.731v14.419c-.312 4.163-1.398 6.286-1.398 11.854 0 1.867-.412 6.175.487 7.645 1.593 2.6 1.554 4.8 2.225 8.558.596 3.338 1.246 2.986-.256 5.503l-.7 6.375 3.262 3.203.023 5.598c-1.947 1.787.233.516-3.885 3.5l.344 16.907 4.053 2.946-.838 14.418c-4.274 3.07-3.354 6.791-3.215 10.612l.522 14.381-.931 7.368c9.578 2.415 7.48 1.666 18.427 1.666 9.676 0 8.428.098 17.99-1.064l.246 1.633c1.482-.095 3.012-.177 4.473-.319 4.07-.397 2.443-.868 3.846-1.377 1.013-.368 11.919 2.167 13.69 2.55.978-1.096.48-.653 1.844-1.537.736 1.56 3.892 5.132 5.176 6.697l3.96-3.711 6.909 2.684 2.024-1.705c.79.933 1.27 2.1 2.679 2.293 2.052.269 2.385-3.132 6.91-3.219l26.243-.877c.338-.326.538-.518.899-.872l1.342-1.094c1.724 1.04 2.46 2.041 4.824 1.884 7.237-.48 3.45 1.755 12.791 1.253 1.609-.086 1.211-.483 2.629-.984l3.029-.467c-.66-1.77-1.081-1.521-2.393-2.843l16.609 3.366c-.233-19.595-.182-43.505.067-63.664l-4.47.334c.161-1.309 2.111-.817 2.264-3.448.194-3.317.159-14.67-.323-17.096-.247-1.241-3.399-4.857-4.242-5.981 1.001-2.732 1.102-2.55 2.96-4.775-.156-1.465-.498-1.866-1.127-3.525l4.871-1.598c.053-2.799.368-14.066.186-17.626L161.27 16.05l1.507-4.806.066-4.945c-4.214-2.423-3.657-2.692-6.581-2.673-2.62.019-6.154-.121-8.667-.7-3.226-.74-2.36-1.264-5.898 2.373l-1.605-3.5C135.04 1.423 118.844 0 114.991 0c-4.924 0-4.212.37-5.875 5.97l-7.067.727-.932-3.06-6.406-.073.678-.748c1.244-1.183.813-.717 1.785-2.816H71.416c-.853 1.577-2.409 2.776-4.244 3.387-2.563.854-1.296-.522-2.917.933-1.213 1.09-1.423 1.022-3.335.982a403.867 403.867 0 0 1-7.687-.233c-1.165-.05-2.458.07-3.583-.196-1.733-.41-1.227-.86-2.175-1.983h.007z"/>
    </g>
    <defs>
        <clipPath id="a">
            <path fill="#fff" d="M0 0h171v191H0z"/>
        </clipPath>
    </defs>
</svg>
