<svg xmlns="http://www.w3.org/2000/svg" width="30" height="30" fill="none" viewBox="0 0 30 30">
    <path fill="#FCEE21" d="M25.625 11.25H23.75v-2.5C23.75 3.925 19.825 0 15 0S6.25 3.925 6.25 8.75v2.5H4.375a.625.625 0 0 0-.625.625V27.5c0 1.379 1.121 2.5 2.5 2.5h17.5c1.379 0 2.5-1.121 2.5-2.5V11.875a.625.625 0 0 0-.625-.625zm-8.754 13.056a.626.626 0 0 1-.621.694h-2.5a.625.625 0 0 1-.621-.694l.394-3.546a2.473 2.473 0 0 1-1.023-2.01c0-1.379 1.121-2.5 2.5-2.5s2.5 1.121 2.5 2.5c0 .808-.383 1.545-1.023 2.01l.394 3.546zM20 11.25H10v-2.5c0-2.757 2.243-5 5-5s5 2.243 5 5v2.5z"/>
</svg>
