<svg xmlns="http://www.w3.org/2000/svg" width="519" height="81" fill="none" viewBox="0 0 519 81">
    <g clip-path="url(#a)">
        <path fill="#fff" d="M11.05 18.602c-6.28 0-11.331 3.88-11.331 8.692V53.35c0 3.244 2.3 6.059 5.72 7.55l9.428-9.392V30.332h27.118v19.873H22.263L10.402 62.02c.215.01.43.01.648.01h34.46c6.28 0 11.331-3.869 11.331-8.68V29.932l-6.693-10.566a14.346 14.346 0 0 0-4.638-.765H11.05zM413.627 18.605c-.579 0-1.145.032-1.701.095l-9.634 14.495v20.154c0 4.812 5.055 8.686 11.335 8.686h31.384c6.28 0 11.336-3.874 11.336-8.686v-8.917h-15.119V50.2H417.58V30.331h23.648v4.954h15.119v-7.994c0-4.812-5.056-8.686-11.336-8.686h-31.384zM55.106 18.605l27.545 43.43h10.867l27.545-43.43h-16.776l-16.21 25.827-16.195-25.827H55.106zM127.014 18.605l-7.099 11.197v32.233h46.022V50.2H134.807v-4.953h20.928v-9.962h-20.928v-4.954h31.13V18.605h-38.923zM171.76 18.605v43.43h15.062V30.331h22.869v6.406h-16.493v8.7l18.264 16.598h20.262L213.46 45.437h1.7c5.024 0 9.068-3.487 9.068-7.818V26.423c0-4.331-4.044-7.818-9.068-7.818h-43.4zM291.955 62.035l28.836-43.43H332.168l28.836 43.43h-17.563l-16.969-25.827-16.954 25.827h-17.563zM226.694 18.605l19.114 43.43h9.507l9.961-21.403 9.479 21.403h10.386l19.129-43.43h-14.864l-9.068 21.701-9.621-21.7h-9.904l-9.621 21.7-9.153-21.7h-15.345zM349.157 18.605v11.726h18.704v31.704h14.905V30.331h14.807l7.807-11.726h-56.223zM462.113 18.605v43.43h15.303v-16.68h25.83v16.68h15.062v-43.43h-15.062v15.268h-25.83V18.605h-15.303z"/>
        <path fill="#FCEE21" d="M75.976 18.605L88.084.815l12.109 17.79H75.976zM314.371 62.035l12.108 17.791 12.109-17.791h-24.217z"/>
    </g>
    <defs>
        <clipPath id="a">
            <path fill="#fff" d="M0 0h519v81H0z"/>
        </clipPath>
    </defs>
</svg>
