<svg xmlns="http://www.w3.org/2000/svg" width="522" height="120" fill="none" viewBox="0 0 522 120">
    <g clip-path="url(#a)">
        <path fill="#fff" d="M299.999 28.585c.146.073.146.073 0 0z"/>
        <path fill="#fff" d="M290.767 2.104C292.948.145 296.219-.58 299.054.29c1.091.363 2.036 1.016 3.053 1.669.8.508 1.745.725 2.472 1.306.363.29.072.798.072 1.16.945 2.25 1.454 4.716.655 7.11-.655.799-1.818 1.016-2.763 1.38-.145 1.015.218 1.958.364 2.974-.218.145-.364.29-.582.435 1.381-.073 2.763-.363 4.144-.653.509-.508 1.308-.217 1.962-.29.073-1.016.437-1.959.437-2.975.145 0 .436-.072.581-.145.073.726 0 1.451.218 2.177.364.29.945.145 1.381.217 0 .29 0 .58.073.871 8.432-.072 16.937 0 25.37 0v1.233h.799v-4.716h.945c0 1.307-.073 2.54 0 3.846a.557.557 0 0 0 .364.145c0 .145.072.435.072.58.291-.29.654-.508 1.091-.363.072.218.145.436.218.726-.291.29-.436.653-.291 1.088 2.326.073 4.652 0 7.051 0 .218-.29.582-.435.945-.58.145.072.364.218.436.29h3.417c.145.58.145 1.16.072 1.669h-3.489c-.072.072-.291.29-.436.363-.363-.218-.654-.363-1.018-.58h-6.324c-1.236.362-2.544.29-3.78.072v1.378h-10.395c-.436.363-.872.58-1.454.653.219 1.088-1.017 1.379-1.453 2.177a2.262 2.262 0 0 1-1.163.87c-.364 2.25.436 4.353 1.017 6.457-.654.146-1.381.363-2.035.508a96.637 96.637 0 0 0-1.018 4.426c-.291 1.306-1.308 2.394-2.544 2.902-.872 1.016-2.035 2.031-3.417 2.104-.508.145-.872-.218-1.235-.508-1.818.145-3.49-.725-5.089-1.451-1.744-.798-3.344-1.814-5.016-2.757.146 1.016-.363 1.886-.726 2.757.799.363 1.89.653 2.326 1.524.29.653.581 1.378.581 2.176-.072 2.612-.363 5.224-.509 7.836.073 1.886-.872 3.772-2.18 5.15-.873-.072-1.6-.434-2.399-.797-.291.653-.945 1.306-.582 2.104.291.943.291 1.959.727 2.83 2.472 2.611 4.58 5.513 6.106 8.778 1.527 3.12 2.69 6.385 3.926 9.65.218 0 .654-.073.872-.073.291.943 0 2.031.582 2.902.508.798.363 1.741.363 2.684-.145 2.177-.291 4.353-.509 6.53-.145 1.523-.509 3.047-.727 4.57.073 1.161.582 2.322.509 3.483-.073 1.088-.073 2.249-.945 3.047.073 2.467-.581 4.934.291 7.328a38.088 38.088 0 0 0 3.852 4.498c1.527.726 3.344.871 4.653 2.177.509.798.218 1.741.072 2.611a33.775 33.775 0 0 1-9.377 0c-1.236-.29-2.399-.798-3.634-.943-1.672.073-3.635.726-5.162-.435-.145-1.959.582-3.845.946-5.732.145-.653.799-1.088.726-1.741-.145-2.249-.29-4.571-.436-6.82-.29-.145-.799-.29-.727-.725 0-1.088-.363-2.177-.654-3.192-.509-2.757-.727-5.587-.799-8.416-.073-.798.436-1.379 1.017-1.887.146-1.233.291-2.539.364-3.772-.218-.653-.727-1.161-1.018-1.742-1.308.145-3.198.436-3.998-.943-1.89-2.83-3.853-5.731-5.743-8.56-.799-.073-1.744 0-2.471-.509-.8-.87-1.309-2.031-1.818-3.12-.218.871-.363 1.814-.872 2.54-.436.725-1.163 1.233-1.672 1.886-.509 1.161-.945 2.322-1.381 3.483-.509 1.45-1.236 2.902-1.381 4.498-.073.798-.218 1.523-.509 2.249-.363.58-1.018.798-1.599 1.088-.436.943-.727 1.887-1.381 2.685-.436.507-1.163.653-1.454 1.306-.291.87-.727 1.668-1.09 2.466-.146.87.436 1.814.145 2.685-.509 2.176-1.599 4.208-2.617 6.167-.509 1.451-.872 2.974-1.599 4.353-.291.58-1.018.725-1.599.798-.655 1.596-1.382 3.119-1.818 4.788-.218 1.596-.218 3.265-.145 4.861 0 .726.436 1.306.727 1.959.291.871.072 1.741-.073 2.612-2.835.363-5.743.653-8.505-.218-.291-.217-.218-.58-.291-.87-.218-1.306-.363-2.685.073-3.918.945-3.41 1.745-6.82 2.69-10.23-.364-.363-.873-.653-.873-1.233-.072-.944 0-1.959.218-2.902.437-1.596 1.6-2.83 2.181-4.353.218-.653.146-1.306.218-1.96 0-1.523.873-2.756 1.527-4.062.654-1.088 1.163-2.25 2.035-3.192.582-.508.582-1.306 1.018-1.96.436-.797 1.163-1.45 1.163-2.394.145-1.16-.291-2.321-.145-3.482.29-3.41.945-6.747 1.526-10.157-.291-.363-.727-.726-.872-1.234.072-.362.145-.653.218-1.015l-.654-1.089c.29-.435.581-.943.872-1.378-.291-.218-.654-.508-.945-.726.363-1.088.218-2.684 1.526-3.192.146.073.509.145.655.218-.218-1.887-.218-3.846-.436-5.732-.509-2.031-.582-4.135-.364-6.167.727-1.088 2.108-1.523 3.344-1.596-1.599-.363-3.199-.508-4.725-1.016-.073-1.305.145-2.611.363-3.917.655-2.54.364-5.151.727-7.763.364-.726 1.309-.87 2.108-.726.945.145 1.89-.145 2.835-.435 0-.363.073-.798 0-1.16-.581-2.54-.436-5.152 0-7.619.582-3.192 1.89-6.312 4.289-8.56 1.599-1.524 3.926-2.25 6.106-2.177.727 0 1.163.725 1.745 1.16.291-.29.581-.58.8-.87-.364-1.234-.945-2.54-.873-3.845.146-2.902 1.091-5.877 3.271-7.836zm22.68 20.532c.146.145.146.145 0 0zm1.018.145c.073.508.218 1.016-.073 1.451-.363.145-.799.145-1.163.363 1.018 0 2.035.073 3.053 0 .8-.218.509-1.233.509-1.814-.509-.58-1.599-.217-2.326 0zm-2.544 3.047c.727.798 1.09 2.032 1.744 2.83.945-1.234 1.672-2.54 2.763-3.628-1.309-.072-2.617.073-3.926-.072-.218.29-.363.58-.581.87zM517.929 63.845c1.527-.653 3.489.218 3.926 1.814.436 1.451-.364 3.12-1.818 3.555-1.381.508-3.125-.145-3.634-1.596-.582-1.306.072-3.192 1.526-3.773zm-.436.87c-1.163 1.017-1.018 3.048.291 3.846.799.58 1.89.435 2.762.073a10.915 10.915 0 0 1-1.308-1.887c-.146 0-.509 0-.655-.072-.072.58.219 1.306-.363 1.668-.218-1.16-.073-2.321-.145-3.482.727 0 1.672-.29 2.253.29.436.58 0 1.379-.654 1.596.291.363.509.798.799 1.161l.146-.363c0 .218-.073.653-.146.944 1.236-.726 1.382-2.612.437-3.628-.873-.943-2.545-1.016-3.417-.145zm1.018.509v1.16c.509-.072 1.526.146 1.526-.652-.145-.653-1.09-.436-1.526-.508zM0 70.81c.073-3.627 3.344-6.747 6.906-6.82h18.681c3.562 0 6.76 3.12 6.979 6.675H7.996v16.397h24.57c-.145 2.321-1.454 4.57-3.49 5.731-1.235.726-2.616 1.016-3.997 1.016H6.833c-3.562-.073-6.76-3.265-6.76-6.82C0 81.62 0 76.251 0 70.81zM41.725 64.28c.8-.217 1.672-.29 2.544-.29h18.9c3.562.145 6.615 3.193 6.76 6.748v16.179c-.072 3.627-3.343 6.892-6.978 6.892H43.324c-3.562-.073-6.76-3.265-6.76-6.82V71.028c-.145-3.047 2.108-5.95 5.161-6.747zm2.035 6.24v16.977h18.828V70.52H43.76zM75.381 85.9V63.99c2.181.073 4.435 1.016 5.743 2.83.945 1.233 1.454 2.757 1.527 4.28v16.397c6.251-.073 12.503 0 18.827 0V64.063h7.269v22.999c-.073 3.627-3.198 6.747-6.833 6.892-6.47.073-12.94 0-19.409 0-2.835 0-5.597-1.814-6.687-4.498-.364-1.16-.437-2.322-.437-3.555zM114.926 63.99c3.925-.29 8.069.798 11.122 3.41 5.815 5.514 11.703 10.956 17.518 16.397V71.318c-.072-2.612 1.381-5.151 3.708-6.457 1.09-.653 2.326-.87 3.562-.943.072 9.94 0 19.951 0 29.891h-7.052l-21.589-20.46v20.46h-7.269V63.99zM153.089 70.52c0-3.337 2.762-6.602 6.251-6.457h27.696c0 1.669-.727 3.337-1.817 4.57-1.236 1.307-3.053 1.887-4.798 1.887h-6.833v23.362h-7.342V70.52h-13.157zM189.58 64.063h29.077c-.073 2.104-1.09 4.28-2.835 5.441-1.09.726-2.471 1.088-3.78 1.088h-15.12v5.152h18.391c0 2.539-1.526 5.078-3.925 6.094-.872.363-1.89.508-2.835.508h-11.558v5.151h21.88c0 3.265-2.617 6.385-5.961 6.457h-23.261c0-10.012-.073-19.952-.073-29.891zM223.164 64.063h21.88c2.544.072 5.379.363 7.342 2.176 1.89 1.887 2.108 4.789 2.108 7.328-.073 2.177 0 4.426-.872 6.385-1.163 1.959-3.199 3.337-5.452 3.917 3.198 3.628 6.324 7.328 9.522 10.956h-7.778c-.799 0-1.599 0-2.253-.363-.8-.435-1.308-1.234-1.89-1.886-3.925-4.789-7.778-9.65-11.703-14.438h9.886c.945-.073 1.962-.073 2.689-.798.582-.943.436-2.104.509-3.193-.073-.943.073-2.03-.581-2.829-.727-.58-1.745-.653-2.617-.653h-13.448v23.362c-2.472.072-4.871 0-7.342 0-.073-10.085 0-20.025 0-29.964z"/>
        <path fill="#fff" d="M323.915 68.343c1.09-2.539 3.707-4.28 6.469-4.28h17.81c1.454-.073 2.98.145 4.289.87 2.035 1.089 3.344 3.265 3.707 5.514-8.505.073-17.083 0-25.588 0V75.6h17.374c1.308 0 2.689-.073 3.998.362 2.908.944 4.943 3.918 4.798 6.965-.073 2.177.29 4.498-.582 6.602-1.09 2.54-3.78 4.353-6.542 4.281h-19.482c-3.489-.073-6.615-3.047-6.833-6.457h26.097v-5.296h-19.046c-3.852.072-7.342-3.41-7.123-7.255.145-2.105-.291-4.426.654-6.458zM362.151 64.498c1.235-.58 2.617-.435 3.852-.435h24.352c0 2.54-1.526 5.151-4.071 6.022-1.599.58-3.271.435-4.943.435h-3.634v23.362h-7.27V70.52c-4.07.073-8.214 0-12.284 0 .145-2.54 1.599-5.079 3.998-6.022zM393.263 64.063h21.735c2.471.072 5.233.29 7.269 1.959 2.035 1.814 2.326 4.716 2.326 7.255-.073 2.177 0 4.498-.8 6.602-1.163 2.031-3.198 3.41-5.452 3.99 2.109 2.322 4.217 4.716 6.325 7.038.872 1.016 1.817 1.886 2.617 3.047h-8.142c-1.09 0-2.253-.435-2.908-1.306-3.998-4.86-7.996-9.65-11.994-14.51h10.032c1.017-.073 2.399-.145 2.689-1.306.364-1.596.364-3.265.073-4.861-.218-1.16-1.599-1.306-2.544-1.379h-13.884v23.362h-7.342V64.063zM432.734 64.063h7.27c.072 9.94 0 19.951 0 29.891h-7.27V64.063zM448.218 64.063h7.269v11.39c.436-.072.945.073 1.308-.29 4.725-3.7 9.378-7.4 14.103-11.1h10.613c-5.525 4.86-11.122 9.65-16.719 14.51 6.542 5.151 13.157 10.23 19.626 15.381h-10.613c-.945 0-1.817-.29-2.544-.87-4.943-3.7-9.886-7.473-14.756-11.174h-1.091v12.044c-2.399-.072-4.87 0-7.269 0 .073-10.012.073-19.952.073-29.891zM485.145 64.063h29.077c-.073 1.814-.8 3.555-2.108 4.788-1.309 1.161-3.053 1.742-4.798 1.669h-14.902v5.151h18.391c-.072 2.612-1.599 5.224-4.143 6.094-1.527.653-3.198.436-4.798.436h-9.45a61.443 61.443 0 0 0 0 5.15h21.808c.073 2.685-1.745 5.37-4.362 6.168-1.381.435-2.835.29-4.216.29H485c.218-9.867.145-19.807.145-29.746z"/>
        <path fill="#FCEE21" d="M328.858 105.2c.727-.871 2.035-.871 3.126-.944 1.381 0 2.835-.072 4.143.436 1.018.508 1.018 1.813 1.09 2.829h-2.035c-.145-.58-.145-1.378-.872-1.451-1.091-.145-2.254-.218-3.344.073-.872.29-.8 1.378-.872 2.176.072 1.306-.146 2.685.218 3.991.218.725 1.09.798 1.744.87.873 0 1.89.145 2.69-.29.581-.508.436-1.451.509-2.177h-2.69v-1.523h4.652c-.072 1.669.364 3.555-.727 4.933-1.235.871-2.835.726-4.216.798-1.308-.072-2.98-.072-3.707-1.306-.727-1.451-.582-3.192-.509-4.788.073-1.233-.073-2.612.8-3.627zM341.797 104.329h2.035v8.706c1.672.073 3.344 0 4.943 0v1.814h-6.978v-10.52zM354.591 104.474c1.89-.363 3.852-.435 5.67.145 1.381.508 1.454 2.177 1.599 3.483 0 1.886.218 3.917-.582 5.659-.799 1.088-2.326 1.088-3.561 1.16-1.454 0-3.199.146-4.362-.87-.8-1.016-.8-2.394-.872-3.555 0-1.596-.073-3.192.509-4.716.145-.726.872-1.161 1.599-1.306zm1.09 1.596c-.363.073-.872.218-.945.653-.291 1.524-.218 3.047-.218 4.571.073.653.073 1.669.945 1.741 1.236.145 2.762.435 3.925-.29.582-1.451.364-3.12.364-4.716-.073-.653.073-1.669-.727-1.886-1.09-.291-2.253-.218-3.344-.073zM366.367 104.329h5.888c.872.072 1.963.29 2.253 1.233.436 1.306.364 3.338-1.235 3.846 1.962.435 2.035 2.974 1.308 4.425-.509.871-1.672 1.016-2.617 1.016h-5.597v-10.52zm2.035 1.669v2.684c1.091 0 2.181.073 3.271-.073 1.381 0 1.309-2.539 0-2.611-1.09-.073-2.18 0-3.271 0zm0 7.182c1.236 0 2.399.073 3.635-.072 1.163-.145 1.017-1.742.654-2.54-1.308-.653-2.835-.145-4.289-.362v2.974zM382.141 104.329c1.018-.073 2.035 0 3.053 0 1.163 3.482 2.399 7.037 3.562 10.52h-2.108c-.218-.653-.436-1.379-.654-2.032h-4.507c-.218.653-.436 1.379-.655 2.032h-2.18c1.163-3.483 2.399-6.965 3.489-10.52zm-.218 7.037h3.562c-.582-1.741-1.163-3.555-1.745-5.296-.727 1.669-1.163 3.483-1.817 5.296zM392.827 104.329h2.035v8.706h4.943v1.814h-6.978v-10.52zM412.962 104.401c1.818-.29 3.78-.435 5.525.218 1.236.435 1.454 1.959 1.526 3.12.073 1.886.218 3.845-.436 5.659-.363 1.088-1.744 1.306-2.762 1.451-1.599.072-3.271.218-4.798-.435-1.09-.508-1.308-1.887-1.381-2.903-.145-1.886-.145-3.845.364-5.731.29-.798 1.163-1.233 1.962-1.379zm.8 1.669c-.582.073-.945.581-.945 1.161-.145 1.669-.218 3.482.073 5.151.218.871 1.381.798 2.108.871.872-.073 2.035.145 2.689-.581.509-1.451.291-3.047.291-4.57-.073-.653 0-1.742-.8-1.887-1.163-.363-2.326-.29-3.416-.145zM424.52 104.329h6.979v1.669h-5.016v2.829h4.725v1.741h-4.725v4.281h-2.035c.072-3.483.145-7.038.072-10.52zM435.933 104.329h7.051v1.669h-5.016v2.829h4.725v1.741h-4.725v4.353h-2.035v-10.592zM447.127 104.329h7.197v1.741h-5.234v2.685h4.943v1.523h-4.943v2.902c1.745.073 3.489 0 5.307 0v1.669h-7.27v-10.52zM459.049 104.329h3.416c1.527 2.829 2.908 5.731 4.362 8.634v-8.634h2.035v10.52h-3.416c-1.527-2.902-3.126-5.804-4.434-8.851.072 2.974 0 5.876.072 8.851h-2.035v-10.52zM473.805 105.49c.509-1.016 1.818-1.161 2.763-1.234 1.381 0 2.835-.145 4.143.436.945.508.945 1.741 1.018 2.684a9.485 9.485 0 0 1-2.036 0c-.145-.508-.072-1.378-.799-1.451-.945-.145-1.963-.145-2.835.073-.727.29-.654 1.233-.582 1.813.073.798 1.018.653 1.527.798 1.381.146 2.98 0 4.216.799.872 1.088.654 2.611.436 3.917-.218 1.089-1.308 1.451-2.253 1.524-1.6.145-3.344.218-4.871-.29-1.163-.508-1.163-1.959-1.235-3.047h1.962c.073.58-.072 1.451.654 1.668 1.163.218 2.327.29 3.49-.072.654-.508.581-1.596.29-2.322-.945-.58-2.18-.29-3.271-.508-1.017-.145-2.399-.145-2.835-1.306-.218-1.088-.218-2.394.218-3.482zM486.526 104.329h2.036v10.52h-2.036v-10.52zM492.56 104.329h2.108c.945 2.975 2.035 5.877 2.835 8.851.8-2.974 1.89-5.949 2.835-8.851h2.181c-1.163 3.482-2.254 7.037-3.417 10.52h-3.126c-1.163-3.483-2.253-7.038-3.416-10.52zM506.299 104.329h7.269v1.669h-5.234v2.684h4.943v1.524h-4.943v2.902c1.745.072 3.489 0 5.307 0v1.668h-7.27c-.072-3.41-.072-6.965-.072-10.447z"/>
    </g>
    <defs>
        <clipPath id="a">
            <path fill="#fff" d="M0 0h522v120H0z"/>
        </clipPath>
    </defs>
</svg>
