<?xml version="1.0" encoding="utf-8"?>
<!-- Generator: Adobe Illustrator 22.0.0, SVG Export Plug-In . SVG Version: 6.00 Build 0)  -->
<svg version="1.1" id="Слой_1" xmlns="http://www.w3.org/2000/svg" xmlns:xlink="http://www.w3.org/1999/xlink" x="0px" y="0px"
	 viewBox="0 0 674 128" style="enable-background:new 0 0 674 128;" xml:space="preserve">
<style type="text/css">
	.st0{fill:#FFEE00;}
</style>
<path class="st0" d="M0,0h355.3l39.5,106.5H0L0,0z"/>
<g>
	<path d="M418.5,128h215.7l39.5-104.5H379.1L418.5,128z"/>
	<path d="M57.7,91.8c-10.4,0-19-3.2-26-9.5c-6.8-6.4-10.3-14.6-10.3-24.7c0-10.1,3.4-18.3,10.3-24.7c6.8-6.3,15.5-9.5,26-9.5
		c7.9,0,14.2,1.9,19,5.6c4.9,3.7,8.5,8.3,10.9,13.7l-17.2,8c-0.9-2.6-2.5-4.9-4.8-6.7c-2.4-1.9-5-2.9-7.9-2.9
		c-4.7,0-8.6,1.6-11.5,4.8c-3,3.2-4.4,7.1-4.4,11.8c0,4.7,1.5,8.6,4.4,11.8c3,3.2,6.8,4.8,11.5,4.8c2.9,0,5.5-0.9,7.9-2.8
		c2.4-1.9,4-4.2,4.8-6.8l17.2,7.9c-1.1,2.4-2.4,4.7-3.9,6.8c-1.6,2-3.6,4.1-5.9,6c-2.4,2-5.3,3.6-8.8,4.8
		C65.5,91.3,61.8,91.8,57.7,91.8L57.7,91.8z"/>
	<path d="M128.4,90.7h-19.9V64.4L83.8,24.5h22.4l12.2,22.3l12-22.3h22.4l-24.5,39.8L128.4,90.7z"/>
	<path d="M197.8,90.7h-41.4V24.5h40c6.3,0,11.2,1.7,14.5,5.2c3.4,3.4,5,7.3,5,11.7c0,4-1.1,7.4-3.2,10.1c-2.1,2.6-4.8,4.3-8.1,5.1
		c3.6,0.5,6.6,2.3,9,5.4c2.4,3,3.6,6.6,3.6,10.8c0,5-1.7,9.2-5,12.7C208.8,88.9,204,90.7,197.8,90.7L197.8,90.7z M191.8,48.9
		c1.1,0,2-0.4,2.8-1.1c0.8-0.8,1.2-1.8,1.2-2.9s-0.4-2-1.2-2.7c-0.8-0.7-1.7-1.1-2.8-1.1h-15.4v7.7H191.8z M192.3,74
		c1.4,0,2.6-0.4,3.4-1.1c0.9-0.8,1.3-1.8,1.3-3.1c0-1.2-0.4-2.2-1.3-3c-0.9-0.9-2-1.3-3.4-1.3h-16V74H192.3z"/>
	<path d="M275.2,90.7h-49.9V24.5h49.9V42h-30v6.5h29.3V66h-29.3v7.2h30V90.7z"/>
	<path d="M343,90.7h-22.7l-9.1-20.8H304v20.8H284V24.5h35.1c7.4,0,13.2,2.2,17.4,6.5c4.2,4.3,6.3,9.7,6.3,16.2
		c0,5.2-1.2,9.4-3.6,12.7c-2.3,3.3-5.1,5.7-8.3,7.3L343,90.7z M316.1,52.4c1.8,0,3.4-0.4,4.6-1.3c1.3-0.9,1.9-2.2,1.9-4
		c0-1.7-0.6-2.9-1.9-3.8c-1.3-0.9-2.8-1.4-4.6-1.4H304v10.4L316.1,52.4z"/>
</g>
<path class="st0" d="M481.7,106.5h-35.2V45.9h34.1c5.6,0,9.9,1.5,13,4.6c3.1,3,4.6,6.6,4.6,10.8c0,3.6-1,6.7-3,9.2
	c-1.9,2.5-4.4,4.1-7.3,4.7c3.2,0.5,6,2.1,8.1,5c2.2,2.8,3.3,6.1,3.3,9.8c0,4.7-1.5,8.6-4.6,11.7
	C491.7,104.9,487.4,106.5,481.7,106.5L481.7,106.5z M477.1,69.2c1.6,0,2.8-0.5,3.8-1.4c1-1,1.5-2.2,1.5-3.7c0-1.5-0.5-2.6-1.5-3.5
	c-1-1-2.2-1.5-3.8-1.5h-15.1v10.1H477.1z M477.7,93.3c1.9,0,3.3-0.5,4.3-1.5c1.1-1,1.6-2.4,1.6-4c0-1.6-0.5-2.9-1.6-3.9
	c-1-1-2.5-1.5-4.3-1.5h-15.6v10.9H477.7z"/>
<path class="st0" d="M552,106.5h-44.1V45.9H552v13.6h-28.6V69h28v13.6h-28v10.3H552V106.5z"/>
<path class="st0" d="M590,106.5h-15.5v-47h-16.9V45.9h49.2v13.6H590V106.5z"/>
</svg>
