<svg width="252" height="45" viewBox="0 0 252 45" fill="none" xmlns="http://www.w3.org/2000/svg">
<path fill-rule="evenodd" clip-rule="evenodd" d="M148.424 39.1937L130.849 0L0 0V39.1937H148.424Z" fill="#FCEE21"/>
<path d="M7.49579 18.8709C7.49579 25.7489 13.0955 30.4838 20.3638 30.4838C26.7978 30.4838 30.0185 26.9882 31.325 23.9445L25.1334 21.2384C24.3983 23.18 22.427 24.4539 20.2484 24.3953C18.7374 24.3789 17.2987 23.7803 16.2644 22.7378C15.2301 21.6953 14.6894 20.299 14.7672 18.8709C14.6894 17.4428 15.2301 16.0465 16.2644 15.004C17.2987 13.9615 18.7374 13.3629 20.2484 13.3465C22.4243 13.2909 24.3918 14.5643 25.1261 16.5034L31.3177 13.7973C29.8946 10.7536 26.7978 7.25797 20.3638 7.25797C13.0955 7.25797 7.49579 11.8807 7.49579 18.8709ZM111.867 22.5919H114.369L117.705 30.033H125.807L121.518 22.1411C124.331 20.974 126.087 18.2795 125.925 15.3763C125.925 11.2054 122.947 7.70981 117.466 7.70981H104.718V30.034H111.867V22.5919ZM81.8421 7.5966V29.9198H99.8334V24.5076H89.1104V21.2384H99.5951V16.0526H89.1104V13.0078H99.8334V7.59561L81.8421 7.5966ZM56.5835 7.5966V29.9198H71.1191C75.8845 29.9198 78.1502 26.9882 78.1502 23.8313C78.3082 21.1791 76.3768 18.8222 73.623 18.3068C76.0931 17.7665 77.7994 15.6294 77.6738 13.2333C77.6738 10.6404 75.5287 7.48339 70.6426 7.48339H56.5804L56.5835 7.5966ZM55.1542 7.5966H47.0527L42.7637 15.1509L38.3561 7.5966H30.1339L38.9491 21.2394V30.034H46.2194V21.2384L55.1542 7.5966ZM68.7369 16.1658H63.6136V12.7824H68.7369C69.6888 12.8153 70.4339 13.5696 70.4044 14.4706C70.4406 14.9093 70.2808 15.3423 69.9638 15.6642C69.6469 15.9862 69.2019 16.1678 68.7369 16.1648V16.1658ZM116.156 13.1171C116.757 13.087 117.345 13.2841 117.792 13.6648C118.239 14.0454 118.508 14.5786 118.539 15.1469C118.527 15.7216 118.264 16.2658 117.812 16.6504C117.361 17.0349 116.761 17.2254 116.156 17.1767H111.867V13.1171H116.156ZM68.9751 24.8462H63.6136V21.2384H68.9751C70.0105 21.2614 70.8372 22.0622 70.8372 23.0423C70.8372 24.0223 70.0105 24.8232 68.9751 24.8462Z" fill="black"/>
<path fill-rule="evenodd" clip-rule="evenodd" d="M140.928 7.25797L158.783 45H234.016L251.871 7.25797H140.928Z" fill="black"/>
<path d="M219.602 20.1468H212.463V14.5159H233.881V20.1468H226.741V37.7418H219.602V20.1468ZM166.415 14.5159H180.458C185.337 14.5159 187.48 17.6826 187.48 20.498C187.606 22.9909 185.902 25.2144 183.435 25.7766C186.144 26.2978 188.063 28.6882 187.956 31.4074C187.956 34.6919 185.695 37.7418 181.055 37.7418H166.534V14.5159H166.415ZM178.552 23.4312C179.524 23.3384 180.254 22.5155 180.217 21.5539C180.198 20.6553 179.464 19.9314 178.552 19.9122H173.437V23.4312H178.552ZM178.79 32.4633C179.481 32.4793 180.126 32.1251 180.476 31.5379C180.826 30.9506 180.826 30.2224 180.476 29.6352C180.126 29.0479 179.481 28.6938 178.79 28.7098H173.437V32.4633H178.791H178.79ZM191.521 14.5159H209.369V20.1468H198.661V23.3135H209.131V28.7098H198.661V32.111H209.369V37.7418H191.521V14.5159Z" fill="#FCEE21"/>
</svg>
