<svg xmlns="http://www.w3.org/2000/svg" viewBox="0 0 53 16">
  <defs/>
  <path fill="#FFF" fill-rule="evenodd" d="M23.318 6.33H22v-3c.1-.018 1.334-.069 1.334-.069S23.312.766 23.312 0h3.42c0 .916.008 3.298.008 3.298s1.629-.024 2.208-.024v3.044h-2.216v2.22c0 .774-.006 1.549.003 2.323.009.823.365 1.132 1.2 1.04.331-.036.657-.108 1.061-.177 0 .913.015 1.942-.015 2.82-.005.122-.202.151-.345.196-1.122.352-2.254.369-3.346-.088-1.39-.582-1.936-1.73-1.964-3.14-.032-1.493-.008-2.987-.008-4.48V6.33zm29.677 9.613h-3.238V14.87c0-1.836.001-3.671-.003-5.506 0-.24-.005-.485-.052-.717-.227-1.146-.708-1.514-1.883-1.465-.817.034-1.432.652-1.515 1.627-.069.791-.06 1.59-.065 2.386-.01 1.41-.015 2.818.004 4.227.003.198-.02.577-.02.577L43 15.983s.01-.36.01-.6c.008-2.927.004-5.857.004-8.786 0-.612.016-2.25.016-2.25h3.114l.096.75c1.014-1.107 2.237-1.237 3.511-.994 1.745.333 2.929 1.642 3.125 3.51.119 1.135.103 2.29.115 3.436.017 1.61.004 3.222.004 4.894zM0 10.777l4.005-.05.13.317c.3.696.834 1.056 1.528.982.657-.07 1.12-.519 1.247-1.237.04-.227.047-.46.048-.692.002-3.148.002-6.294.002-9.442V0H11v10.57c-.001 3.142-2.514 5.51-5.759 5.428C2.54 15.929.135 13.643.015 11.025L0 10.777zM35.992 4c3.48 0 6.01 2.53 6.008 6.013-.002 3.42-2.574 5.987-6 5.987-3.48 0-6.003-2.56-6-6.09.003-3.4 2.548-5.91 5.992-5.91zm.492 9c1.048 0 1.863-.565 2.25-1.588.322-.85.355-1.718.08-2.59-.353-1.127-1.16-1.775-2.264-1.82-1.06-.043-1.982.581-2.335 1.703a4.582 4.582 0 00-.204 1.677c.123 1.61 1.115 2.616 2.473 2.618zm-22.076-1.887c.072 1.083 1.253 1.863 2.085 1.91.62.036 1.215-.024 1.743-.408a.974.974 0 00.172-.165l.58.167c.805.228 1.61.46 2.476.707-.633 1.17-1.544 1.936-2.735 2.34-3.45 1.171-7.16-.796-7.667-4.744-.403-3.143 1.184-5.939 3.98-6.697 3.065-.83 6.436.656 6.876 4.549.061.535.085 1.078.082 1.616-.002.268-.017.725-.017.725s-7.351-.016-7.575 0zM19 8c-.093-1.255-.914-2.02-2.088-2-.991.018-1.864.919-1.912 2h4z" opacity=".703"/>
</svg>