<svg xmlns="http://www.w3.org/2000/svg" viewBox="0 0 63 25">
  <defs/>
  <path fill="#FFF" fill-rule="evenodd" d="M24.54 24.918c.265.226.616-.057.385-.34-2.605-3.172-5.008-3.77-7.403-4.276-2.93-.618-4.442-2.213-5.496-3.965-.21-.35-.304-.287-.321.162-.022.549.02 1.275.148 1.99-.118.005-.237.004-.356.005-4.19.01-7.596-3.275-7.607-7.34-.012-4.065 3.375-7.369 7.565-7.38 4.19-.012 7.595 3.274 7.607 7.34 0 .289-.013.574-.046.855-.554-.096-1.644-.104-2.41-.037-.287.025-.246.155-.028.192 2.509.433 4.236 1.936 4.637 4.671.01.063.094.082.128.027a10.835 10.835 0 001.608-5.72C22.934 4.955 17.781-.016 11.444 0 5.106.017-.017 5.016 0 11.164c.018 6.15 5.17 11.12 11.508 11.104 1.681-.005 3.348-.326 5.796-.333 2.2-.006 4.588.72 7.236 2.983zm-5.666-5.237c-.146.205-.382.318-.665.319-.279 0-.563-.107-.76-.289-.452-.415-.587-1.092-.293-1.477.115-.15.301-.233.526-.234.272 0 .557.12.804.339.497.442.65.97.388 1.342zM20.78 18c-.146 0-.33-.218-.547-.65-.214-.427-.293-.916-.188-1.165.07-.164.216-.235.4-.147.358.172.5.873.537 1.196.064.54-.068.765-.202.766zm11.97-9.64c-.099-.134-.015-.34.14-.34l1.965-.007c.093-.318.145-.658.144-1.011-.004-1.616-1.061-3.006-2.507-3.002-1.447.005-2.497 1.402-2.493 3.018.004 1.616 1.061 2.986 2.507 2.982.439-.002.84-.13 1.187-.352L32.75 8.36zm5.205 3.14c.1.106.019.28-.132.28l-2.096.005a.29.29 0 01-.222-.1l-.356-.414A4.694 4.694 0 0132.64 12c-2.552.007-4.634-2.006-4.641-4.488-.007-2.48 2.064-4.505 4.616-4.512 2.552-.007 4.634 2.006 4.641 4.488a4.382 4.382 0 01-.729 2.43l1.428 1.581zM60.31 4.003c-.172 0-.311.081-.311.18l.032 6.636c0 .1.14.18.313.18l2.344-.004c.172 0 .312-.081.311-.18l-.032-6.636c0-.1-.14-.18-.313-.18l-2.344.004zm-3.646 0c-.109 0-.205.052-.237.127l-1.636 3.915-1.829-3.912c-.034-.073-.13-.122-.236-.122l-1.456.003c-.106 0-.2.05-.235.123l-1.799 3.919-1.666-3.908c-.032-.075-.128-.126-.237-.126l-2.087.004a.287.287 0 00-.2.075c-.047.046-.06.106-.034.16l3.09 6.617c.034.072.128.121.235.121l1.656-.003c.107 0 .201-.05.235-.123l1.782-3.872 1.811 3.865c.034.073.13.122.236.121l1.656-.003c.106 0 .201-.05.235-.122l3.039-6.629c.024-.054.012-.114-.035-.16A.288.288 0 0058.75 4l-2.086.004zM43 10.815c0 .1-.139.18-.31.181L40.344 11c-.173 0-.313-.08-.313-.18L40 4.185c0-.1.139-.18.31-.181L42.656 4c.173 0 .313.08.313.18L43 10.815z" opacity=".705"/>
</svg>