<svg xmlns="http://www.w3.org/2000/svg" viewBox="0 0 86 20">
  <defs/>
  <path fill="#FFF" fill-rule="evenodd" d="M78.048 7.756l1.858-1.605 1.678 1.776-1.857 1.605-1.68-1.776zm5.574 2.655l1.24-1.07L86 10.527l-1.258 1.07-1.12-1.185zm-3.177-7.068l1.24-1.089 1.119 1.204-1.24 1.07-1.119-1.185zm1.6 3.534l1.238-1.07L84.4 6.992l-1.238 1.07-1.119-1.185zm-.76 8.253l1.858-1.605 1.678 1.776-1.858 1.624-1.678-1.795zm-1.639-3.611l1.858-1.605 1.679 1.796-1.859 1.605-1.678-1.796zM76.33 4.164l1.858-1.604 1.68 1.776-1.86 1.624-1.678-1.796zm-4.575 1.147l2.497-2.14L76.49 5.56 73.992 7.7l-2.237-2.388zm3.556 8.195l2.478-2.159 2.258 2.388-2.498 2.14-2.238-2.369zm-1.78-4.126l2.498-2.14 2.239 2.388-2.499 2.14-2.238-2.388zM75.45 0c1.638 0 3.197.363 4.596 1.012.22.096.44.21.659.325l-.96.822L78.309.726 75.83 2.827l-1.459-1.51-4.556 3.917 2.917 3.076-1.139.955 2.878 3.075-1.139.955 4.117 4.375 2.436-2.14 2.12 2.293c-.42.306-.88.612-1.38.879A10.817 10.817 0 0175.47 20C69.695 20 65 15.512 65 9.991 64.98 4.508 69.675 0 75.45 0zM5.019 6.665h-.087L3.312 13H1.988L0 4h1.374l1.374 6.716h.086L4.43 4h1.09l1.706 6.716h.086L8.564 4H10l-1.988 9H6.686L5.02 6.665zm10.806 4.705v1.016a3.715 3.715 0 01-2.063.614C11.804 13 11 11.61 11 9.5c0-2.03.897-3.5 2.646-3.5C15.102 6 16 7.083 16 9.26v.494h-3.8c0 1.602.571 2.31 1.772 2.31.63 0 1.212-.254 1.853-.694zm-3.601-2.512h2.668c-.058-1.402-.652-1.962-1.281-1.962-.711 0-1.26.627-1.387 1.962zm6.986-2.167c.348-.206.94-.48 1.569-.48C22.22 6.212 23 7.327 23 9.4c0 2.42-1.047 3.6-2.732 3.6-.617 0-1.57-.22-2.268-.636v-9.04L19.21 3v3.691zm-.012 5.194c.372.182.779.208 1.07.208.86 0 1.51-.596 1.51-2.694 0-1.645-.534-2.177-1.313-2.177-.465 0-.802.143-1.267.428v4.235zm10.315-.79h.065L32.378 4H34v9h-1.413V6.475h-.118L29.801 13h-.837l-2.67-6.372h-.117V13H25V4h1.583l2.93 7.095zM35 9.5C35 7.162 36.053 6 37.5 6 38.948 6 40 7.162 40 9.5c0 2.284-.998 3.5-2.5 3.5S35 11.784 35 9.5zm3.848 0c0-1.803-.603-2.564-1.348-2.564-.724 0-1.35.761-1.35 2.564 0 1.83.572 2.564 1.35 2.564.778 0 1.348-.734 1.348-2.564zM41 7.012C41.536 6.642 42.667 6 44.036 6 45.466 6 46 6.643 46 8.05V13h-1.237V8.365c0-1.08-.464-1.27-1.072-1.27-.476 0-1.084.246-1.453.492V13H41V7.012zm11.824 4.358v1.016A3.714 3.714 0 0150.76 13C48.805 13 48 11.61 48 9.5c0-2.03.897-3.5 2.645-3.5C52.102 6 53 7.083 53 9.26v.494h-3.8c0 1.602.571 2.31 1.772 2.31.628 0 1.212-.254 1.852-.694zm-3.6-2.512h2.668c-.058-1.402-.653-1.962-1.282-1.962-.71 0-1.258.627-1.387 1.962zM59.618 6H61l-2.336 6.338C58.018 14.088 57.232 15 55.748 15v-1.039c.878 0 1.42-.685 1.73-1.623L55 6h1.42l1.651 4.665h.078L59.619 6z" opacity=".702"/>
</svg>