<svg xmlns="http://www.w3.org/2000/svg" viewBox="0 0 80 17">
  <defs/>
  <path fill="#FFF" fill-rule="evenodd" d="M3.138 14V9.457L0 1.313h1.578L3.89 7.594 6.55 0H8L4.587 9.51V14h-1.45zm36.657-8.2l-1.75 4.249L40 14.874h-1.507L37.04 11.13l-1.415 3.745h-1.433l1.954-4.7L34.38 5.8h1.508l1.21 3.295L38.38 5.8h1.414zm-10.2 3.708h2.402c0-1.548-.26-2.682-1.099-2.682-.893 0-1.21 1.062-1.302 2.682zM31.197 15c-1.935 0-3.127-1.494-3.127-4.285 0-2.917.838-5.042 2.83-5.042 1.563 0 2.587 1.135 2.587 4.214v.774h-3.909c0 2.052.596 3.133 1.75 3.133.819 0 1.414-.36 1.787-.612l.334 1.08c-.595.45-1.321.738-2.252.738zm-6.03-7.742c-.298-.288-.614-.432-1.098-.432-1.173 0-1.731 1.71-1.731 3.565 0 2.124.41 3.42 1.47 3.42.726 0 1.117-.342 1.359-.702V7.258zm-4.374 3.42c0-3.366 1.303-5.005 3.183-5.005.447 0 .912.144 1.191.342V2h1.452v12.874h-1.08l-.111-.72h-.094c-.409.504-.93.846-1.693.846-1.843 0-2.848-1.512-2.848-4.321zm-5.249 4.196h-1.451V5.781h1.451v.792h.093c.261-.342.968-.9 1.843-.9 1.229 0 1.88.666 1.88 2.053v7.148h-1.47V7.852c0-.684-.317-.919-.875-.919-.615 0-1.136.45-1.47.901v7.04zm-4.69-4.735h-.168c-1.805 0-2.196.774-2.196 1.944 0 1.044.354 1.729 1.098 1.729.503 0 1.005-.324 1.266-.72v-2.953zm1.6 4.735h-1.228a4.172 4.172 0 01-.13-.72h-.093c-.41.504-.93.846-1.75.846C7.912 15 7 14.028 7 12.245c0-1.944 1.024-3.169 3.648-3.169h.205v-.54c0-1.188-.41-1.692-1.228-1.692-.745 0-1.378.378-1.862.792l-.279-1.243c.428-.342 1.284-.72 2.234-.72 1.656 0 2.568.684 2.568 2.881v4.268c0 .864.093 1.62.168 2.052zM45.163 6.11L44.768 15H44l.58-13h1.031l2.005 8.018c.169.636.262 1.255.318 1.8h.038c.056-.545.169-1.164.337-1.8L50.37 2h1.05L52 15h-.9l-.393-8.964c-.056-1.018-.037-1.8-.037-2.6h-.057c-.112.818-.243 1.582-.449 2.346l-1.874 7.182h-.73l-1.855-7.182a14.936 14.936 0 01-.431-2.327h-.057c0 .709-.018 1.763-.055 2.654zM59.085 9.5c0-2.714-.935-3.83-2.085-3.83s-2.085 1.202-2.085 3.83c0 2.697.936 3.847 2.085 3.847 1.15 0 2.085-1.236 2.085-3.847zM54 9.552C54 6.666 55.306 5 57 5c1.695 0 3 1.477 3 4.449C60 12.317 58.695 14 57 14c-1.694 0-3-1.494-3-4.448zm7.855-1.995V14H61V5.175h.782l.036 1.453h.037C62.109 5.981 62.836 5 64.073 5 65.29 5 66 5.735 66 7.136V14h-.854V7.241c0-1.05-.4-1.54-1.237-1.54-.909 0-1.6.735-2.054 1.856zm6.994 1.445h3.307c.145-2.302-.578-3.332-1.5-3.332-.957 0-1.735 1.168-1.807 3.332zm1.988 4.294c1.21 0 1.843-.928 1.843-.928l.27.653s-.685.979-2.13.979C68.886 14 68 12.334 68 9.5S69.12 5 70.656 5c1.572 0 2.584 1.563 2.295 4.637h-4.12c.036 2.37.687 3.659 2.006 3.659zm3.61 3.668l-.101-.795c.162.036.366.072.63.072.692 0 1.18-.596 1.485-1.609l.081-.27L74 5h.956l1.627 5.946c.183.687.325 1.355.427 2.06h.061c.142-.723.305-1.392.488-2.06L79.146 5H80l-2.624 9.578c-.346 1.23-.956 2.422-2.4 2.422-.223 0-.386-.018-.529-.036z" opacity=".703"/>
</svg>