<svg width="15" height="15" viewBox="0 0 15 15" fill="none" xmlns="http://www.w3.org/2000/svg">
<path d="M4.26765 4.26773C5.24381 3.29155 5.24381 1.70832 4.26765 0.732138C3.29148 -0.244046 1.70829 -0.244046 0.732124 0.732138C-0.244041 1.70832 -0.244041 3.29155 0.732124 4.26773C1.70868 5.24431 3.29148 5.24431 4.26765 4.26773ZM14.2676 10.7323C13.2914 9.75608 11.7082 9.75608 10.7321 10.7323C9.75589 11.7085 9.75589 13.2917 10.7321 14.2679C11.7082 15.244 13.2914 15.244 14.2676 14.2679C15.2441 13.2917 15.2441 11.7088 14.2676 10.7323ZM14.1918 1.69192L13.3082 0.808312C12.8199 0.320024 12.0285 0.320024 11.5406 0.808312L0.808296 11.5409C0.320017 12.0292 0.320017 12.8206 0.808296 13.3085L1.69188 14.1921C2.18016 14.6804 2.97156 14.6804 3.45945 14.1921L14.1918 3.45952C14.6801 2.97162 14.6801 2.1802 14.1918 1.69192Z" fill="white"/>
</svg>
