<svg width="8" height="16" viewBox="0 0 8 16" fill="none" xmlns="http://www.w3.org/2000/svg">
<path d="M5.81135 7.29375L2.8107 6.30625C2.46341 6.19375 2.22169 5.82812 2.22169 5.42188C2.22169 4.9125 2.58843 4.5 3.04131 4.5H4.88337C5.22233 4.5 5.55574 4.61562 5.83357 4.82812C6.00306 4.95625 6.23088 4.925 6.37536 4.76562L7.34223 3.70312C7.5395 3.4875 7.51171 3.12812 7.29222 2.9375C6.61152 2.3375 5.76134 2.00312 4.88893 2V0.5C4.88893 0.225 4.68888 0 4.44439 0H3.55531C3.31081 0 3.11077 0.225 3.11077 0.5V2H3.04131C1.27148 2 -0.151044 3.70938 0.0128797 5.7375C0.129571 7.17813 1.10756 8.35 2.34116 8.75625L5.18899 9.69375C5.53629 9.80938 5.77801 10.1719 5.77801 10.5781C5.77801 11.0875 5.41126 11.5 4.95839 11.5H3.11632C2.77736 11.5 2.44396 11.3844 2.16612 11.1719C1.99664 11.0437 1.76881 11.075 1.62434 11.2344L0.657463 12.2969C0.460198 12.5125 0.487982 12.8719 0.707473 13.0625C1.38818 13.6625 2.23836 13.9969 3.11077 14V15.5C3.11077 15.775 3.31081 16 3.55531 16H4.44439C4.68888 16 4.88893 15.775 4.88893 15.5V13.9937C6.18365 13.9656 7.3978 13.1 7.82567 11.7219C8.42302 9.79688 7.42003 7.82187 5.81135 7.29375Z" fill="white"/>
</svg>
