<svg width="17" height="17" viewBox="0 0 17 17" fill="none" xmlns="http://www.w3.org/2000/svg">
<path d="M16.1194 10.1643C16.2295 9.63295 16.2978 9.06743 16.2978 8.5019C16.2978 4.19402 12.8098 0.709757 8.50568 0.709757C7.94015 0.709757 7.37842 0.77428 6.84326 0.888145C6.12211 0.330208 5.22638 0 4.25094 0C1.90533 0 0 1.90534 0 4.25095C0 5.22639 0.330207 6.12213 0.884347 6.83947C0.774278 7.37084 0.70596 7.93637 0.70596 8.5019C0.70596 12.8098 4.19401 16.294 8.49809 16.294C9.06361 16.294 9.62535 16.2295 10.1605 16.1157C10.8816 16.6698 11.7774 17 12.749 17C15.0946 17 17 15.0947 17 12.7491C17.0038 11.7774 16.6736 10.8817 16.1194 10.1643ZM8.73341 13.6372C6.24357 13.6372 4.15985 12.5289 4.15985 11.1701C4.15985 10.5628 4.50144 10.0087 5.27952 10.0087C6.46371 10.0087 6.57378 11.7129 8.62334 11.7129C9.59878 11.7129 10.2288 11.2802 10.2288 10.7147C10.2288 10.0049 9.62155 9.89484 8.63472 9.65193C6.26255 9.06743 4.16364 8.81692 4.16364 6.34226C4.16364 4.09533 6.3878 3.26412 8.30452 3.26412C10.3958 3.26412 12.5099 4.09533 12.5099 5.36682C12.5099 6.00826 12.0772 6.57379 11.3599 6.57379C10.2858 6.57379 10.2516 5.3023 8.51327 5.3023C7.53783 5.3023 6.91917 5.56798 6.91917 6.15628C6.91917 6.90779 7.70863 6.9837 9.54184 7.4088C11.1132 7.76178 12.9843 8.42599 12.9843 10.3541C12.9843 12.5972 10.8171 13.6372 8.73341 13.6372Z" fill="white"/>
</svg>
